<?xml version="1.0" encoding="UTF-8" standalone="no"?>
<!DOCTYPE svg PUBLIC "-//W3C//DTD SVG 1.1//EN" "http://www.w3.org/Graphics/SVG/1.1/DTD/svg11.dtd">
<svg width="100%" height="100%" viewBox="0 0 596 301" version="1.1" xmlns="http://www.w3.org/2000/svg" xmlns:xlink="http://www.w3.org/1999/xlink" xml:space="preserve" xmlns:serif="http://www.serif.com/" style="fill-rule:evenodd;clip-rule:evenodd;stroke-linejoin:round;stroke-miterlimit:2;">
    <g transform="matrix(1,0,0,1,-772,-659)">
        <g transform="matrix(1,0,0,1,732.5,260)">
            <g id="tables-summary-with-descriptions" serif:id="tables summary with descriptions">
                <g id="table-0.5d-0.5w-summary" serif:id="table 0.5d 0.5w summary" transform="matrix(1,0,0,1,-80,240)">
                    <g transform="matrix(0.495159,0,0,0.261614,12.5355,156.96)">
                        <g id="table-1d-0.5w" serif:id="table 1d 0.5w">
                            <g id="table-0.5d-0.5w" serif:id="table 0.5d 0.5w">
                                <rect x="217.03" y="164.516" width="131.271" height="248.458" style="fill:rgb(176,222,241);"/>
                                <path d="M348.302,164.516L348.302,412.974L217.03,412.974L217.03,164.516L348.302,164.516ZM346.282,168.339C346.282,168.339 219.05,168.339 219.05,168.339C219.05,168.339 219.05,409.152 219.05,409.152C219.05,409.152 346.282,409.152 346.282,409.152L346.282,168.339Z" style="fill:rgb(88,134,157);"/>
                            </g>
                        </g>
                    </g>
                    <g transform="matrix(0.160718,0,0,0.160718,80.0867,186.612)">
                        <text x="294.003px" y="275px" style="font-family:'Arial-BoldMT', 'Arial', sans-serif;font-weight:700;font-size:62.221px;">65 x 65 cm</text>
                        <g transform="matrix(55.9988,0,0,55.9988,558.827,332.831)">
                        </g>
                        <g transform="matrix(55.9988,0,0,55.9988,577.475,332.831)">
                        </g>
                        <text x="325.343px" y="332.831px" style="font-family:'ArialMT', 'Arial', sans-serif;font-size:55.999px;">0,4225 m²</text>
                    </g>
                </g>
                <g id="table-1d-0.5w-with-other-half-summary" serif:id="table 1d 0.5w with other half summary" transform="matrix(1,0,0,1,-80,240)">
                    <g transform="matrix(0.495159,0,0,0.261614,92.5355,221.96)">
                        <g id="tmp-1d-0.5w" serif:id="tmp 1d 0.5w">
                            <g id="table-square" serif:id="table square">
                                <rect x="217.03" y="164.516" width="131.271" height="248.458" style="fill:rgb(176,222,241);fill-opacity:0.5;"/>
                                <path d="M348.301,405.33L348.301,412.974L346.282,412.974L346.282,409.152L346.282,405.33L348.301,405.33ZM219.05,164.516L219.05,168.339L219.05,172.161L217.03,172.161L217.03,168.339C217.03,168.339 217.687,165.924 218.252,164.516L219.05,164.516ZM217.03,175.984L219.05,175.984L219.05,179.806L217.03,179.806L217.03,175.984ZM217.03,183.628L219.05,183.628L219.05,187.451L217.03,187.451L217.03,183.628ZM217.03,191.273L219.05,191.273L219.05,195.096L217.03,195.096L217.03,191.273ZM217.03,198.918L219.05,198.918L219.05,202.74L217.03,202.74L217.03,198.918ZM217.03,206.563L219.05,206.563L219.05,210.385L217.03,210.385L217.03,206.563ZM217.03,214.208L219.05,214.208L219.05,218.03L217.03,218.03L217.03,214.208ZM217.03,221.853L219.05,221.853L219.05,225.675L217.03,225.675L217.03,221.853ZM217.03,229.497L219.05,229.497L219.05,233.32L217.03,233.32L217.03,229.497ZM217.03,237.142L219.05,237.142L219.05,240.965L217.03,240.965L217.03,237.142ZM217.03,244.787L219.05,244.787L219.05,248.61L217.03,248.61L217.03,244.787ZM217.03,252.432L219.05,252.432L219.05,256.255L217.03,256.255L217.03,252.432ZM217.03,260.077L219.05,260.077L219.05,263.899L217.03,263.899L217.03,260.077ZM217.03,267.722L219.05,267.722L219.05,271.544L217.03,271.544L217.03,267.722ZM217.03,275.366L219.05,275.366L219.05,279.189L217.03,279.189L217.03,275.366ZM217.03,283.011L219.05,283.011L219.05,286.834L217.03,286.834L217.03,283.011ZM217.03,290.656L219.05,290.656L219.05,294.478L217.03,294.478L217.03,290.656ZM217.03,298.301L219.05,298.301L219.05,302.123L217.03,302.123L217.03,298.301ZM217.03,305.946L219.05,305.946L219.05,309.769L217.03,309.769L217.03,305.946ZM217.03,313.591L219.05,313.591L219.05,317.413L217.03,317.413L217.03,313.591ZM217.03,321.236L219.05,321.236L219.05,325.058L217.03,325.058L217.03,321.236ZM217.03,328.881L219.05,328.881L219.05,332.703L217.03,332.703L217.03,328.881ZM217.03,336.525L219.05,336.525L219.05,340.348L217.03,340.348L217.03,336.525ZM217.03,344.17L219.05,344.17L219.05,347.993L217.03,347.993L217.03,344.17ZM217.03,351.815L219.05,351.815L219.05,355.637L217.03,355.637L217.03,351.815ZM217.03,359.46L219.05,359.46L219.05,363.282L217.03,363.282L217.03,359.46ZM217.03,367.105L219.05,367.105L219.05,370.927L217.03,370.927L217.03,367.105ZM217.03,374.75L219.05,374.75L219.05,378.572L217.03,378.572L217.03,374.75ZM217.03,382.394L219.05,382.394L219.05,386.217L217.03,386.217L217.03,382.394ZM217.03,390.039L219.05,390.039L219.05,393.862L217.03,393.862L217.03,390.039ZM217.03,397.684L219.05,397.684L219.05,401.506L217.03,401.506L217.03,397.684ZM217.03,405.329L219.05,405.329L219.05,409.152L219.05,412.974L217.03,412.974L217.03,409.152L217.052,409.152C217.045,409.152 217.037,409.152 217.03,409.152L217.03,405.329ZM221.069,412.974L221.069,409.152L223.089,409.152L223.089,412.974L221.069,412.974ZM225.108,412.974L225.108,409.152L227.128,409.152L227.128,412.974L225.108,412.974ZM229.148,412.974L229.148,409.152L231.167,409.152L231.167,412.974L229.148,412.974ZM233.187,412.974L233.187,409.152L235.206,409.152L235.206,412.974L233.187,412.974ZM237.226,412.974L237.226,409.152L239.245,409.152L239.245,412.974L237.226,412.974ZM241.265,412.974L241.265,409.152L243.285,409.152L243.285,412.974L241.265,412.974ZM245.304,412.974L245.304,409.152L247.324,409.152L247.324,412.974L245.304,412.974ZM249.343,412.974L249.343,409.152L251.363,409.152L251.363,412.974L249.343,412.974ZM253.382,412.974L253.382,409.152L255.402,409.152L255.402,412.974L253.382,412.974ZM257.422,412.974L257.422,409.152L259.441,409.152L259.441,412.974L257.422,412.974ZM261.461,412.974L261.461,409.152L263.48,409.152L263.48,412.974L261.461,412.974ZM265.5,412.974L265.5,409.152L267.519,409.152L267.519,412.974L265.5,412.974ZM269.539,412.974L269.539,409.152L271.558,409.152L271.558,412.974L269.539,412.974ZM273.578,412.974L273.578,409.152L275.597,409.152L275.597,412.974L273.578,412.974ZM277.617,412.974L277.617,409.152L279.636,409.152L279.636,412.974L277.617,412.974ZM281.656,412.974L281.656,409.152L283.676,409.152L283.676,412.974L281.656,412.974ZM285.695,412.974L285.695,409.152L287.715,409.152L287.715,412.974L285.695,412.974ZM289.734,412.974L289.734,409.152L291.754,409.152L291.754,412.974L289.734,412.974ZM293.773,412.974L293.773,409.152L295.793,409.152L295.793,412.974L293.773,412.974ZM297.813,412.974L297.813,409.152L299.832,409.152L299.832,412.974L297.813,412.974ZM301.852,412.974L301.852,409.152L303.871,409.152L303.871,412.974L301.852,412.974ZM305.891,412.974L305.891,409.152L307.91,409.152L307.91,412.974L305.891,412.974ZM309.93,412.974L309.93,409.152L311.949,409.152L311.949,412.974L309.93,412.974ZM313.969,412.974L313.969,409.152L315.988,409.152L315.988,412.974L313.969,412.974ZM318.008,412.974L318.008,409.152L320.027,409.152L320.027,412.974L318.008,412.974ZM322.047,412.974L322.047,409.152L324.067,409.152L324.067,412.974L322.047,412.974ZM326.086,412.974L326.086,409.152L328.106,409.152L328.106,412.974L326.086,412.974ZM330.125,412.974L330.125,409.152L332.145,409.152L332.145,412.974L330.125,412.974ZM334.164,412.974L334.164,409.152L336.184,409.152L336.184,412.974L334.164,412.974ZM338.204,412.974L338.204,409.152L340.223,409.152L340.223,412.974L338.204,412.974ZM342.243,412.974L342.243,409.152L344.262,409.152L344.262,412.974L342.243,412.974ZM348.301,401.507L346.282,401.507L346.282,397.685L348.301,397.685L348.301,401.507ZM348.301,393.862L346.282,393.862L346.282,390.04L348.301,390.04L348.301,393.862ZM348.301,386.217L346.282,386.217L346.282,382.395L348.301,382.395L348.301,386.217ZM348.301,378.573L346.282,378.573L346.282,374.75L348.301,374.75L348.301,378.573ZM348.301,370.928L346.282,370.928L346.282,367.105L348.301,367.105L348.301,370.928ZM348.301,363.283L346.282,363.283L346.282,359.46L348.301,359.46L348.301,363.283ZM348.301,355.638L346.282,355.638L346.282,351.815L348.301,351.815L348.301,355.638ZM348.301,347.993L346.282,347.993L346.282,344.171L348.301,344.171L348.301,347.993ZM348.301,340.348L346.282,340.348L346.282,336.526L348.301,336.526L348.301,340.348ZM348.301,332.703L346.282,332.703L346.282,328.881L348.301,328.881L348.301,332.703ZM348.301,325.058L346.282,325.058L346.282,321.236L348.301,321.236L348.301,325.058ZM348.301,317.414L346.282,317.414L346.282,313.591L348.301,313.591L348.301,317.414ZM348.301,309.769L346.282,309.769L346.282,305.947L348.301,305.947L348.301,309.769ZM348.301,302.124L346.282,302.124L346.282,298.302L348.301,298.302L348.301,302.124ZM348.301,294.479L346.282,294.479L346.282,290.657L348.301,290.657L348.301,294.479ZM348.301,286.835L346.282,286.835L346.282,283.012L348.301,283.012L348.301,286.835ZM348.301,279.19L346.282,279.19L346.282,275.367L348.301,275.367L348.301,279.19ZM348.302,271.545L346.282,271.545L346.282,267.722L348.302,267.722L348.302,271.545ZM348.302,263.9L346.282,263.9L346.282,260.077L348.302,260.077L348.302,263.9ZM348.302,256.255L346.282,256.255L346.282,252.432L348.302,252.432L348.302,256.255ZM348.302,248.61L346.282,248.61L346.282,244.788L348.302,244.788L348.302,248.61ZM348.302,240.965L346.282,240.965L346.282,237.143L348.302,237.143L348.302,240.965ZM348.302,233.32L346.282,233.32L346.282,229.498L348.302,229.498L348.302,233.32ZM348.302,225.676L346.282,225.676L346.282,221.853L348.302,221.853L348.302,225.676ZM348.302,218.031L346.282,218.031L346.282,214.208L348.302,214.208L348.302,218.031ZM348.302,210.386L346.282,210.386L346.282,206.564L348.302,206.564L348.302,210.386ZM348.302,202.741L346.282,202.741L346.282,198.919L348.302,198.919L348.302,202.741ZM348.302,195.096L346.282,195.096L346.282,191.274L348.302,191.274L348.302,195.096ZM348.302,187.451L346.282,187.451L346.282,183.629L348.302,183.629L348.302,187.451ZM348.302,179.806L346.282,179.806L346.282,175.984L348.302,175.984L348.302,179.806ZM348.302,172.162L346.282,172.162L346.282,168.339L346.282,164.517C346.282,168.119 348.302,168.339 348.302,168.339L348.302,172.162ZM344.262,164.517L344.262,168.339L342.243,168.339L342.243,164.517L344.262,164.517ZM340.223,164.517L340.223,168.339L338.204,168.339L338.204,164.517L340.223,164.517ZM336.184,164.517L336.184,168.339L334.165,168.339L334.165,164.517L336.184,164.517ZM332.145,164.517L332.145,168.339L330.126,168.339L330.126,164.517L332.145,164.517ZM328.106,164.517L328.106,168.339L326.087,168.339L326.087,164.517L328.106,164.517ZM324.067,164.517L324.067,168.339L322.047,168.339L322.047,164.517L324.067,164.517ZM320.028,164.517L320.028,168.339L318.008,168.339L318.008,164.516L320.028,164.517ZM315.989,164.516L315.989,168.339L313.969,168.339L313.969,164.516L315.989,164.516ZM311.95,164.516L311.95,168.339L309.93,168.339L309.93,164.516L311.95,164.516ZM307.91,164.516L307.91,168.339L305.891,168.339L305.891,164.516L307.91,164.516ZM303.871,164.516L303.871,168.339L301.852,168.339L301.852,164.516L303.871,164.516ZM299.832,164.516L299.832,168.339L297.813,168.339L297.813,164.516L299.832,164.516ZM295.793,164.516L295.793,168.339L293.774,168.339L293.774,164.516L295.793,164.516ZM291.754,164.516L291.754,168.339L289.735,168.339L289.735,164.516L291.754,164.516ZM287.715,164.516L287.715,168.339L285.696,168.339L285.696,164.516L287.715,164.516ZM283.676,164.516L283.676,168.339L281.656,168.339L281.656,164.516L283.676,164.516ZM279.637,164.516L279.637,168.339L277.617,168.339L277.617,164.516L279.637,164.516ZM275.598,164.516L275.598,168.339L273.578,168.339L273.578,164.516L275.598,164.516ZM271.558,164.516L271.558,168.339L269.539,168.339L269.539,164.516L271.558,164.516ZM267.519,164.516L267.519,168.339L265.5,168.339L265.5,164.516L267.519,164.516ZM263.48,164.516L263.48,168.339L261.461,168.339L261.461,164.516L263.48,164.516ZM259.441,164.516L259.441,168.339L257.422,168.339L257.422,164.516L259.441,164.516ZM255.402,164.516L255.402,168.339L253.382,168.339L253.382,164.516L255.402,164.516ZM251.363,164.516L251.363,168.339L249.343,168.339L249.343,164.516L251.363,164.516ZM247.324,164.516L247.324,168.339L245.304,168.339L245.304,164.516L247.324,164.516ZM243.285,164.516L243.285,168.339L241.265,168.339L241.265,164.516L243.285,164.516ZM239.245,164.516L239.245,168.339L237.226,168.339L237.226,164.516L239.245,164.516ZM235.206,164.516L235.206,168.339L233.187,168.339L233.187,164.516L235.206,164.516ZM231.167,164.516L231.167,168.339L229.148,168.339L229.148,164.516L231.167,164.516ZM227.128,164.516L227.128,168.339L225.109,168.339L225.109,164.516L227.128,164.516ZM223.089,164.516L223.089,168.339L221.069,168.339L221.069,164.516L223.089,164.516Z" style="fill:rgb(88,134,157);fill-opacity:0.47;"/>
                            </g>
                        </g>
                    </g>
                    <g transform="matrix(0.495159,0,0,0.261614,92.5355,156.96)">
                        <g id="table-1d-0.5w1" serif:id="table 1d 0.5w">
                            <g id="table-0.5d-0.5w1" serif:id="table 0.5d 0.5w">
                                <rect x="217.03" y="164.516" width="131.271" height="248.458" style="fill:rgb(176,222,241);"/>
                                <path d="M348.302,164.516L348.302,412.974L217.03,412.974L217.03,164.516L348.302,164.516ZM346.282,168.339C346.282,168.339 219.05,168.339 219.05,168.339C219.05,168.339 219.05,409.152 219.05,409.152C219.05,409.152 346.282,409.152 346.282,409.152L346.282,168.339Z" style="fill:rgb(88,134,157);"/>
                            </g>
                        </g>
                    </g>
                    <g transform="matrix(0.160718,0,0,0.160718,160.087,186.612)">
                        <text x="294.003px" y="275px" style="font-family:'Arial-BoldMT', 'Arial', sans-serif;font-weight:700;font-size:62.221px;">65 x 65 cm</text>
                        <g transform="matrix(55.9988,0,0,55.9988,558.827,332.831)">
                        </g>
                        <g transform="matrix(55.9988,0,0,55.9988,577.475,332.831)">
                        </g>
                        <text x="325.343px" y="332.831px" style="font-family:'ArialMT', 'Arial', sans-serif;font-size:55.999px;">0,4225 m²</text>
                    </g>
                </g>
                <g id="table-1d-1w-summary" serif:id="table 1d 1w summary" transform="matrix(1,0,0,1,-80,240)">
                    <g transform="matrix(0.399688,0,0,0.518364,165.034,109.903)">
                        <g id="table-1d-1w" serif:id="table 1d 1w">
                            <g id="table-single-depth" serif:id="table single depth">
                                <rect x="287.64" y="173.81" width="162.627" height="250.789" style="fill:rgb(176,222,241);"/>
                                <path d="M450.267,173.81L450.267,424.599L287.64,424.599L287.64,173.81L450.267,173.81ZM447.765,175.739L290.142,175.739C290.142,175.739 290.142,422.67 290.142,422.67L447.765,422.67L447.765,175.739Z" style="fill:rgb(88,134,157);"/>
                            </g>
                        </g>
                    </g>
                    <g transform="matrix(0.145458,0,0,0.145458,246.761,223.308)">
                        <text x="258.373px" y="275px" style="font-family:'Arial-BoldMT', 'Arial', sans-serif;font-weight:700;font-size:68.749px;">130 x 65 cm</text>
                        <g transform="matrix(61.8737,0,0,61.8737,552.89,338.898)">
                        </g>
                        <g transform="matrix(61.8737,0,0,61.8737,573.495,338.898)">
                        </g>
                        <text x="329.323px" y="338.898px" style="font-family:'ArialMT', 'Arial', sans-serif;font-size:61.874px;">0,845 m²</text>
                    </g>
                </g>
                <g id="table-1d-2w-summary" serif:id="table 1d 2w summary" transform="matrix(1,0,0,1,-80,240)">
                    <g id="table-1d-2w" serif:id="table 1d 2w">
                        <g transform="matrix(0.399688,0,0,0.518364,245.034,109.903)">
                            <g id="table-1d-1w1" serif:id="table 1d 1w">
                                <g id="table-single-depth1" serif:id="table single depth">
                                    <rect x="287.64" y="173.81" width="162.627" height="250.789" style="fill:rgb(176,222,241);"/>
                                    <path d="M450.267,173.81L450.267,424.599L287.64,424.599L287.64,173.81L450.267,173.81ZM447.765,175.739L290.142,175.739C290.142,175.739 290.142,422.67 290.142,422.67L447.765,422.67L447.765,175.739Z" style="fill:rgb(88,134,157);"/>
                                </g>
                            </g>
                        </g>
                        <g transform="matrix(0.399688,0,0,0.518364,245.034,239.903)">
                            <g id="table-1d-1w2" serif:id="table 1d 1w">
                                <g id="table-single-depth2" serif:id="table single depth">
                                    <rect x="287.64" y="173.81" width="162.627" height="250.789" style="fill:rgb(176,222,241);"/>
                                    <path d="M450.267,173.81L450.267,424.599L287.64,424.599L287.64,173.81L450.267,173.81ZM447.765,175.739L290.142,175.739C290.142,175.739 290.142,422.67 290.142,422.67L447.765,422.67L447.765,175.739Z" style="fill:rgb(88,134,157);"/>
                                </g>
                            </g>
                        </g>
                    </g>
                    <g id="table-1d-2w-overlay" serif:id="table 1d 2w overlay">
                        <g id="table-1d-2w-overlay1" serif:id="table 1d 2w overlay" transform="matrix(0.399688,0,0,1.03673,245.034,19.806)">
                            <rect x="287.64" y="173.81" width="162.627" height="250.789" style="fill:rgb(176,222,241);fill-opacity:0.5;"/>
                            <path d="M450.267,173.81L450.267,424.599L287.64,424.599L287.64,173.81L450.267,173.81ZM445.263,175.739L292.644,175.739L292.644,422.67L445.263,422.67L445.263,175.739Z" style="fill:rgb(88,134,157);"/>
                        </g>
                        <g transform="matrix(0.13923,0,0,0.13923,329.86,289.486)">
                            <text x="249.738px" y="275px" style="font-family:'Arial-BoldMT', 'Arial', sans-serif;font-weight:700;font-size:71.824px;">260 x 65 cm</text>
                            <g transform="matrix(64.6413,0,0,64.6413,539.454,349.443)">
                            </g>
                            <g transform="matrix(64.6413,0,0,64.6413,560.98,349.443)">
                            </g>
                            <text x="341.838px" y="349.443px" style="font-family:'ArialMT', 'Arial', sans-serif;font-size:64.641px;">1,69 m²</text>
                        </g>
                    </g>
                </g>
                <g id="table-2d-1w-summary" serif:id="table 2d 1w summary" transform="matrix(1,0,0,1,-80,240)">
                    <g id="table-2d-1w" serif:id="table 2d 1w">
                        <g transform="matrix(0.578966,0,0,0.271629,105.293,151.424)">
                            <g id="table-2d-0.5w" serif:id="table 2d 0.5w">
                                <g id="table-double-depth" serif:id="table double depth">
                                    <rect x="578.111" y="178.832" width="224.538" height="239.297" style="fill:rgb(252,214,171);"/>
                                    <path d="M802.65,178.832L802.65,418.129L578.111,418.129L578.111,178.832L802.65,178.832ZM800.922,182.514C800.922,182.514 579.838,182.514 579.838,182.514L579.838,414.447C579.838,414.447 800.922,414.447 800.922,414.447L800.922,182.514Z" style="fill:rgb(177,133,87);"/>
                                </g>
                            </g>
                        </g>
                        <g transform="matrix(0.578966,0,0,0.271629,105.293,216.424)">
                            <g id="table-2d-0.5w1" serif:id="table 2d 0.5w">
                                <g id="table-double-depth1" serif:id="table double depth">
                                    <rect x="578.111" y="178.832" width="224.538" height="239.297" style="fill:rgb(252,214,171);"/>
                                    <path d="M802.65,178.832L802.65,418.129L578.111,418.129L578.111,178.832L802.65,178.832ZM800.922,182.514C800.922,182.514 579.838,182.514 579.838,182.514L579.838,414.447C579.838,414.447 800.922,414.447 800.922,414.447L800.922,182.514Z" style="fill:rgb(177,133,87);"/>
                                </g>
                            </g>
                        </g>
                    </g>
                    <g id="table-2d-1w-overlay" serif:id="table 2d 1w overlay">
                        <g id="table-2d-1w-overlay1" serif:id="table 2d 1w overlay" transform="matrix(0.578966,0,0,0.543259,105.293,102.848)">
                            <rect x="578.111" y="178.832" width="224.538" height="239.297" style="fill:rgb(252,214,171);fill-opacity:0.5;"/>
                            <path d="M802.65,178.832L802.65,418.129L578.111,418.129L578.111,178.832L802.65,178.832ZM799.195,182.514L581.566,182.514L581.566,414.447L799.195,414.447L799.195,182.514Z" style="fill:rgb(177,133,87);"/>
                        </g>
                        <g transform="matrix(0.187053,0,0,0.187053,420.463,211.517)">
                            <text x="286.432px" y="275px" style="font-family:'Arial-BoldMT', 'Arial', sans-serif;font-weight:700;font-size:53.461px;">130 x 130 cm</text>
                            <g transform="matrix(48.1148,0,0,48.1148,516.944,328.461)">
                            </g>
                            <g transform="matrix(48.1148,0,0,48.1148,532.967,328.461)">
                            </g>
                            <text x="369.851px" y="328.461px" style="font-family:'ArialMT', 'Arial', sans-serif;font-size:48.115px;">1,69 m²</text>
                        </g>
                    </g>
                </g>
                <g id="table-2d-2w-summary" serif:id="table 2d 2w summary" transform="matrix(1,0,0,1,-95,240)">
                    <g id="table-2d-2w" serif:id="table 2d 2w">
                        <g transform="matrix(0.578966,0,0,0.271629,265.293,151.424)">
                            <g id="table-2d-0.5w2" serif:id="table 2d 0.5w">
                                <g id="table-double-depth2" serif:id="table double depth">
                                    <rect x="578.111" y="178.832" width="224.538" height="239.297" style="fill:rgb(252,214,171);"/>
                                    <path d="M802.65,178.832L802.65,418.129L578.111,418.129L578.111,178.832L802.65,178.832ZM800.922,182.514C800.922,182.514 579.838,182.514 579.838,182.514L579.838,414.447C579.838,414.447 800.922,414.447 800.922,414.447L800.922,182.514Z" style="fill:rgb(177,133,87);"/>
                                </g>
                            </g>
                        </g>
                        <g transform="matrix(0.578966,0,0,0.271629,265.293,216.424)">
                            <g id="table-2d-0.5w3" serif:id="table 2d 0.5w">
                                <g id="table-double-depth3" serif:id="table double depth">
                                    <rect x="578.111" y="178.832" width="224.538" height="239.297" style="fill:rgb(252,214,171);"/>
                                    <path d="M802.65,178.832L802.65,418.129L578.111,418.129L578.111,178.832L802.65,178.832ZM800.922,182.514C800.922,182.514 579.838,182.514 579.838,182.514L579.838,414.447C579.838,414.447 800.922,414.447 800.922,414.447L800.922,182.514Z" style="fill:rgb(177,133,87);"/>
                                </g>
                            </g>
                        </g>
                        <g transform="matrix(0.578966,0,0,0.271629,265.293,281.424)">
                            <g id="table-2d-0.5w4" serif:id="table 2d 0.5w">
                                <g id="table-double-depth4" serif:id="table double depth">
                                    <rect x="578.111" y="178.832" width="224.538" height="239.297" style="fill:rgb(252,214,171);"/>
                                    <path d="M802.65,178.832L802.65,418.129L578.111,418.129L578.111,178.832L802.65,178.832ZM800.922,182.514C800.922,182.514 579.838,182.514 579.838,182.514L579.838,414.447C579.838,414.447 800.922,414.447 800.922,414.447L800.922,182.514Z" style="fill:rgb(177,133,87);"/>
                                </g>
                            </g>
                        </g>
                        <g transform="matrix(0.578966,0,0,0.271629,265.293,346.424)">
                            <g id="table-2d-0.5w5" serif:id="table 2d 0.5w">
                                <g id="table-double-depth5" serif:id="table double depth">
                                    <rect x="578.111" y="178.832" width="224.538" height="239.297" style="fill:rgb(252,214,171);"/>
                                    <path d="M802.65,178.832L802.65,418.129L578.111,418.129L578.111,178.832L802.65,178.832ZM800.922,182.514C800.922,182.514 579.838,182.514 579.838,182.514L579.838,414.447C579.838,414.447 800.922,414.447 800.922,414.447L800.922,182.514Z" style="fill:rgb(177,133,87);"/>
                                </g>
                            </g>
                        </g>
                    </g>
                    <g id="table-2d-2w-overlay" serif:id="table 2d 2w overlay">
                        <g id="table-2d-2w-overlay1" serif:id="table 2d 2w overlay" transform="matrix(0.578966,0,0,1.08652,265.293,5.69563)">
                            <rect x="578.111" y="178.832" width="224.538" height="239.297" style="fill:rgb(252,214,171);fill-opacity:0.5;"/>
                            <path d="M802.65,178.832L802.65,418.129L578.111,418.129L578.111,178.832L802.65,178.832ZM799.195,180.673L581.566,180.673L581.566,416.288L799.195,416.288L799.195,180.673Z" style="fill:rgb(177,133,87);"/>
                        </g>
                        <g transform="matrix(0.185386,0,0,0.185386,581.595,276.975)">
                            <text x="284.949px" y="275px" style="font-family:'Arial-BoldMT', 'Arial', sans-serif;font-weight:700;font-size:53.942px;">260 x 130 cm</text>
                            <g transform="matrix(48.5474,0,0,48.5474,517.534,328.942)">
                            </g>
                            <g transform="matrix(48.5474,0,0,48.5474,533.7,328.942)">
                            </g>
                            <text x="369.118px" y="328.942px" style="font-family:'ArialMT', 'Arial', sans-serif;font-size:48.547px;">3,38 m²</text>
                        </g>
                    </g>
                </g>
                <g transform="matrix(1,0,0,1,-3.87234,7.72979)">
                    <g transform="matrix(16,0,0,16,249.169,423.181)">
                    </g>
                    <text x="223.388px" y="423.181px" style="font-family:'ArialMT', 'Arial', sans-serif;font-size:16px;">Full</text>
                </g>
                <g transform="matrix(1,0,0,1,5.39087,-2.94974)">
                    <text x="52.761px" y="421.616px" style="font-family:'ArialMT', 'Arial', sans-serif;font-size:16px;">Half</text>
                    <g transform="matrix(10,0,0,10,96.4475,431.944)">
                    </g>
                    <text x="37.527px" y="431.944px" style="font-family:'ArialMT', 'Arial', sans-serif;font-size:10px;">(stand-alone)</text>
                </g>
                <g transform="matrix(1,0,0,1,84.595,-2.94974)">
                    <text x="52.761px" y="421.616px" style="font-family:'ArialMT', 'Arial', sans-serif;font-size:16px;">Half</text>
                    <g transform="matrix(10,0,0,10,79.2087,431.944)">
                    </g>
                    <text x="54.765px" y="431.944px" style="font-family:'ArialMT', 'Arial', sans-serif;font-size:10px;">(split)</text>
                </g>
                <g transform="matrix(1,0,0,1,22.0252,-14.4016)">
                    <text x="264.838px" y="425.609px" style="font-family:'ArialMT', 'Arial', sans-serif;font-size:16px;">Double</text>
                    <g transform="matrix(16,0,0,16,314.658,442.133)">
                    </g>
                    <text x="265.721px" y="442.133px" style="font-family:'ArialMT', 'Arial', sans-serif;font-size:16px;">Length</text>
                </g>
                <g transform="matrix(1,0,0,1,13.8002,12.3144)">
                    <g transform="matrix(16,0,0,16,459.149,418.596)">
                    </g>
                    <text x="363.102px" y="418.596px" style="font-family:'ArialMT', 'Arial', sans-serif;font-size:16px;">Double Width</text>
                </g>
                <g transform="matrix(1,0,0,1,13.0216,9.54688)">
                    <g transform="matrix(16,0,0,16,576.783,420.661)">
                    </g>
                    <text x="537.642px" y="420.661px" style="font-family:'ArialMT', 'Arial', sans-serif;font-size:16px;">Quad</text>
                </g>
            </g>
        </g>
    </g>
</svg>
