<?xml version="1.0" encoding="UTF-8" standalone="no"?><svg width="100%" height="100%" version="1.1" xmlns:xlink="http://www.w3.org/1999/xlink" viewBox="0 0 1000 500" xmlns="http://www.w3.org/2000/svg"><defs><clipPath id="e1"><rect width="100%" height="100%" fill="rgba(255,255,255,0.19)" stroke-width="0px" ry="10" rx="10"/></clipPath></defs><rect width="100%" height="100%" fill="rgba(255,255,255,0.19)" stroke-width="0px" ry="10" rx="10"/><g><path d="M31 476h949M31 476h949M31 361.25h949M31 361.25h949M31 246.5h949M31 246.5h949M31 131.75h949M31 131.75h949M31 17h949M31 17v459M49.608 17v459M68.216 17v459M86.824 17v459M105.43 17v459M124.04 17v459M142.65 17v459M161.25 17v459M179.86 17v459M198.47 17v459M217.08 17v459M235.69 17v459M254.29 17v459M272.9 17v459M291.51 17v459M310.12 17v459M328.73 17v459M347.33 17v459M365.94 17v459M384.55 17v459M403.16 17v459M421.76 17v459M440.37 17v459M458.98 17v459M477.59 17v459M496.2 17v459M514.8 17v459M533.41 17v459M552.02 17v459M570.63 17v459M589.24 17v459M607.84 17v459M626.45 17v459M645.06 17v459M663.67 17v459M682.27 17v459M700.88 17v459M719.49 17v459M738.1 17v459M756.71 17v459M775.31 17v459M793.92 17v459M812.53 17v459M831.14 17v459M849.75 17v459M868.35 17v459M886.96 17v459M905.57 17v459M924.18 17v459M942.78 17v459M961.39 17v459M980 17v459" stroke="rgba(255,255,255,0.5)"/></g><g class="series"><rect width="8.6078" class="series0" x="36" y="246.5" height="229.5" id="e2" style="fill:#11c;stroke:#000;stroke-width:1px;"/><rect width="8.6078" class="series0" x="54.608" y="246.5" height="229.5" id="e3" style="fill:#c11;stroke:#000;stroke-width:1px;"/><rect width="8.6078" class="series0" x="73.216" y="179.38" height="296.62" id="e4" style="fill:#cc1;stroke:#000;stroke-width:1px;"/><rect width="8.6078" class="series0" x="91.824" y="39.106" height="436.89" id="e5" style="fill:#1c1;stroke:#000;stroke-width:1px;"/><rect width="8.6078" class="series0" x="110.43" y="179.38" height="296.62" id="e6" style="fill:#c81;stroke:#000;stroke-width:1px;"/><rect width="8.6078" class="series0" x="129.04" y="94.809" height="381.19" id="e7" style="fill:#116;stroke:#000;stroke-width:1px;"/><rect width="8.6078" class="series0" x="147.65" y="179.38" height="296.62" id="e8" style="fill:#611;stroke:#000;stroke-width:1px;"/><rect width="8.6078" class="series0" x="166.25" y="131.75" height="344.25" id="e9" style="fill:#661;stroke:#000;stroke-width:1px;"/><rect width="8.6078" class="series0" x="184.86" y="64.626" height="411.37" id="ea" style="fill:#161;stroke:#000;stroke-width:1px;"/><rect width="8.6078" class="series0" x="203.47" y="94.809" height="381.19" id="eb" style="fill:#631;stroke:#000;stroke-width:1px;"/><rect width="8.6078" class="series0" x="222.08" y="361.25" height="114.75" id="ec" style="fill:#11c;stroke:#000;stroke-width:1px;"/><rect width="8.6078" class="series0" x="240.69" y="246.5" height="229.5" id="ed" style="fill:#c11;stroke:#000;stroke-width:1px;"/><rect width="8.6078" class="series0" x="259.29" y="179.38" height="296.62" id="ee" style="fill:#cc1;stroke:#000;stroke-width:1px;"/><rect width="8.6078" class="series0" x="296.51" y="131.75" height="344.25" id="ef" style="fill:#1c1;stroke:#000;stroke-width:1px;"/><rect width="8.6078" class="series0" x="315.12" y="179.38" height="296.62" id="eg" style="fill:#c81;stroke:#000;stroke-width:1px;"/><rect width="8.6078" class="series0" x="333.73" y="179.38" height="296.62" id="eh" style="fill:#116;stroke:#000;stroke-width:1px;"/><rect width="8.6078" class="series0" x="352.33" y="361.25" height="114.75" id="ei" style="fill:#611;stroke:#000;stroke-width:1px;"/><rect width="8.6078" class="series0" x="370.94" y="246.5" height="229.5" id="ej" style="fill:#661;stroke:#000;stroke-width:1px;"/><rect width="8.6078" class="series0" x="426.76" y="361.25" height="114.75" id="ek" style="fill:#161;stroke:#000;stroke-width:1px;"/><rect width="8.6078" class="series0" x="445.37" y="361.25" height="114.75" id="el" style="fill:#631;stroke:#000;stroke-width:1px;"/><rect width="8.6078" class="series0" x="463.98" y="361.25" height="114.75" id="em" style="fill:#11c;stroke:#000;stroke-width:1px;"/><rect width="8.6078" class="series0" x="668.67" y="361.25" height="114.75" id="en" style="fill:#c11;stroke:#000;stroke-width:1px;"/><rect width="8.6078" class="series0" x="724.49" y="361.25" height="114.75" id="eo" style="fill:#cc1;stroke:#000;stroke-width:1px;"/><rect width="8.6078" class="series0" x="966.39" y="361.25" height="114.75" id="ep" style="fill:#1c1;stroke:#000;stroke-width:1px;"/></g><path d="M31 479v-3M49.608 479v-3M68.216 479v-3M86.824 479v-3M105.43 479v-3M124.04 479v-3M142.65 479v-3M161.25 479v-3M179.86 479v-3M198.47 479v-3M217.08 479v-3M235.69 479v-3M254.29 479v-3M272.9 479v-3M291.51 479v-3M310.12 479v-3M328.73 479v-3M347.33 479v-3M365.94 479v-3M384.55 479v-3M403.16 479v-3M421.76 479v-3M440.37 479v-3M458.98 479v-3M477.59 479v-3M496.2 479v-3M514.8 479v-3M533.41 479v-3M552.02 479v-3M570.63 479v-3M589.24 479v-3M607.84 479v-3M626.45 479v-3M645.06 479v-3M663.67 479v-3M682.27 479v-3M700.88 479v-3M719.49 479v-3M738.1 479v-3M756.71 479v-3M775.31 479v-3M793.92 479v-3M812.53 479v-3M831.14 479v-3M849.75 479v-3M868.35 479v-3M886.96 479v-3M905.57 479v-3M924.18 479v-3M942.78 479v-3M961.39 479v-3M980 479v-3M28 476h3M28 476h3M28 361.25h3M28 361.25h3M28 246.5h3M28 246.5h3M28 131.75h3M28 131.75h3M28 17h3" stroke-width="1px" stroke="#111"/><g stroke="#111" stroke-width="2px"><path d="M30 476h951"/><path d="M31 16v461"/></g><g font-size="10px" font-family="sans-serif" fill="#111"><g text-anchor="end"><text x="26" y="479">0</text><text x="26" y="479">0</text><text x="26" y="364.25">1</text><text x="26" y="364.25">1</text><text x="26" y="249.5">2</text><text x="26" y="249.5">2</text><text x="26" y="134.75">4</text><text x="26" y="134.75">4</text><text x="26" y="20">8</text></g><g text-anchor="end"><text y="488" x="43.304" transform="rotate(-90,40.304,485)">18</text><text y="488" x="61.912" transform="rotate(-90,58.912,485)">19</text><text y="488" x="80.52" transform="rotate(-90,77.52,485)">20</text><text y="488" x="99.127" transform="rotate(-90,96.127,485)">21</text><text y="488" x="117.74" transform="rotate(-90,114.74,485)">22</text><text y="488" x="136.34" transform="rotate(-90,133.34,485)">23</text><text y="488" x="154.95" transform="rotate(-90,151.95,485)">24</text><text y="488" x="173.56" transform="rotate(-90,170.56,485)">25</text><text y="488" x="192.17" transform="rotate(-90,189.17,485)">26</text><text y="488" x="210.77" transform="rotate(-90,207.77,485)">27</text><text y="488" x="229.38" transform="rotate(-90,226.38,485)">28</text><text y="488" x="247.99" transform="rotate(-90,244.99,485)">29</text><text y="488" x="266.6" transform="rotate(-90,263.6,485)">30</text><text y="488" x="285.21" transform="rotate(-90,282.21,485)">31</text><text y="488" x="303.81" transform="rotate(-90,300.81,485)">32</text><text y="488" x="322.42" transform="rotate(-90,319.42,485)">33</text><text y="488" x="341.03" transform="rotate(-90,338.03,485)">34</text><text y="488" x="359.64" transform="rotate(-90,356.64,485)">35</text><text y="488" x="378.25" transform="rotate(-90,375.25,485)">36</text><text y="488" x="396.85" transform="rotate(-90,393.85,485)">37</text><text y="488" x="415.46" transform="rotate(-90,412.46,485)">38</text><text y="488" x="434.07" transform="rotate(-90,431.07,485)">39</text><text y="488" x="452.68" transform="rotate(-90,449.68,485)">40</text><text y="488" x="471.28" transform="rotate(-90,468.28,485)">41</text><text y="488" x="489.89" transform="rotate(-90,486.89,485)">42</text><text y="488" x="508.5" transform="rotate(-90,505.5,485)">43</text><text y="488" x="527.11" transform="rotate(-90,524.11,485)">44</text><text y="488" x="545.72" transform="rotate(-90,542.72,485)">45</text><text y="488" x="564.32" transform="rotate(-90,561.32,485)">46</text><text y="488" x="582.93" transform="rotate(-90,579.93,485)">47</text><text y="488" x="601.54" transform="rotate(-90,598.54,485)">48</text><text y="488" x="620.15" transform="rotate(-90,617.15,485)">49</text><text y="488" x="638.75" transform="rotate(-90,635.75,485)">50</text><text y="488" x="657.36" transform="rotate(-90,654.36,485)">51</text><text y="488" x="675.97" transform="rotate(-90,672.97,485)">52</text><text y="488" x="694.58" transform="rotate(-90,691.58,485)">53</text><text y="488" x="713.19" transform="rotate(-90,710.19,485)">54</text><text y="488" x="731.79" transform="rotate(-90,728.79,485)">55</text><text y="488" x="750.4" transform="rotate(-90,747.4,485)">56</text><text y="488" x="769.01" transform="rotate(-90,766.01,485)">57</text><text y="488" x="787.62" transform="rotate(-90,784.62,485)">58</text><text y="488" x="806.23" transform="rotate(-90,803.23,485)">59</text><text y="488" x="824.83" transform="rotate(-90,821.83,485)">60</text><text y="488" x="843.44" transform="rotate(-90,840.44,485)">61</text><text y="488" x="862.05" transform="rotate(-90,859.05,485)">62</text><text y="488" x="880.66" transform="rotate(-90,877.66,485)">63</text><text y="488" x="899.26" transform="rotate(-90,896.26,485)">64</text><text y="488" x="917.87" transform="rotate(-90,914.87,485)">65</text><text y="488" x="936.48" transform="rotate(-90,933.48,485)">66</text><text y="488" x="955.09" transform="rotate(-90,952.09,485)">67</text><text y="488" x="973.7" transform="rotate(-90,970.7,485)">68</text></g></g></svg>
