<?xml version="1.0" encoding="UTF-8" standalone="no"?><svg width="100%" height="100%" version="1.1" xmlns:xlink="http://www.w3.org/1999/xlink" viewBox="0 0 1000 500" xmlns="http://www.w3.org/2000/svg"><defs><clipPath id="eq"><rect width="100%" height="100%" fill="rgba(255,255,255,0.19)" stroke-width="0px" ry="10" rx="10"/></clipPath><symbol><path id="er" cursor="crosshair" fill="#11c" d="M0 -5L1.25 -1.25 5 0 1.25 1.25 0 5 -1.25 1.25 -5 0 -1.25 -1.25z"/></symbol><symbol><path id="et" cursor="crosshair" fill="#c11" d="M0 -5L1.25 -1.25 5 0 1.25 1.25 0 5 -1.25 1.25 -5 0 -1.25 -1.25z"/></symbol><symbol><path id="ev" cursor="crosshair" fill="#cc1" d="M0 -5L1.25 -1.25 5 0 1.25 1.25 0 5 -1.25 1.25 -5 0 -1.25 -1.25z"/></symbol><symbol><path id="ex" cursor="crosshair" fill="#1c1" d="M0 -5L1.25 -1.25 5 0 1.25 1.25 0 5 -1.25 1.25 -5 0 -1.25 -1.25z"/></symbol><symbol><path id="ez" cursor="crosshair" fill="#c81" d="M0 -5L1.25 -1.25 5 0 1.25 1.25 0 5 -1.25 1.25 -5 0 -1.25 -1.25z"/></symbol></defs><rect width="100%" height="100%" fill="rgba(255,255,255,0.19)" stroke-width="0px" ry="10" rx="10"/><g><path d="M43 470h834M43 470h834M43 419.67h834M43 419.67h834M43 369.33h834M43 369.33h834M43 319h834M43 319h834M43 268.67h834M43 268.67h834M43 218.33h834M43 218.33h834M43 168h834M43 168h834M43 117.67h834M43 117.67h834M43 67.333h834M43 67.333h834M43 17h834M43 17v453M53.171 17v453M63.341 17v453M73.512 17v453M83.683 17v453M93.854 17v453M104.02 17v453M114.2 17v453M124.37 17v453M134.54 17v453M144.71 17v453M154.88 17v453M165.05 17v453M175.22 17v453M185.39 17v453M195.56 17v453M205.73 17v453M215.9 17v453M226.07 17v453M236.24 17v453M246.41 17v453M256.59 17v453M266.76 17v453M276.93 17v453M287.1 17v453M297.27 17v453M307.44 17v453M317.61 17v453M327.78 17v453M337.95 17v453M348.12 17v453M358.29 17v453M368.46 17v453M378.63 17v453M388.8 17v453M398.98 17v453M409.15 17v453M419.32 17v453M429.49 17v453M439.66 17v453M449.83 17v453M460 17v453M470.17 17v453M480.34 17v453M490.51 17v453M500.68 17v453M510.85 17v453M521.02 17v453M531.2 17v453M541.37 17v453M551.54 17v453M561.71 17v453M571.88 17v453M582.05 17v453M592.22 17v453M602.39 17v453M612.56 17v453M622.73 17v453M632.9 17v453M643.07 17v453M653.24 17v453M663.41 17v453M673.59 17v453M683.76 17v453M693.93 17v453M704.1 17v453M714.27 17v453M724.44 17v453M734.61 17v453M744.78 17v453M754.95 17v453M765.12 17v453M775.29 17v453M785.46 17v453M795.63 17v453M805.8 17v453M815.98 17v453M826.15 17v453M836.32 17v453M846.49 17v453M856.66 17v453M866.83 17v453M877 17v453" stroke="rgba(255,255,255,0.5)"/></g><path d="M43 473v-3M53.171 473v-3M63.341 473v-3M73.512 473v-3M83.683 473v-3M93.854 473v-3M104.02 473v-3M114.2 473v-3M124.37 473v-3M134.54 473v-3M144.71 473v-3M154.88 473v-3M165.05 473v-3M175.22 473v-3M185.39 473v-3M195.56 473v-3M205.73 473v-3M215.9 473v-3M226.07 473v-3M236.24 473v-3M246.41 473v-3M256.59 473v-3M266.76 473v-3M276.93 473v-3M287.1 473v-3M297.27 473v-3M307.44 473v-3M317.61 473v-3M327.78 473v-3M337.95 473v-3M348.12 473v-3M358.29 473v-3M368.46 473v-3M378.63 473v-3M388.8 473v-3M398.98 473v-3M409.15 473v-3M419.32 473v-3M429.49 473v-3M439.66 473v-3M449.83 473v-3M460 473v-3M470.17 473v-3M480.34 473v-3M490.51 473v-3M500.68 473v-3M510.85 473v-3M521.02 473v-3M531.2 473v-3M541.37 473v-3M551.54 473v-3M561.71 473v-3M571.88 473v-3M582.05 473v-3M592.22 473v-3M602.39 473v-3M612.56 473v-3M622.73 473v-3M632.9 473v-3M643.07 473v-3M653.24 473v-3M663.41 473v-3M673.59 473v-3M683.76 473v-3M693.93 473v-3M704.1 473v-3M714.27 473v-3M724.44 473v-3M734.61 473v-3M744.78 473v-3M754.95 473v-3M765.12 473v-3M775.29 473v-3M785.46 473v-3M795.63 473v-3M805.8 473v-3M815.98 473v-3M826.15 473v-3M836.32 473v-3M846.49 473v-3M856.66 473v-3M866.83 473v-3M877 473v-3M40 470h3M40 470h3M40 419.67h3M40 419.67h3M40 369.33h3M40 369.33h3M40 319h3M40 319h3M40 268.67h3M40 268.67h3M40 218.33h3M40 218.33h3M40 168h3M40 168h3M40 117.67h3M40 117.67h3M40 67.333h3M40 67.333h3M40 17h3" stroke-width="1px" stroke="#111"/><g stroke="#111" stroke-width="2px"><path d="M42 470h836"/><path d="M43 16v455"/></g><g font-size="10px" font-family="sans-serif" fill="#111"><g text-anchor="end"><text x="38" y="473">0</text><text x="38" y="473">0</text><text x="38" y="422.67">1</text><text x="38" y="422.67">1</text><text x="38" y="372.33">2</text><text x="38" y="372.33">2</text><text x="38" y="322">4</text><text x="38" y="322">4</text><text x="38" y="271.67">8</text><text x="38" y="271.67">8</text><text x="38" y="221.33">16</text><text x="38" y="221.33">16</text><text x="38" y="171">32</text><text x="38" y="171">32</text><text x="38" y="120.67">64</text><text x="38" y="120.67">64</text><text x="38" y="70.333">128</text><text x="38" y="70.333">128</text><text x="38" y="20">256</text></g><g text-anchor="end"><text y="482" x="46" transform="rotate(-90,43,479)">18</text><text y="482" x="56.171" transform="rotate(-90,53.171,479)">19</text><text y="482" x="66.341" transform="rotate(-90,63.341,479)">20</text><text y="482" x="76.512" transform="rotate(-90,73.512,479)">21</text><text y="482" x="86.683" transform="rotate(-90,83.683,479)">22</text><text y="482" x="96.854" transform="rotate(-90,93.854,479)">23</text><text y="482" x="107.02" transform="rotate(-90,104.02,479)">24</text><text y="482" x="117.2" transform="rotate(-90,114.2,479)">25</text><text y="482" x="127.37" transform="rotate(-90,124.37,479)">26</text><text y="482" x="137.54" transform="rotate(-90,134.54,479)">27</text><text y="482" x="147.71" transform="rotate(-90,144.71,479)">28</text><text y="482" x="157.88" transform="rotate(-90,154.88,479)">29</text><text y="482" x="168.05" transform="rotate(-90,165.05,479)">30</text><text y="482" x="178.22" transform="rotate(-90,175.22,479)">31</text><text y="482" x="188.39" transform="rotate(-90,185.39,479)">32</text><text y="482" x="198.56" transform="rotate(-90,195.56,479)">33</text><text y="482" x="208.73" transform="rotate(-90,205.73,479)">34</text><text y="482" x="218.9" transform="rotate(-90,215.9,479)">35</text><text y="482" x="229.07" transform="rotate(-90,226.07,479)">36</text><text y="482" x="239.24" transform="rotate(-90,236.24,479)">37</text><text y="482" x="249.41" transform="rotate(-90,246.41,479)">38</text><text y="482" x="259.59" transform="rotate(-90,256.59,479)">39</text><text y="482" x="269.76" transform="rotate(-90,266.76,479)">40</text><text y="482" x="279.93" transform="rotate(-90,276.93,479)">41</text><text y="482" x="290.1" transform="rotate(-90,287.1,479)">42</text><text y="482" x="300.27" transform="rotate(-90,297.27,479)">43</text><text y="482" x="310.44" transform="rotate(-90,307.44,479)">44</text><text y="482" x="320.61" transform="rotate(-90,317.61,479)">45</text><text y="482" x="330.78" transform="rotate(-90,327.78,479)">46</text><text y="482" x="340.95" transform="rotate(-90,337.95,479)">47</text><text y="482" x="351.12" transform="rotate(-90,348.12,479)">48</text><text y="482" x="361.29" transform="rotate(-90,358.29,479)">49</text><text y="482" x="371.46" transform="rotate(-90,368.46,479)">50</text><text y="482" x="381.63" transform="rotate(-90,378.63,479)">51</text><text y="482" x="391.8" transform="rotate(-90,388.8,479)">52</text><text y="482" x="401.98" transform="rotate(-90,398.98,479)">53</text><text y="482" x="412.15" transform="rotate(-90,409.15,479)">54</text><text y="482" x="422.32" transform="rotate(-90,419.32,479)">55</text><text y="482" x="432.49" transform="rotate(-90,429.49,479)">56</text><text y="482" x="442.66" transform="rotate(-90,439.66,479)">57</text><text y="482" x="452.83" transform="rotate(-90,449.83,479)">58</text><text y="482" x="463" transform="rotate(-90,460,479)">59</text><text y="482" x="473.17" transform="rotate(-90,470.17,479)">60</text><text y="482" x="483.34" transform="rotate(-90,480.34,479)">61</text><text y="482" x="493.51" transform="rotate(-90,490.51,479)">62</text><text y="482" x="503.68" transform="rotate(-90,500.68,479)">63</text><text y="482" x="513.85" transform="rotate(-90,510.85,479)">64</text><text y="482" x="524.02" transform="rotate(-90,521.02,479)">65</text><text y="482" x="534.2" transform="rotate(-90,531.2,479)">66</text><text y="482" x="544.37" transform="rotate(-90,541.37,479)">67</text><text y="482" x="554.54" transform="rotate(-90,551.54,479)">68</text><text y="482" x="564.71" transform="rotate(-90,561.71,479)">69</text><text y="482" x="574.88" transform="rotate(-90,571.88,479)">70</text><text y="482" x="585.05" transform="rotate(-90,582.05,479)">71</text><text y="482" x="595.22" transform="rotate(-90,592.22,479)">72</text><text y="482" x="605.39" transform="rotate(-90,602.39,479)">73</text><text y="482" x="615.56" transform="rotate(-90,612.56,479)">74</text><text y="482" x="625.73" transform="rotate(-90,622.73,479)">75</text><text y="482" x="635.9" transform="rotate(-90,632.9,479)">76</text><text y="482" x="646.07" transform="rotate(-90,643.07,479)">77</text><text y="482" x="656.24" transform="rotate(-90,653.24,479)">78</text><text y="482" x="666.41" transform="rotate(-90,663.41,479)">79</text><text y="482" x="676.59" transform="rotate(-90,673.59,479)">80</text><text y="482" x="686.76" transform="rotate(-90,683.76,479)">81</text><text y="482" x="696.93" transform="rotate(-90,693.93,479)">82</text><text y="482" x="707.1" transform="rotate(-90,704.1,479)">83</text><text y="482" x="717.27" transform="rotate(-90,714.27,479)">84</text><text y="482" x="727.44" transform="rotate(-90,724.44,479)">85</text><text y="482" x="737.61" transform="rotate(-90,734.61,479)">86</text><text y="482" x="747.78" transform="rotate(-90,744.78,479)">87</text><text y="482" x="757.95" transform="rotate(-90,754.95,479)">88</text><text y="482" x="768.12" transform="rotate(-90,765.12,479)">89</text><text y="482" x="778.29" transform="rotate(-90,775.29,479)">90</text><text y="482" x="788.46" transform="rotate(-90,785.46,479)">91</text><text y="482" x="798.63" transform="rotate(-90,795.63,479)">92</text><text y="482" x="808.8" transform="rotate(-90,805.8,479)">93</text><text y="482" x="818.98" transform="rotate(-90,815.98,479)">94</text><text y="482" x="829.15" transform="rotate(-90,826.15,479)">95</text><text y="482" x="839.32" transform="rotate(-90,836.32,479)">96</text><text y="482" x="849.49" transform="rotate(-90,846.49,479)">97</text><text y="482" x="859.66" transform="rotate(-90,856.66,479)">98</text><text y="482" x="869.83" transform="rotate(-90,866.83,479)">99</text><text y="482" x="880" transform="rotate(-90,877,479)">100</text></g></g><g class="series"><use x="43" y="138.56" xlink:href="#er" class="series0" id="e11"></use><use x="53.171" y="76.384" xlink:href="#er" class="series0" id="e12"></use><use x="63.341" y="77.03" xlink:href="#er" class="series0" id="e13"></use><use x="73.512" y="58.78" xlink:href="#er" class="series0" id="e14"></use><use x="83.683" y="59.796" xlink:href="#er" class="series0" id="e15"></use><use x="93.854" y="51.585" xlink:href="#er" class="series0" id="e16"></use><use x="104.02" y="42.981" xlink:href="#er" class="series0" id="e17"></use><use x="114.2" y="39.419" xlink:href="#er" class="series0" id="e18"></use><use x="124.37" y="41.774" xlink:href="#er" class="series0" id="e19"></use><use x="134.54" y="48.456" xlink:href="#er" class="series0" id="e1a"></use><use x="144.71" y="51.585" xlink:href="#er" class="series0" id="e1b"></use><use x="154.88" y="59.286" xlink:href="#er" class="series0" id="e1c"></use><use x="165.05" y="69.056" xlink:href="#er" class="series0" id="e1d"></use><use x="175.22" y="81.028" xlink:href="#er" class="series0" id="e1e"></use><use x="185.39" y="96.211" xlink:href="#er" class="series0" id="e1f"></use><use x="195.56" y="102.38" xlink:href="#er" class="series0" id="e1g"></use><use x="205.73" y="117.67" xlink:href="#er" class="series0" id="e1h"></use><use x="215.9" y="126.08" xlink:href="#er" class="series0" id="e1i"></use><use x="226.07" y="141.65" xlink:href="#er" class="series0" id="e1j"></use><use x="236.24" y="141.65" xlink:href="#er" class="series0" id="e1k"></use><use x="246.41" y="148.25" xlink:href="#er" class="series0" id="e1l"></use><use x="256.59" y="161.49" xlink:href="#er" class="series0" id="e1m"></use><use x="266.76" y="202.13" xlink:href="#er" class="series0" id="e1n"></use><use x="276.93" y="172.69" xlink:href="#er" class="series0" id="e1o"></use><use x="287.1" y="218.33" xlink:href="#er" class="series0" id="e1p"></use><use x="297.27" y="233.41" xlink:href="#er" class="series0" id="e1q"></use><use x="307.44" y="202.13" xlink:href="#er" class="series0" id="e1r"></use><use x="317.61" y="205.85" xlink:href="#er" class="series0" id="e1s"></use><use x="327.78" y="268.67" xlink:href="#er" class="series0" id="e1t"></use><use x="337.95" y="252.46" xlink:href="#er" class="series0" id="e1u"></use><use x="348.12" y="239.22" xlink:href="#er" class="series0" id="e1v"></use><use x="358.29" y="268.67" xlink:href="#er" class="series0" id="e1w"></use><use x="368.46" y="302.8" xlink:href="#er" class="series0" id="e1x"></use><use x="378.63" y="278.36" xlink:href="#er" class="series0" id="e1y"></use><use x="388.8" y="339.89" xlink:href="#er" class="series0" id="e1z"></use><use x="398.98" y="369.33" xlink:href="#er" class="series0" id="e20"></use><use x="409.15" y="319" xlink:href="#er" class="series0" id="e21"></use><use x="419.32" y="419.67" xlink:href="#er" class="series0" id="e22"></use><use x="429.49" y="260.11" xlink:href="#er" class="series0" id="e23"></use><use x="439.66" y="339.89" xlink:href="#er" class="series0" id="e24"></use><use x="449.83" y="369.33" xlink:href="#er" class="series0" id="e25"></use><use x="460" y="339.89" xlink:href="#er" class="series0" id="e26"></use><use x="470.17" y="319" xlink:href="#er" class="series0" id="e27"></use><use x="480.34" y="419.67" xlink:href="#er" class="series0" id="e28"></use><use x="490.51" y="419.67" xlink:href="#er" class="series0" id="e29"></use><use x="500.68" y="419.67" xlink:href="#er" class="series0" id="e2a"></use><use x="510.85" y="419.67" xlink:href="#er" class="series0" id="e2b"></use><use x="521.02" y="419.67" xlink:href="#er" class="series0" id="e2c"></use><use x="541.37" y="369.33" xlink:href="#er" class="series0" id="e2d"></use><use x="561.71" y="419.67" xlink:href="#er" class="series0" id="e2e"></use><use x="612.56" y="419.67" xlink:href="#er" class="series0" id="e2f"></use><use x="622.73" y="419.67" xlink:href="#er" class="series0" id="e2g"></use><use x="683.76" y="419.67" xlink:href="#er" class="series0" id="e2h"></use><use x="43" y="88.224" xlink:href="#et" class="series1" id="e2i"></use><use x="53.171" y="88.224" xlink:href="#et" class="series1" id="e2j"></use><use x="63.341" y="71.417" xlink:href="#et" class="series1" id="e2k"></use><use x="73.512" y="53.435" xlink:href="#et" class="series1" id="e2l"></use><use x="83.683" y="49.337" xlink:href="#et" class="series1" id="e2m"></use><use x="93.854" y="48.895" xlink:href="#et" class="series1" id="e2n"></use><use x="104.02" y="55.334" xlink:href="#et" class="series1" id="e2o"></use><use x="114.2" y="42.174" xlink:href="#et" class="series1" id="e2p"></use><use x="124.37" y="27.021" xlink:href="#et" class="series1" id="e2q"></use><use x="134.54" y="45.878" xlink:href="#et" class="series1" id="e2r"></use><use x="144.71" y="48.456" xlink:href="#et" class="series1" id="e2s"></use><use x="154.88" y="48.895" xlink:href="#et" class="series1" id="e2t"></use><use x="165.05" y="65.099" xlink:href="#et" class="series1" id="e2u"></use><use x="175.22" y="71.417" xlink:href="#et" class="series1" id="e2v"></use><use x="185.39" y="89.752" xlink:href="#et" class="series1" id="e2w"></use><use x="195.56" y="90.529" xlink:href="#et" class="series1" id="e2x"></use><use x="205.73" y="95.372" xlink:href="#et" class="series1" id="e2y"></use><use x="215.9" y="121.15" xlink:href="#et" class="series1" id="e2z"></use><use x="226.07" y="134.15" xlink:href="#et" class="series1" id="e30"></use><use x="236.24" y="143.24" xlink:href="#et" class="series1" id="e31"></use><use x="246.41" y="153.63" xlink:href="#et" class="series1" id="e32"></use><use x="256.59" y="159.45" xlink:href="#et" class="series1" id="e33"></use><use x="266.76" y="175.15" xlink:href="#et" class="series1" id="e34"></use><use x="276.93" y="191.98" xlink:href="#et" class="series1" id="e35"></use><use x="287.1" y="177.7" xlink:href="#et" class="series1" id="e36"></use><use x="297.27" y="233.41" xlink:href="#et" class="series1" id="e37"></use><use x="307.44" y="239.22" xlink:href="#et" class="series1" id="e38"></use><use x="317.61" y="213.93" xlink:href="#et" class="series1" id="e39"></use><use x="327.78" y="233.41" xlink:href="#et" class="series1" id="e3a"></use><use x="337.95" y="289.56" xlink:href="#et" class="series1" id="e3b"></use><use x="348.12" y="245.54" xlink:href="#et" class="series1" id="e3c"></use><use x="358.29" y="278.36" xlink:href="#et" class="series1" id="e3d"></use><use x="368.46" y="268.67" xlink:href="#et" class="series1" id="e3e"></use><use x="378.63" y="260.11" xlink:href="#et" class="series1" id="e3f"></use><use x="388.8" y="260.11" xlink:href="#et" class="series1" id="e3g"></use><use x="398.98" y="369.33" xlink:href="#et" class="series1" id="e3h"></use><use x="409.15" y="319" xlink:href="#et" class="series1" id="e3i"></use><use x="419.32" y="339.89" xlink:href="#et" class="series1" id="e3j"></use><use x="429.49" y="319" xlink:href="#et" class="series1" id="e3k"></use><use x="439.66" y="260.11" xlink:href="#et" class="series1" id="e3l"></use><use x="449.83" y="339.89" xlink:href="#et" class="series1" id="e3m"></use><use x="460" y="419.67" xlink:href="#et" class="series1" id="e3n"></use><use x="470.17" y="339.89" xlink:href="#et" class="series1" id="e3o"></use><use x="480.34" y="339.89" xlink:href="#et" class="series1" id="e3p"></use><use x="490.51" y="419.67" xlink:href="#et" class="series1" id="e3q"></use><use x="500.68" y="419.67" xlink:href="#et" class="series1" id="e3r"></use><use x="510.85" y="419.67" xlink:href="#et" class="series1" id="e3s"></use><use x="521.02" y="369.33" xlink:href="#et" class="series1" id="e3t"></use><use x="531.2" y="419.67" xlink:href="#et" class="series1" id="e3u"></use><use x="541.37" y="369.33" xlink:href="#et" class="series1" id="e3v"></use><use x="551.54" y="369.33" xlink:href="#et" class="series1" id="e3w"></use><use x="571.88" y="419.67" xlink:href="#et" class="series1" id="e3x"></use><use x="622.73" y="419.67" xlink:href="#et" class="series1" id="e3y"></use><use x="693.93" y="419.67" xlink:href="#et" class="series1" id="e3z"></use><use x="43" y="113.26" xlink:href="#ev" class="series2" id="e40"></use><use x="53.171" y="80.346" xlink:href="#ev" class="series2" id="e41"></use><use x="63.341" y="64.007" xlink:href="#ev" class="series2" id="e42"></use><use x="73.512" y="62.399" xlink:href="#ev" class="series2" id="e43"></use><use x="83.683" y="48.456" xlink:href="#ev" class="series2" id="e44"></use><use x="93.854" y="37.513" xlink:href="#ev" class="series2" id="e45"></use><use x="104.02" y="40.981" xlink:href="#ev" class="series2" id="e46"></use><use x="114.2" y="41.774" xlink:href="#ev" class="series2" id="e47"></use><use x="124.37" y="37.513" xlink:href="#ev" class="series2" id="e48"></use><use x="134.54" y="27.676" xlink:href="#ev" class="series2" id="e49"></use><use x="144.71" y="40.587" xlink:href="#ev" class="series2" id="e4a"></use><use x="154.88" y="47.587" xlink:href="#ev" class="series2" id="e4b"></use><use x="165.05" y="53.905" xlink:href="#ev" class="series2" id="e4c"></use><use x="175.22" y="61.347" xlink:href="#ev" class="series2" id="e4d"></use><use x="185.39" y="73.858" xlink:href="#ev" class="series2" id="e4e"></use><use x="195.56" y="98.79" xlink:href="#ev" class="series2" id="e4f"></use><use x="205.73" y="105.19" xlink:href="#ev" class="series2" id="e4g"></use><use x="215.9" y="102.38" xlink:href="#ev" class="series2" id="e4h"></use><use x="226.07" y="118.81" xlink:href="#ev" class="series2" id="e4i"></use><use x="236.24" y="140.09" xlink:href="#ev" class="series2" id="e4j"></use><use x="246.41" y="140.09" xlink:href="#ev" class="series2" id="e4k"></use><use x="256.59" y="165.77" xlink:href="#ev" class="series2" id="e4l"></use><use x="266.76" y="153.63" xlink:href="#ev" class="series2" id="e4m"></use><use x="276.93" y="188.89" xlink:href="#ev" class="series2" id="e4n"></use><use x="287.1" y="223.02" xlink:href="#ev" class="series2" id="e4o"></use><use x="297.27" y="183.08" xlink:href="#ev" class="series2" id="e4p"></use><use x="307.44" y="245.54" xlink:href="#ev" class="series2" id="e4q"></use><use x="317.61" y="252.46" xlink:href="#ev" class="series2" id="e4r"></use><use x="327.78" y="223.02" xlink:href="#ev" class="series2" id="e4s"></use><use x="337.95" y="239.22" xlink:href="#ev" class="series2" id="e4t"></use><use x="348.12" y="302.8" xlink:href="#ev" class="series2" id="e4u"></use><use x="358.29" y="268.67" xlink:href="#ev" class="series2" id="e4v"></use><use x="368.46" y="268.67" xlink:href="#ev" class="series2" id="e4w"></use><use x="378.63" y="289.56" xlink:href="#ev" class="series2" id="e4x"></use><use x="388.8" y="302.8" xlink:href="#ev" class="series2" id="e4y"></use><use x="398.98" y="260.11" xlink:href="#ev" class="series2" id="e4z"></use><use x="409.15" y="339.89" xlink:href="#ev" class="series2" id="e50"></use><use x="419.32" y="319" xlink:href="#ev" class="series2" id="e51"></use><use x="429.49" y="339.89" xlink:href="#ev" class="series2" id="e52"></use><use x="439.66" y="339.89" xlink:href="#ev" class="series2" id="e53"></use><use x="449.83" y="289.56" xlink:href="#ev" class="series2" id="e54"></use><use x="460" y="369.33" xlink:href="#ev" class="series2" id="e55"></use><use x="480.34" y="369.33" xlink:href="#ev" class="series2" id="e56"></use><use x="490.51" y="339.89" xlink:href="#ev" class="series2" id="e57"></use><use x="500.68" y="369.33" xlink:href="#ev" class="series2" id="e58"></use><use x="521.02" y="369.33" xlink:href="#ev" class="series2" id="e59"></use><use x="531.2" y="419.67" xlink:href="#ev" class="series2" id="e5a"></use><use x="541.37" y="419.67" xlink:href="#ev" class="series2" id="e5b"></use><use x="551.54" y="419.67" xlink:href="#ev" class="series2" id="e5c"></use><use x="561.71" y="419.67" xlink:href="#ev" class="series2" id="e5d"></use><use x="571.88" y="419.67" xlink:href="#ev" class="series2" id="e5e"></use><use x="602.39" y="419.67" xlink:href="#ev" class="series2" id="e5f"></use><use x="632.9" y="369.33" xlink:href="#ev" class="series2" id="e5g"></use><use x="704.1" y="419.67" xlink:href="#ev" class="series2" id="e5h"></use><use x="43" y="112.2" xlink:href="#ex" class="series3" id="e5i"></use><use x="53.171" y="56.791" xlink:href="#ex" class="series3" id="e5j"></use><use x="63.341" y="52.504" xlink:href="#ex" class="series3" id="e5k"></use><use x="73.512" y="41.774" xlink:href="#ex" class="series3" id="e5l"></use><use x="83.683" y="33.488" xlink:href="#ex" class="series3" id="e5m"></use><use x="93.854" y="22.907" xlink:href="#ex" class="series3" id="e5n"></use><use x="104.02" y="23.525" xlink:href="#ex" class="series3" id="e5o"></use><use x="114.2" y="31.038" xlink:href="#ex" class="series3" id="e5p"></use><use x="124.37" y="30.695" xlink:href="#ex" class="series3" id="e5q"></use><use x="134.54" y="31.038" xlink:href="#ex" class="series3" id="e5r"></use><use x="144.71" y="21.687" xlink:href="#ex" class="series3" id="e5s"></use><use x="154.88" y="39.806" xlink:href="#ex" class="series3" id="e5t"></use><use x="165.05" y="45.878" xlink:href="#ex" class="series3" id="e5u"></use><use x="175.22" y="43.388" xlink:href="#ex" class="series3" id="e5v"></use><use x="185.39" y="58.78" xlink:href="#ex" class="series3" id="e5w"></use><use x="195.56" y="72.628" xlink:href="#ex" class="series3" id="e5x"></use><use x="205.73" y="97.92" xlink:href="#ex" class="series3" id="e5y"></use><use x="215.9" y="92.91" xlink:href="#ex" class="series3" id="e5z"></use><use x="226.07" y="100.56" xlink:href="#ex" class="series3" id="e60"></use><use x="236.24" y="130" xlink:href="#ex" class="series3" id="e61"></use><use x="246.41" y="143.24" xlink:href="#ex" class="series3" id="e62"></use><use x="256.59" y="143.24" xlink:href="#ex" class="series3" id="e63"></use><use x="266.76" y="157.46" xlink:href="#ex" class="series3" id="e64"></use><use x="276.93" y="161.49" xlink:href="#ex" class="series3" id="e65"></use><use x="287.1" y="175.15" xlink:href="#ex" class="series3" id="e66"></use><use x="297.27" y="213.93" xlink:href="#ex" class="series3" id="e67"></use><use x="307.44" y="185.93" xlink:href="#ex" class="series3" id="e68"></use><use x="317.61" y="233.41" xlink:href="#ex" class="series3" id="e69"></use><use x="327.78" y="245.54" xlink:href="#ex" class="series3" id="e6a"></use><use x="337.95" y="239.22" xlink:href="#ex" class="series3" id="e6b"></use><use x="348.12" y="239.22" xlink:href="#ex" class="series3" id="e6c"></use><use x="358.29" y="289.56" xlink:href="#ex" class="series3" id="e6d"></use><use x="368.46" y="260.11" xlink:href="#ex" class="series3" id="e6e"></use><use x="378.63" y="260.11" xlink:href="#ex" class="series3" id="e6f"></use><use x="388.8" y="278.36" xlink:href="#ex" class="series3" id="e6g"></use><use x="398.98" y="319" xlink:href="#ex" class="series3" id="e6h"></use><use x="409.15" y="268.67" xlink:href="#ex" class="series3" id="e6i"></use><use x="419.32" y="319" xlink:href="#ex" class="series3" id="e6j"></use><use x="429.49" y="289.56" xlink:href="#ex" class="series3" id="e6k"></use><use x="439.66" y="339.89" xlink:href="#ex" class="series3" id="e6l"></use><use x="449.83" y="369.33" xlink:href="#ex" class="series3" id="e6m"></use><use x="460" y="319" xlink:href="#ex" class="series3" id="e6n"></use><use x="470.17" y="319" xlink:href="#ex" class="series3" id="e6o"></use><use x="490.51" y="369.33" xlink:href="#ex" class="series3" id="e6p"></use><use x="500.68" y="369.33" xlink:href="#ex" class="series3" id="e6q"></use><use x="510.85" y="419.67" xlink:href="#ex" class="series3" id="e6r"></use><use x="521.02" y="419.67" xlink:href="#ex" class="series3" id="e6s"></use><use x="531.2" y="369.33" xlink:href="#ex" class="series3" id="e6t"></use><use x="551.54" y="419.67" xlink:href="#ex" class="series3" id="e6u"></use><use x="571.88" y="369.33" xlink:href="#ex" class="series3" id="e6v"></use><use x="592.22" y="419.67" xlink:href="#ex" class="series3" id="e6w"></use><use x="602.39" y="369.33" xlink:href="#ex" class="series3" id="e6x"></use><use x="643.07" y="419.67" xlink:href="#ex" class="series3" id="e6y"></use><use x="714.27" y="419.67" xlink:href="#ex" class="series3" id="e6z"></use><use x="877" y="419.67" xlink:href="#ex" class="series3" id="e70"></use><use x="43" y="369.33" xlink:href="#ez" class="series4" id="e71"></use><use x="53.171" y="369.33" xlink:href="#ez" class="series4" id="e72"></use><use x="63.341" y="339.89" xlink:href="#ez" class="series4" id="e73"></use><use x="73.512" y="278.36" xlink:href="#ez" class="series4" id="e74"></use><use x="83.683" y="339.89" xlink:href="#ez" class="series4" id="e75"></use><use x="93.854" y="302.8" xlink:href="#ez" class="series4" id="e76"></use><use x="104.02" y="339.89" xlink:href="#ez" class="series4" id="e77"></use><use x="114.2" y="319" xlink:href="#ez" class="series4" id="e78"></use><use x="124.37" y="289.56" xlink:href="#ez" class="series4" id="e79"></use><use x="134.54" y="302.8" xlink:href="#ez" class="series4" id="e7a"></use><use x="144.71" y="419.67" xlink:href="#ez" class="series4" id="e7b"></use><use x="154.88" y="369.33" xlink:href="#ez" class="series4" id="e7c"></use><use x="165.05" y="339.89" xlink:href="#ez" class="series4" id="e7d"></use><use x="185.39" y="319" xlink:href="#ez" class="series4" id="e7e"></use><use x="195.56" y="339.89" xlink:href="#ez" class="series4" id="e7f"></use><use x="205.73" y="339.89" xlink:href="#ez" class="series4" id="e7g"></use><use x="215.9" y="419.67" xlink:href="#ez" class="series4" id="e7h"></use><use x="226.07" y="369.33" xlink:href="#ez" class="series4" id="e7i"></use><use x="256.59" y="419.67" xlink:href="#ez" class="series4" id="e7j"></use><use x="266.76" y="419.67" xlink:href="#ez" class="series4" id="e7k"></use><use x="276.93" y="419.67" xlink:href="#ez" class="series4" id="e7l"></use><use x="388.8" y="419.67" xlink:href="#ez" class="series4" id="e7m"></use><use x="419.32" y="419.67" xlink:href="#ez" class="series4" id="e7n"></use><use x="551.54" y="419.67" xlink:href="#ez" class="series4" id="e7o"></use></g><g font-family="sans-serif" font-size="10px" fill="black" transform="translate(882,17)" id="e7p"><rect fill="rgba(255,255,255,0.3)" width="101" height="130" stroke-width="1px" stroke="black"/><g transform="translate(5,0)"><use x="10" y="15" xlink:href="#er"></use><use x="10" y="40" xlink:href="#et"></use><use x="10" y="65" xlink:href="#ev"></use><use x="10" y="90" xlink:href="#ex"></use><use x="10" y="115" xlink:href="#ez"></use></g><g transform="translate(30,0)"><text x="0" y="17.5">EF22 (2016)</text><text x="0" y="42.5">EF23 (2017)</text><text x="0" y="67.5">EF24 (2018)</text><text x="0" y="92.5">EF25 (2019)</text><text x="0" y="117.5">EF26 (2020)</text></g></g></svg>
