<?xml version="1.0" encoding="UTF-8" standalone="no"?><svg width="100%" height="100%" version="1.1" xmlns:xlink="http://www.w3.org/1999/xlink" viewBox="0 0 1000 500" xmlns="http://www.w3.org/2000/svg"><defs><clipPath id="e7q"><rect width="100%" height="100%" fill="rgba(255,255,255,0.19)" stroke-width="0px" ry="10" rx="10"/></clipPath></defs><rect width="100%" height="100%" fill="rgba(255,255,255,0.19)" stroke-width="0px" ry="10" rx="10"/><g><path d="M37 478h943M37 478h943M37 401.17h943M37 401.17h943M37 324.33h943M37 324.33h943M37 247.5h943M37 247.5h943M37 170.67h943M37 170.67h943M37 93.833h943M37 93.833h943M37 17h943M37 17v461M104.36 17v461M171.71 17v461M239.07 17v461M306.43 17v461M373.79 17v461M441.14 17v461M508.5 17v461M575.86 17v461M643.21 17v461M710.57 17v461M777.93 17v461M845.29 17v461M912.64 17v461M980 17v461" stroke="rgba(255,255,255,0.5)"/></g><g class="series"><rect width="57.357" class="series0" x="42" y="20.519" height="457.48" id="e7r" style="fill:#11c;stroke:#000;stroke-width:1px;"/><rect width="57.357" class="series0" x="109.36" y="185.47" height="292.53" id="e7t" style="fill:#c11;stroke:#000;stroke-width:1px;"/><rect width="57.357" class="series0" x="176.71" y="202.56" height="275.44" id="e7v" style="fill:#cc1;stroke:#000;stroke-width:1px;"/><rect width="57.357" class="series0" x="244.07" y="222.77" height="255.23" id="e7x" style="fill:#1c1;stroke:#000;stroke-width:1px;"/><rect width="57.357" class="series0" x="311.43" y="279.39" height="198.61" id="e7z" style="fill:#c81;stroke:#000;stroke-width:1px;"/><rect width="57.357" class="series0" x="378.79" y="279.39" height="198.61" id="e81" style="fill:#116;stroke:#000;stroke-width:1px;"/><rect width="57.357" class="series0" x="446.14" y="324.33" height="153.67" id="e83" style="fill:#611;stroke:#000;stroke-width:1px;"/><rect width="57.357" class="series0" x="513.5" y="324.33" height="153.67" id="e85" style="fill:#661;stroke:#000;stroke-width:1px;"/><rect width="57.357" class="series0" x="580.86" y="401.17" height="76.833" id="e87" style="fill:#161;stroke:#000;stroke-width:1px;"/><rect width="57.357" class="series0" x="648.21" y="401.17" height="76.833" id="e89" style="fill:#631;stroke:#000;stroke-width:1px;"/><rect width="57.357" class="series0" x="715.57" y="401.17" height="76.833" id="e8b" style="fill:#11c;stroke:#000;stroke-width:1px;"/><rect width="57.357" class="series0" x="782.93" y="401.17" height="76.833" id="e8d" style="fill:#c11;stroke:#000;stroke-width:1px;"/><rect width="57.357" class="series0" x="850.29" y="401.17" height="76.833" id="e8f" style="fill:#cc1;stroke:#000;stroke-width:1px;"/><rect width="57.357" class="series0" x="917.64" y="401.17" height="76.833" id="e8h" style="fill:#1c1;stroke:#000;stroke-width:1px;"/></g><path d="M37 481v-3M104.36 481v-3M171.71 481v-3M239.07 481v-3M306.43 481v-3M373.79 481v-3M441.14 481v-3M508.5 481v-3M575.86 481v-3M643.21 481v-3M710.57 481v-3M777.93 481v-3M845.29 481v-3M912.64 481v-3M980 481v-3M34 478h3M34 478h3M34 401.17h3M34 401.17h3M34 324.33h3M34 324.33h3M34 247.5h3M34 247.5h3M34 170.67h3M34 170.67h3M34 93.833h3M34 93.833h3M34 17h3" stroke-width="1px" stroke="#111"/><g stroke="#111" stroke-width="2px"><path d="M36 478h945"/><path d="M37 16v463"/></g><g font-size="10px" font-family="sans-serif" fill="#111"><g text-anchor="end"><text x="32" y="481">0</text><text x="32" y="481">0</text><text x="32" y="404.17">1</text><text x="32" y="404.17">1</text><text x="32" y="327.33">2</text><text x="32" y="327.33">2</text><text x="32" y="250.5">4</text><text x="32" y="250.5">4</text><text x="32" y="173.67">8</text><text x="32" y="173.67">8</text><text x="32" y="96.833">16</text><text x="32" y="96.833">16</text><text x="32" y="20">32</text></g><g text-anchor="middle"><text y="490" x="70.679">de</text><text y="490" x="138.04">us</text><text y="490" x="205.39">gb</text><text y="490" x="272.75">ch</text><text y="490" x="340.11">nl</text><text y="490" x="407.46">at</text><text y="490" x="474.82">se</text><text y="490" x="542.18">fr</text><text y="490" x="609.54">no</text><text y="490" x="676.89">it</text><text y="490" x="744.25">fi</text><text y="490" x="811.61">ca</text><text y="490" x="878.96">be</text><text y="490" x="946.32">au</text></g></g><g class="data-labels"><g><text stroke-width="3px" stroke="#fff" stroke-linejoin="round" font-family="sans-serif" font-size="10px" fill="#222" x="70.679" y="34.019" text-anchor="middle">31</text><text font-family="sans-serif" font-size="10px" fill="#222" x="70.679" y="34.019" text-anchor="middle">31</text></g><g><text stroke-width="3px" stroke="#fff" stroke-linejoin="round" font-family="sans-serif" font-size="10px" fill="#222" x="138.04" y="198.97" text-anchor="middle">7</text><text font-family="sans-serif" font-size="10px" fill="#222" x="138.04" y="198.97" text-anchor="middle">7</text></g><g><text stroke-width="3px" stroke="#fff" stroke-linejoin="round" font-family="sans-serif" font-size="10px" fill="#222" x="205.39" y="216.06" text-anchor="middle">6</text><text font-family="sans-serif" font-size="10px" fill="#222" x="205.39" y="216.06" text-anchor="middle">6</text></g><g><text stroke-width="3px" stroke="#fff" stroke-linejoin="round" font-family="sans-serif" font-size="10px" fill="#222" x="272.75" y="236.27" text-anchor="middle">5</text><text font-family="sans-serif" font-size="10px" fill="#222" x="272.75" y="236.27" text-anchor="middle">5</text></g><g><text stroke-width="3px" stroke="#fff" stroke-linejoin="round" font-family="sans-serif" font-size="10px" fill="#222" x="340.11" y="292.89" text-anchor="middle">3</text><text font-family="sans-serif" font-size="10px" fill="#222" x="340.11" y="292.89" text-anchor="middle">3</text></g><g><text stroke-width="3px" stroke="#fff" stroke-linejoin="round" font-family="sans-serif" font-size="10px" fill="#222" x="407.46" y="292.89" text-anchor="middle">3</text><text font-family="sans-serif" font-size="10px" fill="#222" x="407.46" y="292.89" text-anchor="middle">3</text></g><g><text stroke-width="3px" stroke="#fff" stroke-linejoin="round" font-family="sans-serif" font-size="10px" fill="#222" x="474.82" y="337.83" text-anchor="middle">2</text><text font-family="sans-serif" font-size="10px" fill="#222" x="474.82" y="337.83" text-anchor="middle">2</text></g><g><text stroke-width="3px" stroke="#fff" stroke-linejoin="round" font-family="sans-serif" font-size="10px" fill="#222" x="542.18" y="337.83" text-anchor="middle">2</text><text font-family="sans-serif" font-size="10px" fill="#222" x="542.18" y="337.83" text-anchor="middle">2</text></g><g><text stroke-width="3px" stroke="#fff" stroke-linejoin="round" font-family="sans-serif" font-size="10px" fill="#222" x="609.54" y="414.67" text-anchor="middle">1</text><text font-family="sans-serif" font-size="10px" fill="#222" x="609.54" y="414.67" text-anchor="middle">1</text></g><g><text stroke-width="3px" stroke="#fff" stroke-linejoin="round" font-family="sans-serif" font-size="10px" fill="#222" x="676.89" y="414.67" text-anchor="middle">1</text><text font-family="sans-serif" font-size="10px" fill="#222" x="676.89" y="414.67" text-anchor="middle">1</text></g><g><text stroke-width="3px" stroke="#fff" stroke-linejoin="round" font-family="sans-serif" font-size="10px" fill="#222" x="744.25" y="414.67" text-anchor="middle">1</text><text font-family="sans-serif" font-size="10px" fill="#222" x="744.25" y="414.67" text-anchor="middle">1</text></g><g><text stroke-width="3px" stroke="#fff" stroke-linejoin="round" font-family="sans-serif" font-size="10px" fill="#222" x="811.61" y="414.67" text-anchor="middle">1</text><text font-family="sans-serif" font-size="10px" fill="#222" x="811.61" y="414.67" text-anchor="middle">1</text></g><g><text stroke-width="3px" stroke="#fff" stroke-linejoin="round" font-family="sans-serif" font-size="10px" fill="#222" x="878.96" y="414.67" text-anchor="middle">1</text><text font-family="sans-serif" font-size="10px" fill="#222" x="878.96" y="414.67" text-anchor="middle">1</text></g><g><text stroke-width="3px" stroke="#fff" stroke-linejoin="round" font-family="sans-serif" font-size="10px" fill="#222" x="946.32" y="414.67" text-anchor="middle">1</text><text font-family="sans-serif" font-size="10px" fill="#222" x="946.32" y="414.67" text-anchor="middle">1</text></g></g></svg>
