<?xml version="1.0" encoding="UTF-8" standalone="no"?><svg width="100%" height="100%" version="1.1" xmlns:xlink="http://www.w3.org/1999/xlink" viewBox="0 0 1000 500" xmlns="http://www.w3.org/2000/svg"><defs><clipPath id="ecs"><rect width="100%" height="100%" fill="rgba(255,255,255,0.19)" stroke-width="0px" ry="10" rx="10"/></clipPath></defs><rect width="100%" height="100%" fill="rgba(255,255,255,0.19)" stroke-width="0px" ry="10" rx="10"/><g><path d="M49 478h851M49 454.95h851M49 431.9h851M49 408.85h851M49 385.8h851M49 362.75h851M49 339.7h851M49 316.65h851M49 293.6h851M49 270.55h851M49 247.5h851M49 224.45h851M49 201.4h851M49 178.35h851M49 155.3h851M49 132.25h851M49 109.2h851M49 86.15h851M49 63.1h851M49 40.05h851M49 17h851M49 17v461M219.2 17v461M389.4 17v461M559.6 17v461M729.8 17v461M900 17v461" stroke="rgba(255,255,255,0.5)"/></g><g class="series"><rect width="160.2" x="54" y="86.387" height="391.61" id="ect" class="series0" style="stroke:#000;stroke-width:1px;fill:#11c;"/><rect width="160.2" x="54" y="17" height="69.387" class="series1" id="ecv" style="stroke:#000;stroke-width:1px;fill:#c11;"/><rect width="160.2" x="224.2" y="92.05" height="385.95" class="series0" id="ecx" style="stroke:#000;stroke-width:1px;fill:#11c;"/><rect width="160.2" x="224.2" y="17" height="75.05" class="series1" id="ecz" style="stroke:#000;stroke-width:1px;fill:#c11;"/><rect width="160.2" x="394.4" y="91.943" height="386.06" class="series0" id="ed1" style="stroke:#000;stroke-width:1px;fill:#11c;"/><rect width="160.2" x="394.4" y="26.809" height="65.135" class="series1" id="ed3" style="stroke:#000;stroke-width:1px;fill:#c11;"/><rect width="160.2" x="394.4" y="17" height="9.8085" class="series2" id="ed5" style="stroke:#000;stroke-width:1px;fill:#cc1;"/><rect width="160.2" x="564.6" y="110.64" height="367.36" class="series0" id="ed7" style="stroke:#000;stroke-width:1px;fill:#11c;"/><rect width="160.2" x="564.6" y="45.724" height="64.919" class="series1" id="ed9" style="stroke:#000;stroke-width:1px;fill:#c11;"/><rect width="160.2" x="564.6" y="17" height="28.724" class="series2" id="edb" style="stroke:#000;stroke-width:1px;fill:#cc1;"/><rect width="160.2" x="734.8" y="151.75" height="326.25" class="series0" id="edd" style="stroke:#000;stroke-width:1px;fill:#11c;"/><rect width="160.2" x="734.8" y="80.831" height="70.923" class="series1" id="edf" style="stroke:#000;stroke-width:1px;fill:#c11;"/><rect width="160.2" x="734.8" y="17" height="63.831" class="series2" id="edh" style="stroke:#000;stroke-width:1px;fill:#cc1;"/></g><path d="M49 481v-3M219.2 481v-3M389.4 481v-3M559.6 481v-3M729.8 481v-3M900 481v-3M46 478h3M46 454.95h3M46 431.9h3M46 408.85h3M46 385.8h3M46 362.75h3M46 339.7h3M46 316.65h3M46 293.6h3M46 270.55h3M46 247.5h3M46 224.45h3M46 201.4h3M46 178.35h3M46 155.3h3M46 132.25h3M46 109.2h3M46 86.15h3M46 63.1h3M46 40.05h3M46 17h3" stroke-width="1px" stroke="#111"/><g stroke="#111" stroke-width="2px"><path d="M48 478h853"/><path d="M49 16v463"/></g><g font-size="10px" font-family="sans-serif" fill="#111"><g text-anchor="end"><text x="44" y="481">0%</text><text x="44" y="457.95">5%</text><text x="44" y="434.9">10%</text><text x="44" y="411.85">15%</text><text x="44" y="388.8">20%</text><text x="44" y="365.75">25%</text><text x="44" y="342.7">30%</text><text x="44" y="319.65">35%</text><text x="44" y="296.6">40%</text><text x="44" y="273.55">45%</text><text x="44" y="250.5">50%</text><text x="44" y="227.45">55%</text><text x="44" y="204.4">60%</text><text x="44" y="181.35">65%</text><text x="44" y="158.3">70%</text><text x="44" y="135.25">75%</text><text x="44" y="112.2">80%</text><text x="44" y="89.15">85%</text><text x="44" y="66.1">90%</text><text x="44" y="43.05">95%</text><text x="44" y="20">100%</text></g><g text-anchor="middle"><text y="490" x="134.1">EF22 (2016)</text><text y="490" x="304.3">EF23 (2017)</text><text y="490" x="474.5">EF24 (2018)</text><text y="490" x="644.7">EF25 (2019)</text><text y="490" x="814.9">EF26 (2020)</text></g></g><g class="data-labels"><g><text stroke-width="3px" stroke="#fff" stroke-linejoin="round" font-family="sans-serif" font-size="10px" fill="#222" x="134.1" y="99.887" text-anchor="middle">84.9% (2235)</text><text font-family="sans-serif" font-size="10px" fill="#222" x="134.1" y="99.887" text-anchor="middle">84.9% (2235)</text></g><g><text stroke-width="3px" stroke="#fff" stroke-linejoin="round" font-family="sans-serif" font-size="10px" fill="#222" x="304.3" y="105.55" text-anchor="middle">83.7% (2381)</text><text font-family="sans-serif" font-size="10px" fill="#222" x="304.3" y="105.55" text-anchor="middle">83.7% (2381)</text></g><g><text stroke-width="3px" stroke="#fff" stroke-linejoin="round" font-family="sans-serif" font-size="10px" fill="#222" x="474.5" y="105.44" text-anchor="middle">83.7% (2519)</text><text font-family="sans-serif" font-size="10px" fill="#222" x="474.5" y="105.44" text-anchor="middle">83.7% (2519)</text></g><g><text stroke-width="3px" stroke="#fff" stroke-linejoin="round" font-family="sans-serif" font-size="10px" fill="#222" x="644.7" y="124.14" text-anchor="middle">79.7% (2852)</text><text font-family="sans-serif" font-size="10px" fill="#222" x="644.7" y="124.14" text-anchor="middle">79.7% (2852)</text></g><g><text stroke-width="3px" stroke="#fff" stroke-linejoin="round" font-family="sans-serif" font-size="10px" fill="#222" x="814.9" y="165.25" text-anchor="middle">70.8% (46)</text><text font-family="sans-serif" font-size="10px" fill="#222" x="814.9" y="165.25" text-anchor="middle">70.8% (46)</text></g><g><text stroke-width="3px" stroke="#fff" stroke-linejoin="round" font-family="sans-serif" font-size="10px" fill="#222" x="134.1" y="30.5" text-anchor="middle">15.1% (396)</text><text font-family="sans-serif" font-size="10px" fill="#222" x="134.1" y="30.5" text-anchor="middle">15.1% (396)</text></g><g><text stroke-width="3px" stroke="#fff" stroke-linejoin="round" font-family="sans-serif" font-size="10px" fill="#222" x="304.3" y="30.5" text-anchor="middle">16.3% (463)</text><text font-family="sans-serif" font-size="10px" fill="#222" x="304.3" y="30.5" text-anchor="middle">16.3% (463)</text></g><g><text stroke-width="3px" stroke="#fff" stroke-linejoin="round" font-family="sans-serif" font-size="10px" fill="#222" x="474.5" y="40.309" text-anchor="middle">14.1% (425)</text><text font-family="sans-serif" font-size="10px" fill="#222" x="474.5" y="40.309" text-anchor="middle">14.1% (425)</text></g><g><text stroke-width="3px" stroke="#fff" stroke-linejoin="round" font-family="sans-serif" font-size="10px" fill="#222" x="644.7" y="59.224" text-anchor="middle">14.1% (504)</text><text font-family="sans-serif" font-size="10px" fill="#222" x="644.7" y="59.224" text-anchor="middle">14.1% (504)</text></g><g><text stroke-width="3px" stroke="#fff" stroke-linejoin="round" font-family="sans-serif" font-size="10px" fill="#222" x="814.9" y="94.331" text-anchor="middle">15.4% (10)</text><text font-family="sans-serif" font-size="10px" fill="#222" x="814.9" y="94.331" text-anchor="middle">15.4% (10)</text></g><g><text stroke-width="3px" stroke="#fff" stroke-linejoin="round" font-family="sans-serif" font-size="10px" fill="#222" x="474.5" y="10.5" text-anchor="middle">2.1% (64)</text><text font-family="sans-serif" font-size="10px" fill="#222" x="474.5" y="10.5" text-anchor="middle">2.1% (64)</text></g><g><text stroke-width="3px" stroke="#fff" stroke-linejoin="round" font-family="sans-serif" font-size="10px" fill="#222" x="644.7" y="30.5" text-anchor="middle">6.2% (223)</text><text font-family="sans-serif" font-size="10px" fill="#222" x="644.7" y="30.5" text-anchor="middle">6.2% (223)</text></g><g><text stroke-width="3px" stroke="#fff" stroke-linejoin="round" font-family="sans-serif" font-size="10px" fill="#222" x="814.9" y="30.5" text-anchor="middle">13.8% (9)</text><text font-family="sans-serif" font-size="10px" fill="#222" x="814.9" y="30.5" text-anchor="middle">13.8% (9)</text></g></g><g font-family="sans-serif" font-size="10px" fill="black" transform="translate(910,17)" id="edj"><rect fill="#000" width="71" height="80" y="2.5" x="2.5" opacity="0.5"/><rect fill="rgba(255,255,255,0.3)" width="71" height="80" stroke-width="1px" stroke="black"/><g transform="translate(5,0)"><rect x="0" y="5" width="20" height="20" style="stroke:#000;stroke-width:1px;fill:#cc1;"/><rect x="0" y="30" width="20" height="20" style="stroke:#000;stroke-width:1px;fill:#c11;"/><rect x="0" y="55" width="20" height="20" style="stroke:#000;stroke-width:1px;fill:#11c;"/></g><g transform="translate(30,0)"><text x="0" y="17.5">n/a</text><text x="0" y="42.5">female</text><text x="0" y="67.5">male</text></g></g></svg>
