<?xml version="1.0" encoding="UTF-8" standalone="no"?><svg width="100%" height="100%" version="1.1" xmlns:xlink="http://www.w3.org/1999/xlink" viewBox="0 0 1000 500" xmlns="http://www.w3.org/2000/svg"><defs><clipPath id="edk"><rect width="100%" height="100%" fill="rgba(255,255,255,0.19)" stroke-width="0px" ry="10" rx="10"/></clipPath></defs><rect width="100%" height="100%" fill="rgba(255,255,255,0.19)" stroke-width="0px" ry="10" rx="10"/><g><path d="M49 478h821M49 454.95h821M49 431.9h821M49 408.85h821M49 385.8h821M49 362.75h821M49 339.7h821M49 316.65h821M49 293.6h821M49 270.55h821M49 247.5h821M49 224.45h821M49 201.4h821M49 178.35h821M49 155.3h821M49 132.25h821M49 109.2h821M49 86.15h821M49 63.1h821M49 40.05h821M49 17h821M49 17v461M213.2 17v461M377.4 17v461M541.6 17v461M705.8 17v461M870 17v461" stroke="rgba(255,255,255,0.5)"/></g><g class="series"><rect width="154.2" x="54" y="473.79" height="4.2052" id="edl" class="series0" style="stroke:#000;stroke-width:1px;fill:#11c;"/><rect width="154.2" x="54" y="440.15" height="33.642" class="series1" id="edn" style="stroke:#000;stroke-width:1px;fill:#c11;"/><rect width="154.2" x="54" y="324.86" height="115.29" class="series2" id="edp" style="stroke:#000;stroke-width:1px;fill:#cc1;"/><rect width="154.2" x="54" y="212.02" height="112.84" class="series3" id="edr" style="stroke:#000;stroke-width:1px;fill:#1c1;"/><rect width="154.2" x="54" y="139.48" height="72.54" class="series4" id="edt" style="stroke:#000;stroke-width:1px;fill:#c81;"/><rect width="154.2" x="54" y="104.78" height="34.693" class="series5" id="edv" style="stroke:#000;stroke-width:1px;fill:#116;"/><rect width="154.2" x="54" y="17" height="87.784" class="series6" id="edx" style="stroke:#000;stroke-width:1px;fill:#611;"/><rect width="154.2" x="218.2" y="473.79" height="4.2145" class="series0" id="edz" style="stroke:#000;stroke-width:1px;fill:#11c;"/><rect width="154.2" x="218.2" y="437.15" height="36.634" class="series1" id="ee1" style="stroke:#000;stroke-width:1px;fill:#c11;"/><rect width="154.2" x="218.2" y="326.44" height="110.71" class="series2" id="ee3" style="stroke:#000;stroke-width:1px;fill:#cc1;"/><rect width="154.2" x="218.2" y="219.94" height="106.5" class="series3" id="ee5" style="stroke:#000;stroke-width:1px;fill:#1c1;"/><rect width="154.2" x="218.2" y="147.32" height="72.619" class="series4" id="ee7" style="stroke:#000;stroke-width:1px;fill:#c81;"/><rect width="154.2" x="218.2" y="113.77" height="33.554" class="series5" id="ee9" style="stroke:#000;stroke-width:1px;fill:#116;"/><rect width="154.2" x="218.2" y="17" height="96.771" class="series6" id="eeb" style="stroke:#000;stroke-width:1px;fill:#611;"/><rect width="154.2" x="382.4" y="471.87" height="6.1303" class="series0" id="eed" style="stroke:#000;stroke-width:1px;fill:#11c;"/><rect width="154.2" x="382.4" y="438.61" height="33.257" class="series1" id="eef" style="stroke:#000;stroke-width:1px;fill:#c11;"/><rect width="154.2" x="382.4" y="326.73" height="111.88" class="series2" id="eeh" style="stroke:#000;stroke-width:1px;fill:#cc1;"/><rect width="154.2" x="382.4" y="226.96" height="99.771" class="series3" id="eej" style="stroke:#000;stroke-width:1px;fill:#1c1;"/><rect width="154.2" x="382.4" y="158.15" height="68.813" class="series4" id="eel" style="stroke:#000;stroke-width:1px;fill:#c81;"/><rect width="154.2" x="382.4" y="124.89" height="33.257" class="series5" id="een" style="stroke:#000;stroke-width:1px;fill:#116;"/><rect width="154.2" x="382.4" y="17" height="107.89" class="series6" id="eep" style="stroke:#000;stroke-width:1px;fill:#611;"/><rect width="154.2" x="546.6" y="473.36" height="4.637" class="series0" id="eer" style="stroke:#000;stroke-width:1px;fill:#11c;"/><rect width="154.2" x="546.6" y="440.39" height="32.975" class="series1" id="eet" style="stroke:#000;stroke-width:1px;fill:#c11;"/><rect width="154.2" x="546.6" y="331.42" height="108.97" class="series2" id="eev" style="stroke:#000;stroke-width:1px;fill:#cc1;"/><rect width="154.2" x="546.6" y="219.23" height="112.19" class="series3" id="eex" style="stroke:#000;stroke-width:1px;fill:#1c1;"/><rect width="154.2" x="546.6" y="149.67" height="69.556" class="series4" id="eez" style="stroke:#000;stroke-width:1px;fill:#c81;"/><rect width="154.2" x="546.6" y="115.28" height="34.391" class="series5" id="ef1" style="stroke:#000;stroke-width:1px;fill:#116;"/><rect width="154.2" x="546.6" y="17" height="98.28" class="series6" id="ef3" style="stroke:#000;stroke-width:1px;fill:#611;"/><rect width="154.2" x="710.8" y="463.82" height="14.185" class="series0" id="ef5" style="stroke:#000;stroke-width:1px;fill:#11c;"/><rect width="154.2" x="710.8" y="435.45" height="28.369" class="series1" id="ef7" style="stroke:#000;stroke-width:1px;fill:#c11;"/><rect width="154.2" x="710.8" y="357.43" height="78.015" class="series2" id="ef9" style="stroke:#000;stroke-width:1px;fill:#cc1;"/><rect width="154.2" x="710.8" y="286.51" height="70.923" class="series3" id="efb" style="stroke:#000;stroke-width:1px;fill:#1c1;"/><rect width="154.2" x="710.8" y="222.68" height="63.831" class="series4" id="efd" style="stroke:#000;stroke-width:1px;fill:#c81;"/><rect width="154.2" x="710.8" y="215.58" height="7.0923" class="series5" id="eff" style="stroke:#000;stroke-width:1px;fill:#116;"/><rect width="154.2" x="710.8" y="17" height="198.58" class="series6" id="efh" style="stroke:#000;stroke-width:1px;fill:#611;"/></g><path d="M49 481v-3M213.2 481v-3M377.4 481v-3M541.6 481v-3M705.8 481v-3M870 481v-3M46 478h3M46 454.95h3M46 431.9h3M46 408.85h3M46 385.8h3M46 362.75h3M46 339.7h3M46 316.65h3M46 293.6h3M46 270.55h3M46 247.5h3M46 224.45h3M46 201.4h3M46 178.35h3M46 155.3h3M46 132.25h3M46 109.2h3M46 86.15h3M46 63.1h3M46 40.05h3M46 17h3" stroke-width="1px" stroke="#111"/><g stroke="#111" stroke-width="2px"><path d="M48 478h823"/><path d="M49 16v463"/></g><g font-size="10px" font-family="sans-serif" fill="#111"><g text-anchor="end"><text x="44" y="481">0%</text><text x="44" y="457.95">5%</text><text x="44" y="434.9">10%</text><text x="44" y="411.85">15%</text><text x="44" y="388.8">20%</text><text x="44" y="365.75">25%</text><text x="44" y="342.7">30%</text><text x="44" y="319.65">35%</text><text x="44" y="296.6">40%</text><text x="44" y="273.55">45%</text><text x="44" y="250.5">50%</text><text x="44" y="227.45">55%</text><text x="44" y="204.4">60%</text><text x="44" y="181.35">65%</text><text x="44" y="158.3">70%</text><text x="44" y="135.25">75%</text><text x="44" y="112.2">80%</text><text x="44" y="89.15">85%</text><text x="44" y="66.1">90%</text><text x="44" y="43.05">95%</text><text x="44" y="20">100%</text></g><g text-anchor="middle"><text y="490" x="131.1">EF22 (2016)</text><text y="490" x="295.3">EF23 (2017)</text><text y="490" x="459.5">EF24 (2018)</text><text y="490" x="623.7">EF25 (2019)</text><text y="490" x="787.9">EF26 (2020)</text></g></g><g class="data-labels"><g><text stroke-width="3px" stroke="#fff" stroke-linejoin="round" font-family="sans-serif" font-size="10px" fill="#222" x="131.1" y="467.29" text-anchor="middle">0.9% (24)</text><text font-family="sans-serif" font-size="10px" fill="#222" x="131.1" y="467.29" text-anchor="middle">0.9% (24)</text></g><g><text stroke-width="3px" stroke="#fff" stroke-linejoin="round" font-family="sans-serif" font-size="10px" fill="#222" x="295.3" y="467.29" text-anchor="middle">0.9% (26)</text><text font-family="sans-serif" font-size="10px" fill="#222" x="295.3" y="467.29" text-anchor="middle">0.9% (26)</text></g><g><text stroke-width="3px" stroke="#fff" stroke-linejoin="round" font-family="sans-serif" font-size="10px" fill="#222" x="459.5" y="465.37" text-anchor="middle">1.3% (40)</text><text font-family="sans-serif" font-size="10px" fill="#222" x="459.5" y="465.37" text-anchor="middle">1.3% (40)</text></g><g><text stroke-width="3px" stroke="#fff" stroke-linejoin="round" font-family="sans-serif" font-size="10px" fill="#222" x="623.7" y="466.86" text-anchor="middle">1% (36)</text><text font-family="sans-serif" font-size="10px" fill="#222" x="623.7" y="466.86" text-anchor="middle">1% (36)</text></g><g><text stroke-width="3px" stroke="#fff" stroke-linejoin="round" font-family="sans-serif" font-size="10px" fill="#222" x="787.9" y="457.32" text-anchor="middle">3.1% (2)</text><text font-family="sans-serif" font-size="10px" fill="#222" x="787.9" y="457.32" text-anchor="middle">3.1% (2)</text></g><g><text stroke-width="3px" stroke="#fff" stroke-linejoin="round" font-family="sans-serif" font-size="10px" fill="#222" x="131.1" y="453.65" text-anchor="middle">7.3% (192)</text><text font-family="sans-serif" font-size="10px" fill="#222" x="131.1" y="453.65" text-anchor="middle">7.3% (192)</text></g><g><text stroke-width="3px" stroke="#fff" stroke-linejoin="round" font-family="sans-serif" font-size="10px" fill="#222" x="295.3" y="450.65" text-anchor="middle">7.9% (226)</text><text font-family="sans-serif" font-size="10px" fill="#222" x="295.3" y="450.65" text-anchor="middle">7.9% (226)</text></g><g><text stroke-width="3px" stroke="#fff" stroke-linejoin="round" font-family="sans-serif" font-size="10px" fill="#222" x="459.5" y="452.11" text-anchor="middle">7.2% (217)</text><text font-family="sans-serif" font-size="10px" fill="#222" x="459.5" y="452.11" text-anchor="middle">7.2% (217)</text></g><g><text stroke-width="3px" stroke="#fff" stroke-linejoin="round" font-family="sans-serif" font-size="10px" fill="#222" x="623.7" y="453.89" text-anchor="middle">7.2% (256)</text><text font-family="sans-serif" font-size="10px" fill="#222" x="623.7" y="453.89" text-anchor="middle">7.2% (256)</text></g><g><text stroke-width="3px" stroke="#fff" stroke-linejoin="round" font-family="sans-serif" font-size="10px" fill="#222" x="787.9" y="448.95" text-anchor="middle">6.2% (4)</text><text font-family="sans-serif" font-size="10px" fill="#222" x="787.9" y="448.95" text-anchor="middle">6.2% (4)</text></g><g><text stroke-width="3px" stroke="#fff" stroke-linejoin="round" font-family="sans-serif" font-size="10px" fill="#222" x="131.1" y="338.36" text-anchor="middle">25% (658)</text><text font-family="sans-serif" font-size="10px" fill="#222" x="131.1" y="338.36" text-anchor="middle">25% (658)</text></g><g><text stroke-width="3px" stroke="#fff" stroke-linejoin="round" font-family="sans-serif" font-size="10px" fill="#222" x="295.3" y="339.94" text-anchor="middle">24% (683)</text><text font-family="sans-serif" font-size="10px" fill="#222" x="295.3" y="339.94" text-anchor="middle">24% (683)</text></g><g><text stroke-width="3px" stroke="#fff" stroke-linejoin="round" font-family="sans-serif" font-size="10px" fill="#222" x="459.5" y="340.23" text-anchor="middle">24.3% (730)</text><text font-family="sans-serif" font-size="10px" fill="#222" x="459.5" y="340.23" text-anchor="middle">24.3% (730)</text></g><g><text stroke-width="3px" stroke="#fff" stroke-linejoin="round" font-family="sans-serif" font-size="10px" fill="#222" x="623.7" y="344.92" text-anchor="middle">23.6% (846)</text><text font-family="sans-serif" font-size="10px" fill="#222" x="623.7" y="344.92" text-anchor="middle">23.6% (846)</text></g><g><text stroke-width="3px" stroke="#fff" stroke-linejoin="round" font-family="sans-serif" font-size="10px" fill="#222" x="787.9" y="370.93" text-anchor="middle">16.9% (11)</text><text font-family="sans-serif" font-size="10px" fill="#222" x="787.9" y="370.93" text-anchor="middle">16.9% (11)</text></g><g><text stroke-width="3px" stroke="#fff" stroke-linejoin="round" font-family="sans-serif" font-size="10px" fill="#222" x="131.1" y="225.52" text-anchor="middle">24.5% (644)</text><text font-family="sans-serif" font-size="10px" fill="#222" x="131.1" y="225.52" text-anchor="middle">24.5% (644)</text></g><g><text stroke-width="3px" stroke="#fff" stroke-linejoin="round" font-family="sans-serif" font-size="10px" fill="#222" x="295.3" y="233.44" text-anchor="middle">23.1% (657)</text><text font-family="sans-serif" font-size="10px" fill="#222" x="295.3" y="233.44" text-anchor="middle">23.1% (657)</text></g><g><text stroke-width="3px" stroke="#fff" stroke-linejoin="round" font-family="sans-serif" font-size="10px" fill="#222" x="459.5" y="240.46" text-anchor="middle">21.6% (651)</text><text font-family="sans-serif" font-size="10px" fill="#222" x="459.5" y="240.46" text-anchor="middle">21.6% (651)</text></g><g><text stroke-width="3px" stroke="#fff" stroke-linejoin="round" font-family="sans-serif" font-size="10px" fill="#222" x="623.7" y="232.73" text-anchor="middle">24.3% (871)</text><text font-family="sans-serif" font-size="10px" fill="#222" x="623.7" y="232.73" text-anchor="middle">24.3% (871)</text></g><g><text stroke-width="3px" stroke="#fff" stroke-linejoin="round" font-family="sans-serif" font-size="10px" fill="#222" x="787.9" y="300.01" text-anchor="middle">15.4% (10)</text><text font-family="sans-serif" font-size="10px" fill="#222" x="787.9" y="300.01" text-anchor="middle">15.4% (10)</text></g><g><text stroke-width="3px" stroke="#fff" stroke-linejoin="round" font-family="sans-serif" font-size="10px" fill="#222" x="131.1" y="152.98" text-anchor="middle">15.7% (414)</text><text font-family="sans-serif" font-size="10px" fill="#222" x="131.1" y="152.98" text-anchor="middle">15.7% (414)</text></g><g><text stroke-width="3px" stroke="#fff" stroke-linejoin="round" font-family="sans-serif" font-size="10px" fill="#222" x="295.3" y="160.82" text-anchor="middle">15.8% (448)</text><text font-family="sans-serif" font-size="10px" fill="#222" x="295.3" y="160.82" text-anchor="middle">15.8% (448)</text></g><g><text stroke-width="3px" stroke="#fff" stroke-linejoin="round" font-family="sans-serif" font-size="10px" fill="#222" x="459.5" y="171.65" text-anchor="middle">14.9% (449)</text><text font-family="sans-serif" font-size="10px" fill="#222" x="459.5" y="171.65" text-anchor="middle">14.9% (449)</text></g><g><text stroke-width="3px" stroke="#fff" stroke-linejoin="round" font-family="sans-serif" font-size="10px" fill="#222" x="623.7" y="163.17" text-anchor="middle">15.1% (540)</text><text font-family="sans-serif" font-size="10px" fill="#222" x="623.7" y="163.17" text-anchor="middle">15.1% (540)</text></g><g><text stroke-width="3px" stroke="#fff" stroke-linejoin="round" font-family="sans-serif" font-size="10px" fill="#222" x="787.9" y="236.18" text-anchor="middle">13.8% (9)</text><text font-family="sans-serif" font-size="10px" fill="#222" x="787.9" y="236.18" text-anchor="middle">13.8% (9)</text></g><g><text stroke-width="3px" stroke="#fff" stroke-linejoin="round" font-family="sans-serif" font-size="10px" fill="#222" x="131.1" y="118.28" text-anchor="middle">7.5% (198)</text><text font-family="sans-serif" font-size="10px" fill="#222" x="131.1" y="118.28" text-anchor="middle">7.5% (198)</text></g><g><text stroke-width="3px" stroke="#fff" stroke-linejoin="round" font-family="sans-serif" font-size="10px" fill="#222" x="295.3" y="127.27" text-anchor="middle">7.3% (207)</text><text font-family="sans-serif" font-size="10px" fill="#222" x="295.3" y="127.27" text-anchor="middle">7.3% (207)</text></g><g><text stroke-width="3px" stroke="#fff" stroke-linejoin="round" font-family="sans-serif" font-size="10px" fill="#222" x="459.5" y="138.39" text-anchor="middle">7.2% (217)</text><text font-family="sans-serif" font-size="10px" fill="#222" x="459.5" y="138.39" text-anchor="middle">7.2% (217)</text></g><g><text stroke-width="3px" stroke="#fff" stroke-linejoin="round" font-family="sans-serif" font-size="10px" fill="#222" x="623.7" y="128.78" text-anchor="middle">7.5% (267)</text><text font-family="sans-serif" font-size="10px" fill="#222" x="623.7" y="128.78" text-anchor="middle">7.5% (267)</text></g><g><text stroke-width="3px" stroke="#fff" stroke-linejoin="round" font-family="sans-serif" font-size="10px" fill="#222" x="787.9" y="209.08" text-anchor="middle">1.5% (1)</text><text font-family="sans-serif" font-size="10px" fill="#222" x="787.9" y="209.08" text-anchor="middle">1.5% (1)</text></g><g><text stroke-width="3px" stroke="#fff" stroke-linejoin="round" font-family="sans-serif" font-size="10px" fill="#222" x="131.1" y="30.5" text-anchor="middle">19% (501)</text><text font-family="sans-serif" font-size="10px" fill="#222" x="131.1" y="30.5" text-anchor="middle">19% (501)</text></g><g><text stroke-width="3px" stroke="#fff" stroke-linejoin="round" font-family="sans-serif" font-size="10px" fill="#222" x="295.3" y="30.5" text-anchor="middle">21% (597)</text><text font-family="sans-serif" font-size="10px" fill="#222" x="295.3" y="30.5" text-anchor="middle">21% (597)</text></g><g><text stroke-width="3px" stroke="#fff" stroke-linejoin="round" font-family="sans-serif" font-size="10px" fill="#222" x="459.5" y="30.5" text-anchor="middle">23.4% (704)</text><text font-family="sans-serif" font-size="10px" fill="#222" x="459.5" y="30.5" text-anchor="middle">23.4% (704)</text></g><g><text stroke-width="3px" stroke="#fff" stroke-linejoin="round" font-family="sans-serif" font-size="10px" fill="#222" x="623.7" y="30.5" text-anchor="middle">21.3% (763)</text><text font-family="sans-serif" font-size="10px" fill="#222" x="623.7" y="30.5" text-anchor="middle">21.3% (763)</text></g><g><text stroke-width="3px" stroke="#fff" stroke-linejoin="round" font-family="sans-serif" font-size="10px" fill="#222" x="787.9" y="30.5" text-anchor="middle">43.1% (28)</text><text font-family="sans-serif" font-size="10px" fill="#222" x="787.9" y="30.5" text-anchor="middle">43.1% (28)</text></g></g><g font-family="sans-serif" font-size="10px" fill="black" transform="translate(880,17)" id="efj"><rect fill="#000" width="101" height="105" y="2.5" x="2.5" opacity="0.5"/><rect fill="rgba(255,255,255,0.3)" width="101" height="105" stroke-width="1px" stroke="black"/><g transform="translate(5,0)"><rect x="0" y="5" width="20" height="20" style="stroke:#000;stroke-width:1px;fill:#611;"/><rect x="0" y="30" width="20" height="20" style="stroke:#000;stroke-width:1px;fill:#116;"/><rect x="0" y="55" width="20" height="20" style="stroke:#000;stroke-width:1px;fill:#c81;"/><rect x="0" y="80" width="20" height="20" style="stroke:#000;stroke-width:1px;fill:#1c1;"/></g><g transform="translate(53,0)"><rect x="0" y="5" width="20" height="20" style="stroke:#000;stroke-width:1px;fill:#cc1;"/><rect x="0" y="30" width="20" height="20" style="stroke:#000;stroke-width:1px;fill:#c11;"/><rect x="0" y="55" width="20" height="20" style="stroke:#000;stroke-width:1px;fill:#11c;"/></g><g transform="translate(30,0)"><text x="0" y="17.5">n/a</text><text x="0" y="42.5">XXL</text><text x="0" y="67.5">XL</text><text x="0" y="92.5">L</text></g><g transform="translate(78,0)"><text x="0" y="17.5">M</text><text x="0" y="42.5">S</text><text x="0" y="67.5">XS</text></g></g></svg>
