<?xml version="1.0" encoding="UTF-8" standalone="no"?><svg width="100%" height="100%" version="1.1" xmlns:xlink="http://www.w3.org/1999/xlink" viewBox="0 0 1000 500" xmlns="http://www.w3.org/2000/svg"><defs><clipPath id="egv"><rect width="100%" height="100%" fill="rgba(255,255,255,0.19)" stroke-width="0px" ry="10" rx="10"/></clipPath></defs><rect width="100%" height="100%" fill="rgba(255,255,255,0.19)" stroke-width="0px" ry="10" rx="10"/><g><path d="M43 478h937M43 478h937M43 420.38h937M43 420.38h937M43 362.75h937M43 362.75h937M43 305.12h937M43 305.12h937M43 247.5h937M43 247.5h937M43 189.88h937M43 189.88h937M43 132.25h937M43 132.25h937M43 74.625h937M43 74.625h937M43 17h937M43 17v461M980 17v461" stroke="rgba(255,255,255,0.5)"/></g><g class="series"><rect width="927" class="series0" x="48" y="73.336" height="404.66" id="egw" style="fill:#11c;stroke:#000;stroke-width:1px;"/></g><path d="M43 481v-3M980 481v-3M40 478h3M40 478h3M40 420.38h3M40 420.38h3M40 362.75h3M40 362.75h3M40 305.12h3M40 305.12h3M40 247.5h3M40 247.5h3M40 189.88h3M40 189.88h3M40 132.25h3M40 132.25h3M40 74.625h3M40 74.625h3M40 17h3" stroke-width="1px" stroke="#111"/><g stroke="#111" stroke-width="2px"><path d="M42 478h939"/><path d="M43 16v463"/></g><g font-size="10px" font-family="sans-serif" fill="#111"><g text-anchor="end"><text x="38" y="481">0</text><text x="38" y="481">0</text><text x="38" y="423.38">1</text><text x="38" y="423.38">1</text><text x="38" y="365.75">2</text><text x="38" y="365.75">2</text><text x="38" y="308.12">4</text><text x="38" y="308.12">4</text><text x="38" y="250.5">8</text><text x="38" y="250.5">8</text><text x="38" y="192.88">16</text><text x="38" y="192.88">16</text><text x="38" y="135.25">32</text><text x="38" y="135.25">32</text><text x="38" y="77.625">64</text><text x="38" y="77.625">64</text><text x="38" y="20">128</text></g><g text-anchor="middle"><text y="490" x="511.5">Paid</text></g></g><g class="data-labels"><g><text stroke-width="3px" stroke="#fff" stroke-linejoin="round" font-family="sans-serif" font-size="10px" fill="#222" x="511.5" y="86.836" text-anchor="middle">65</text><text font-family="sans-serif" font-size="10px" fill="#222" x="511.5" y="86.836" text-anchor="middle">65</text></g></g></svg>
