<?xml version="1.0" encoding="UTF-8" standalone="no"?>
<!-- Created with Inkscape (http://www.inkscape.org/) -->

<svg
   xmlns:dc="http://purl.org/dc/elements/1.1/"
   xmlns:cc="http://creativecommons.org/ns#"
   xmlns:rdf="http://www.w3.org/1999/02/22-rdf-syntax-ns#"
   xmlns:svg="http://www.w3.org/2000/svg"
   xmlns="http://www.w3.org/2000/svg"
   xmlns:sodipodi="http://sodipodi.sourceforge.net/DTD/sodipodi-0.dtd"
   xmlns:inkscape="http://www.inkscape.org/namespaces/inkscape"
   version="1.1"
   id="svg815"
   width="200"
   height="200"
   viewBox="0 0 700 700"
   inkscape:version="0.92.3 (2405546, 2018-03-11)"
   sodipodi:docname="ef_logo.svg">
  <sodipodi:namedview
     borderopacity="1"
     objecttolerance="10"
     gridtolerance="10"
     guidetolerance="10"
     inkscape:pageopacity="0"
     inkscape:pageshadow="2"
     inkscape:window-width="1920"
     inkscape:window-height="1116"
     id="namedview817"
     showgrid="false"
     inkscape:zoom="4.561685"
     inkscape:cx="64.336834"
     inkscape:cy="98.59994"
     inkscape:window-x="-8"
     inkscape:window-y="-8"
     inkscape:window-maximized="1"
     inkscape:current-layer="svg815"
     scale-x="3.5" />
  <metadata
     id="metadata821">
    <rdf:RDF>
      <cc:Work
         rdf:about="">
        <dc:format>image/svg+xml</dc:format>
        <dc:type
           rdf:resource="http://purl.org/dc/dcmitype/StillImage" />
        <dc:title />
      </cc:Work>
    </rdf:RDF>
  </metadata>
  <defs
     id="defs819" />
  <path
     inkscape:connector-curvature="0"
     id="path825"
     d="M 331.026,697.54594 C 289.7793,695.27264 249.96185,685.8407 211.47466,669.22668 204.92257,666.39829 188.18674,658.10271 181.66871,654.45251 124.83479,622.62469 78.357096,576.09576 46.564342,519.19918 42.918169,512.67396 34.631722,495.91969 31.806445,489.36037 15.04078,450.43623 5.7538302,410.90587 3.4964687,368.85748 3.0641234,360.80411 3.0664899,340.12002 3.5006652,332.1328 7.250459,263.15112 30.616348,198.38271 71.650521,143.22674 115.87631,83.780796 178.1863,39.733012 248.32268,18.334803 304.37641,1.2331259 363.31554,-1.4978235 420.77138,10.344375 c 53.79371,11.087404 105.70432,35.818214 148.21091,70.609378 17.36301,14.211428 36.25343,33.122697 50.44922,50.504837 31.62322,38.72136 54.78798,84.85496 67.11651,133.66547 5.42576,21.4815 8.32313,40.0999 10.07057,64.71344 0.62953,8.86711 0.5276,34.48567 -0.17483,43.93846 -3.47482,46.76293 -14.35714,87.89134 -33.92318,128.20852 -36.4371,75.08133 -98.355,134.47135 -174.7677,167.63263 -37.42074,16.23969 -77.71697,25.68528 -119.2238,27.94653 -7.08195,0.38585 -30.3812,0.37482 -37.50308,-0.0177 z m 12.77398,-34.03975 c 1.71139,-0.37752 4.2481,-1.07899 5.63712,-1.55884 l 2.52551,-0.8724 2.7432,0.8748 c 1.50877,0.48112 4.13077,1.19667 5.8267,1.59011 l 3.0835,0.71535 7.53338,0.0154 7.53337,0.0154 3.76668,-0.74683 c 5.13708,-1.01852 8.67656,-2.03789 15.23052,-4.38637 6.10865,-2.18892 9.56879,-3.80881 13.0877,-6.12706 6.87838,-4.53152 11.95022,-10.2066 15.09516,-16.89066 4.8817,-10.37519 8.12714,-25.21533 13.41845,-61.35731 4.38465,-29.94915 6.64263,-41.36568 10.50528,-53.11552 4.17955,-12.71388 10.35469,-25.03804 19.63554,-39.18806 8.33807,-12.71265 17.20341,-19.99082 27.82939,-22.84708 l 3.27538,-0.88041 6.22322,-0.021 c 4.91042,-0.0164 6.81053,0.10769 9.0073,0.58891 8.97814,1.96677 16.66136,5.17726 31.08822,12.99038 2.73927,1.48347 5.06291,2.61469 5.1637,2.5138 0.70673,-0.70751 2.5621,-12.98897 3.08446,-20.41729 1.00544,-14.29787 -1.80771,-28.26132 -8.34914,-41.4419 -3.6816,-7.41827 -7.5169,-13.17364 -17.21722,-25.83684 l -1.13296,-1.47899 2.11557,0.23507 c 3.16271,0.35147 9.91404,1.71225 13.25186,2.671 13.54234,3.88997 24.42106,10.08787 32.22867,18.36159 l 2.75025,2.91444 -0.23443,-1.63015 c -1.28044,-8.90365 -5.4106,-23.71612 -9.59732,-34.42006 -6.76067,-17.28454 -17.65449,-34.31617 -28.91661,-45.20878 -9.09272,-8.79437 -20.20969,-14.98781 -37.7947,-21.05602 l -3.56977,-1.23184 0.73912,-0.27371 c 0.40651,-0.15055 1.77627,-0.43482 3.04391,-0.63172 7.65194,-1.18854 29.60707,3.48238 44.71453,9.51294 3.65689,1.45975 8.87581,3.99693 10.31105,5.01271 1.2924,0.91468 1.16531,0.31023 -0.72766,-3.46096 -5.72631,-11.40796 -18.15805,-24.94425 -33.41816,-36.3874 -2.43197,-1.82367 -4.45403,-3.32743 -4.49346,-3.34168 -0.0394,-0.0142 1.47886,-2.37908 3.37402,-5.25517 17.43541,-26.45984 28.47809,-61.93312 31.63752,-101.63155 0.6251,-7.85467 0.53182,-26.55377 -0.16721,-33.51161 -1.40012,-13.93619 -3.73612,-23.74944 -7.55562,-31.7403 -2.62813,-5.498361 -7.04739,-10.970678 -12.62003,-15.627189 -12.27995,-10.26119 -22.94871,-8.999722 -38.67102,4.572456 -7.87899,6.801483 -26.93862,25.669563 -54.37129,53.824923 -12.5469,12.87741 -18.20469,18.28958 -23.91027,22.87217 -3.74497,3.00785 -9.13369,6.80608 -9.34957,6.58998 -0.0743,-0.0744 -0.51145,-2.04428 -0.97148,-4.37757 -3.64376,-18.48098 -10.29733,-31.69597 -19.74611,-39.21864 -2.63947,-2.10141 -5.23897,-3.72919 -5.51463,-3.45321 -0.098,0.0981 0.19548,1.84976 0.6521,3.89265 1.79485,8.0301 2.01213,10.07775 2.01213,18.96164 0,4.59878 -0.1182,8.78661 -0.26272,9.30628 l -0.26268,0.94485 -2.04721,-3.4041 c -1.12598,-1.87199 -3.82126,-6.05982 -5.98952,-9.30602 -4.97488,-7.44799 -5.47634,-8.32209 -9.68792,-16.8868 -3.19058,-6.48837 -7.35261,-13.75306 -12.71191,-22.18833 -1.16512,-1.83378 -2.16804,-3.2844 -2.22876,-3.2236 -0.0607,0.0608 -0.24824,1.78249 -0.41667,3.82599 -0.70593,8.56477 -3.21206,20.54356 -6.00707,28.7125 -3.28704,9.60706 -6.59206,15.69452 -10.88701,20.05268 -1.49936,1.52141 -2.78778,2.70446 -2.86317,2.629 -0.0753,-0.0755 0.0705,-1.03692 0.32432,-2.13655 1.72696,-7.48347 0.8707,-17.57807 -1.99019,-23.46304 -1.86047,-3.82708 -3.10746,-5.17064 -3.10746,-3.34812 0,1.53548 -1.5898,8.7706 -2.62208,11.93295 -2.26105,6.92673 -5.39613,12.10976 -10.8378,17.91747 -4.43777,4.73628 -12.93696,12.89962 -13.43032,12.89962 -0.53977,0 -5.65832,-3.60073 -9.46651,-6.65937 -5.71584,-4.59083 -11.3668,-9.99848 -24.07404,-23.03751 -34.33501,-35.23151 -51.06692,-51.549321 -59.02762,-57.56677 -12.33454,-9.32359 -22.38294,-9.82671 -32.68299,-1.636408 -7.93586,6.310353 -13.5727,14.238828 -16.51501,23.229118 -6.36983,19.46321 -7.2993,49.54531 -2.47549,80.11915 4.84997,30.7396 15.02902,58.75336 29.11722,80.13352 1.89516,2.8761 3.41348,5.24278 3.37404,5.25932 -0.0394,0.0165 -1.80743,1.32055 -3.92887,2.8978 -5.98952,4.45314 -11.39868,9.11839 -16.79478,14.48506 -5.96177,5.92923 -9.80967,10.47965 -13.30926,15.73915 -2.41377,3.62764 -5.50712,9.42555 -5.50712,10.32209 0,0.21655 0.41757,0.0817 0.97326,-0.3145 1.49134,-1.0631 7.31195,-3.76848 11.27212,-5.2392 9.25426,-3.43685 22.62352,-6.68579 33.10356,-8.04468 4.0525,-0.52546 12.64425,-0.72417 13.31692,-0.30797 0.21459,0.13276 -1.32867,0.84089 -3.51168,1.61133 -10.38713,3.66594 -20.44291,8.33465 -26.16707,12.1489 -9.62533,6.41376 -17.21724,14.42937 -25.61122,27.04057 -9.2824,13.94593 -16.1029,29.67735 -20.68485,47.7093 -1.37311,5.40377 -2.99839,13.1615 -2.99839,14.31188 0,0.47076 0.74851,-0.14212 2.70219,-2.2125 7.00627,-7.42478 16.52357,-13.1767 28.14112,-17.00747 7.43426,-2.4514 19.80418,-4.91179 19.11962,-3.80294 -0.13649,0.22111 -2.40631,3.00929 -5.04404,6.19601 -6.47762,7.82577 -8.74221,10.76892 -11.30339,14.6902 -5.28582,8.09291 -8.04904,14.96466 -9.77185,24.30136 l -0.71133,3.85504 -0.008,8.85327 c -0.006,6.74023 0.1318,9.87068 0.57837,13.11596 1.21369,8.82026 3.34644,19.18298 3.9476,19.18084 0.19492,0 3.30225,-1.63329 6.90516,-3.62796 16.67055,-9.22938 25.22357,-12.50093 35.15142,-13.44547 6.60479,-0.62839 12.8848,0.5213 18.93443,3.46628 8.6629,4.21718 14.94078,10.67532 23.10974,23.77327 10.99895,17.63556 16.78714,31.20159 20.8457,48.85696 2.20571,9.59521 3.49974,17.29329 7.60642,45.25006 4.58748,31.22986 7.96048,46.02669 12.74759,55.92173 6.61681,13.6771 23.34311,24.16741 43.89168,27.52782 4.30494,0.704 15.92387,0.43679 19.98786,-0.45966 z m 4.11784,-18.75495 c -3.72643,-0.39311 -8.97661,-1.77541 -13.0347,-3.43182 -3.92882,-1.60362 -6.80496,-3.00102 -6.80496,-3.30627 0,-0.11126 1.04219,-1.30068 2.31596,-2.6431 4.1405,-4.36368 6.8551,-9.43132 6.8551,-12.7972 0,-3.21541 -2.18255,-6.24369 -5.60971,-7.78337 -4.09585,-1.84017 -9.71141,-1.44558 -12.76369,0.8968 -3.76209,2.88711 -3.57258,7.84095 0.50332,13.15658 1.41942,1.85119 1.32934,1.99078 -1.47387,2.28409 -8.22124,0.86024 -13.85961,-5.72033 -13.30254,-15.52547 0.0973,-1.71327 0.41769,-3.90383 0.71191,-4.86788 3.06641,-10.04792 12.1584,-16.51536 25.38382,-18.05645 8.20522,-0.95612 30.36886,-1.15404 40.71178,-0.36355 11.39897,0.8712 18.08353,3.41432 23.67687,9.00779 2.07979,2.07983 2.93978,3.24478 4.00909,5.43089 1.86467,3.81212 2.39944,6.062 2.37616,9.99685 -0.0617,10.43185 -6.10062,15.97871 -15.32714,14.07828 l -0.72595,-0.14955 1.74728,-2.56886 c 3.88608,-5.71335 3.73227,-9.89925 -0.46894,-12.76213 -1.82903,-1.24638 -4.35359,-1.80882 -7.32984,-1.63297 -4.65424,0.27497 -8.19156,2.227 -9.70422,5.35515 l -0.72458,1.49843 0.14697,2.51748 c 0.23136,3.96298 2.37313,7.85632 7.11156,12.92728 l 2.02569,2.16785 -2.88023,1.35121 c -9.93966,4.66301 -18.05763,6.20814 -27.42514,5.21994 z M 312.21526,512.14935 c -0.40319,-2.09252 -0.25877,-11.55327 0.28784,-18.85419 0.57544,-7.68599 0.66416,-20.75588 0.17695,-26.06798 -0.6834,-7.45131 -2.82147,-19.65495 -3.76281,-21.47728 -0.58792,-1.13818 -2.6877,-3.0192 -5.01366,-4.49134 -4.60777,-2.9163 -6.42589,-4.25605 -7.62231,-5.61674 -0.70645,-0.80345 -1.28444,-1.60982 -1.28444,-1.7919 0,-0.62478 15.52827,0.26629 22.31405,1.28048 l 3.48064,0.52021 0.54599,3.56042 c 1.5341,10.00378 2.04898,24.6606 1.19729,34.08229 -1.2966,14.34338 -4.4974,27.49256 -9.41845,38.69208 l -0.64836,1.47555 z m 79.12462,-3.11504 c -0.94404,-2.43465 -1.84385,-4.73746 -1.99959,-5.11736 -1.53468,-3.743 -4.23943,-14.99996 -5.23746,-21.79804 -1.97181,-13.43064 -1.90175,-29.67191 0.18587,-43.09075 l 0.52125,-3.35033 2.17701,-0.3765 c 6.87057,-1.18824 23.63075,-2.12977 23.63075,-1.3275 0,0.88064 -3.77003,3.90469 -7.52708,6.03773 -2.22356,1.26242 -4.83712,3.03307 -5.8079,3.93479 l -1.76511,1.6395 -0.46051,1.80344 c -0.78904,3.08993 -2.06051,10.44775 -2.66315,15.41126 -0.90201,7.42904 -0.77348,19.75175 0.32436,31.09745 0.834,8.61912 1.08644,16.91929 0.57001,18.7432 l -0.23209,0.81975 z m -84.87922,-94.9771 c -4.44462,-0.42387 -10.44694,-1.81866 -11.79137,-2.74002 l -0.4913,-0.33669 0.4913,-0.29242 c 1.35102,-0.80418 3.21336,-2.52623 4.30515,-3.98089 4.84026,-6.44885 3.39675,-15.96569 -3.10121,-20.44594 -2.13733,-1.47368 -6.19496,-2.81364 -8.50413,-2.80836 -3.93317,0.009 -8.47967,2.00946 -11.54807,5.08122 -5.72194,5.72827 -5.87151,13.37946 -0.37329,19.09471 l 1.33806,1.39088 -2.34154,-0.6496 c -5.16428,-1.43265 -9.76605,-3.57826 -14.59559,-6.80525 -6.58938,-4.40289 -10.05422,-7.93876 -15.6103,-15.93032 -4.85618,-6.98484 -7.29095,-9.44339 -11.22032,-11.32992 -1.49047,-0.71558 -3.79324,-1.62567 -5.11723,-2.02239 l -2.40728,-0.72131 0.76959,-0.74613 c 0.61352,-0.59484 1.50561,-0.85136 4.39915,-1.26495 23.71808,-3.39004 48.27756,-1.6283 64.088,4.59728 18.82054,7.41088 27.14948,19.9782 25.25654,38.10889 l -0.21042,2.01549 -6.09469,-0.0525 c -3.35207,-0.0289 -6.61054,-0.10165 -7.24105,-0.16182 z m 78.1623,-1.30704 c -0.33009,-2.41091 -0.24222,-9.64682 0.14307,-11.78032 1.92507,-10.66033 8.55352,-18.86135 19.79222,-24.48783 14.4403,-7.22935 36.61694,-10.13303 60.56785,-7.93043 8.54865,0.78614 12.3627,1.42327 13.216,2.20767 l 0.74288,0.68292 -3.36319,1.19214 c -6.7648,2.39786 -9.34168,4.37584 -13.56095,10.40935 -5.07465,7.25664 -6.26167,8.84239 -8.05838,10.76522 -3.63541,3.89052 -10.12524,8.65801 -15.4307,11.3355 -2.58965,1.3069 -8.8246,3.55282 -9.86312,3.55282 -0.41204,0 -0.19475,-0.41062 0.82419,-1.55752 3.92685,-4.42008 4.59765,-10.44647 1.71773,-15.4326 -2.01115,-3.48205 -6.29725,-6.62969 -10.58167,-7.77107 -6.48492,-1.72757 -13.67261,1.64723 -16.71592,7.84852 l -1.11377,2.26946 -0.12424,3.14087 -0.12422,3.14091 0.70027,2.07518 c 0.38515,1.14135 1.08123,2.67936 1.54689,3.41779 0.99159,1.57251 3.85647,4.40477 4.73922,4.68525 1.02833,0.32676 0.69883,0.69488 -1.2703,1.41927 -4.43355,1.63097 -9.88981,2.33822 -18.03904,2.33822 h -5.53654 z M 221.80089,340.79458 c 5.92888,-6.02968 15.92308,-13.04416 26.14931,-18.35297 11.59429,-6.01903 21.6407,-9.57194 32.4712,-11.48343 5.28224,-0.93227 13.79194,-1.02197 17.97279,-0.18946 13.19512,2.62748 21.25585,11.07256 24.27272,25.43012 0.74147,3.52871 0.7824,3.46474 -1.48419,2.31933 -5.09037,-2.57244 -14.28548,-5.93839 -20.6089,-7.54405 -20.07813,-5.09825 -41.01042,-3.82209 -61.4222,3.74471 -5.01459,1.85892 -5.32654,1.99218 -12.82971,5.47991 -3.45343,1.60527 -6.39732,2.91867 -6.54198,2.91867 -0.14466,0 0.76477,-1.04528 2.02096,-2.32283 z m 262.84038,1.91889 c -0.45036,-0.19772 -2.66124,-1.23893 -4.91307,-2.31379 -13.32839,-6.36196 -23.92064,-9.74155 -36.1741,-11.54177 -14.86223,-2.18348 -31.60744,-0.59557 -46.08235,4.36986 -4.40569,1.51129 -10.26911,3.89014 -13.03994,5.2904 -2.26657,1.14541 -2.22565,1.20938 -1.48418,-2.31933 3.01702,-14.35826 11.10252,-22.82744 24.27272,-25.4245 4.21296,-0.83076 12.73137,-0.74424 17.97279,0.18255 5.25561,0.9293 11.75914,2.66417 16.63736,4.43817 15.24283,5.54314 31.48609,15.25012 40.99222,24.49697 3.21514,3.12746 3.49132,3.55594 1.81855,2.82144 z M 259.62274,268.96596 c -15.11045,-1.38407 -26.18627,-6.50262 -33.64099,-15.54677 l -2.77036,-3.36102 -1.46903,-0.37032 c -7.67657,-1.93511 -23.69877,-12.33633 -31.41537,-20.39409 -3.28719,-3.43252 -4.58323,-5.31471 -7.80848,-11.33988 -6.17495,-11.53561 -10.01082,-21.57798 -10.01855,-26.22873 l -0.002,-1.37846 2.70219,1.28534 c 4.4233,2.10403 7.97178,2.99269 12.733,3.18879 4.9471,0.20375 7.94641,-0.34478 10.9316,-1.99926 2.41912,-1.34074 4.5357,-3.83797 5.22638,-6.1663 0.76278,-2.57138 0.64695,-7.20395 -0.29694,-11.87637 -0.44137,-2.18483 -1.11194,-5.74307 -1.49017,-7.9072 -2.02647,-11.59496 -5.97253,-21.91705 -11.75248,-30.74199 -3.97413,-6.06779 -6.25652,-7.67902 -13.15942,-9.28978 -4.40668,-1.02828 -5.79612,-1.66541 -7.10892,-3.25983 -2.03076,-2.46636 -2.19754,-4.95761 -0.53539,-7.99736 1.98866,-3.63694 4.28103,-6.2055 7.16573,-8.02913 18.11786,-11.453569 33.55085,6.25587 44.54937,51.12061 2.90606,11.85432 3.33851,14.51269 6.24096,38.36419 2.97854,24.47685 6.11036,37.86905 11.42371,48.84973 4.65024,9.61027 11.09894,16.33078 18.71661,19.50552 2.07194,0.8635 5.75057,1.8309 9.51873,2.5032 0.3838,0.0685 0.77533,0.42123 0.87007,0.7839 l 0.17224,0.65938 -2.8353,-0.0446 c -1.5594,-0.0245 -4.23551,-0.17282 -5.9469,-0.32959 z m 177.7591,-0.28521 c 0.0948,-0.36267 0.48627,-0.71542 0.87008,-0.7839 9.26837,-1.65363 14.19879,-4.0297 19.61683,-9.45371 7.57195,-7.58028 12.85318,-19.67718 16.42934,-37.63206 1.46972,-7.37923 2.49459,-14.35696 4.28903,-29.20167 2.48737,-20.57731 3.18856,-24.40427 6.75544,-36.86999 6.61146,-23.10584 15.83119,-41.4173 23.95062,-47.56862 1.12333,-0.85104 3.00048,-2.00551 4.17143,-2.56549 l 2.129,-1.01813 3.27538,0.0139 3.27537,0.0139 2.129,1.00448 c 4.40355,2.07767 7.76465,5.26237 11.19554,10.60803 1.09112,1.70012 1.57837,2.80175 1.5784,3.56884 1e-4,2.69134 -1.61122,5.41718 -3.88021,6.56411 -0.65812,0.33265 -2.88308,0.99838 -4.94438,1.47937 -6.90934,1.61226 -9.2028,3.23308 -13.14511,9.28979 -5.67266,8.71507 -9.20981,17.58766 -11.27516,28.28274 -0.43536,2.25431 -1.2399,6.42263 -1.7879,9.26295 -1.68125,8.71394 -1.31149,13.06078 1.3925,16.37052 2.90368,3.55416 7.39963,5.05807 14.27465,4.77491 4.76123,-0.19611 8.3097,-1.08477 12.73301,-3.18879 l 2.70218,-1.28535 -0.003,1.37846 c -0.003,1.7678 -0.97852,5.81841 -2.30635,9.57593 -2.44419,6.9167 -9.68222,21.05638 -12.74493,24.89756 -4.70086,5.89571 -14.62316,13.72513 -24.0872,19.00655 -3.32553,1.8558 -8.67056,4.19081 -10.52802,4.59923 -0.77584,0.17059 -1.68849,1.0345 -3.80324,3.60013 -6.42275,7.79218 -14.93972,12.40906 -26.93852,14.60283 -4.00339,0.73195 -9.98312,1.32992 -13.31652,1.33163 l -2.18021,9.9e-4 0.17224,-0.65939 z"
     style="opacity:1;fill:#ffffff;fill-opacity:0.85777779;stroke:#000000;stroke-width:6.09351397;stroke-miterlimit:4;stroke-dasharray:none;stroke-opacity:1" />
</svg>
