<?xml version="1.0" encoding="UTF-8" standalone="no"?><svg width="100%" height="100%" version="1.1" xmlns:xlink="http://www.w3.org/1999/xlink" viewBox="0 0 1000 500" xmlns="http://www.w3.org/2000/svg"><defs><clipPath id="e8j"><rect width="100%" height="100%" fill="rgba(255,255,255,0.19)" stroke-width="0px" ry="10" rx="10"/></clipPath></defs><rect width="100%" height="100%" fill="rgba(255,255,255,0.19)" stroke-width="0px" ry="10" rx="10"/><g><path d="M49 478h831M49 478h831M49 439.58h831M49 439.58h831M49 401.17h831M49 401.17h831M49 362.75h831M49 362.75h831M49 324.33h831M49 324.33h831M49 285.92h831M49 285.92h831M49 247.5h831M49 247.5h831M49 209.08h831M49 209.08h831M49 170.67h831M49 170.67h831M49 132.25h831M49 132.25h831M49 93.833h831M49 93.833h831M49 55.417h831M49 55.417h831M49 17h831M49 17v461M215.2 17v461M381.4 17v461M547.6 17v461M713.8 17v461M880 17v461" stroke="rgba(255,255,255,0.5)"/></g><g class="series"><rect width="12.92" x="54" y="42.02" height="435.98" id="e8k" class="series0" style="stroke:#000;stroke-width:1px;fill:#11c;"/><rect width="12.92" x="69.92" y="193.36" height="284.64" class="series1" id="e8m" style="stroke:#000;stroke-width:1px;fill:#c11;"/><rect width="12.92" x="85.84" y="145.93" height="332.07" class="series2" id="e8o" style="stroke:#000;stroke-width:1px;fill:#cc1;"/><rect width="12.92" x="101.76" y="178.07" height="299.93" class="series3" id="e8q" style="stroke:#000;stroke-width:1px;fill:#1c1;"/><rect width="12.92" x="117.68" y="150.55" height="327.45" class="series4" id="e8s" style="stroke:#000;stroke-width:1px;fill:#c81;"/><rect width="12.92" x="133.6" y="199.56" height="278.44" class="series5" id="e8u" style="stroke:#000;stroke-width:1px;fill:#116;"/><rect width="12.92" x="149.52" y="208.22" height="269.78" class="series6" id="e8w" style="stroke:#000;stroke-width:1px;fill:#611;"/><rect width="12.92" x="165.44" y="172.88" height="305.12" class="series7" id="e8y" style="stroke:#000;stroke-width:1px;fill:#661;"/><rect width="12.92" x="181.36" y="210.84" height="267.16" class="series8" id="e90" style="stroke:#000;stroke-width:1px;fill:#161;"/><rect width="12.92" x="197.28" y="236.54" height="241.46" class="series9" id="e92" style="stroke:#000;stroke-width:1px;fill:#631;"/><rect width="12.92" x="220.2" y="35.303" height="442.7" class="series0" id="e94" style="stroke:#000;stroke-width:1px;fill:#11c;"/><rect width="12.92" x="236.12" y="190.19" height="287.81" class="series1" id="e96" style="stroke:#000;stroke-width:1px;fill:#c11;"/><rect width="12.92" x="252.04" y="151.77" height="326.23" class="series2" id="e98" style="stroke:#000;stroke-width:1px;fill:#cc1;"/><rect width="12.92" x="267.96" y="167.72" height="310.28" class="series3" id="e9a" style="stroke:#000;stroke-width:1px;fill:#1c1;"/><rect width="12.92" x="283.88" y="145.38" height="332.62" class="series4" id="e9c" style="stroke:#000;stroke-width:1px;fill:#c81;"/><rect width="12.92" x="299.8" y="194.68" height="283.32" class="series5" id="e9e" style="stroke:#000;stroke-width:1px;fill:#116;"/><rect width="12.92" x="315.72" y="213.59" height="264.41" class="series6" id="e9g" style="stroke:#000;stroke-width:1px;fill:#611;"/><rect width="12.92" x="331.64" y="181.64" height="296.36" class="series7" id="e9i" style="stroke:#000;stroke-width:1px;fill:#661;"/><rect width="12.92" x="347.56" y="216.48" height="261.52" class="series8" id="e9k" style="stroke:#000;stroke-width:1px;fill:#161;"/><rect width="12.92" x="363.48" y="233.76" height="244.24" class="series9" id="e9m" style="stroke:#000;stroke-width:1px;fill:#631;"/><rect width="12.92" x="386.4" y="32.263" height="445.74" class="series0" id="e9o" style="stroke:#000;stroke-width:1px;fill:#11c;"/><rect width="12.92" x="402.32" y="186.04" height="291.96" class="series1" id="e9q" style="stroke:#000;stroke-width:1px;fill:#c11;"/><rect width="12.92" x="418.24" y="146.21" height="331.79" class="series2" id="e9s" style="stroke:#000;stroke-width:1px;fill:#cc1;"/><rect width="12.92" x="434.16" y="169.81" height="308.19" class="series3" id="e9u" style="stroke:#000;stroke-width:1px;fill:#1c1;"/><rect width="12.92" x="450.08" y="146.77" height="331.23" class="series4" id="e9w" style="stroke:#000;stroke-width:1px;fill:#c81;"/><rect width="12.92" x="466" y="178.07" height="299.93" class="series5" id="e9y" style="stroke:#000;stroke-width:1px;fill:#116;"/><rect width="12.92" x="481.92" y="216.48" height="261.52" class="series6" id="ea0" style="stroke:#000;stroke-width:1px;fill:#611;"/><rect width="12.92" x="497.84" y="176.12" height="301.88" class="series7" id="ea2" style="stroke:#000;stroke-width:1px;fill:#661;"/><rect width="12.92" x="513.76" y="222.77" height="255.23" class="series8" id="ea4" style="stroke:#000;stroke-width:1px;fill:#161;"/><rect width="12.92" x="529.68" y="228.6" height="249.4" class="series9" id="ea6" style="stroke:#000;stroke-width:1px;fill:#631;"/><rect width="12.92" x="552.6" y="22.755" height="455.24" class="series0" id="ea8" style="stroke:#000;stroke-width:1px;fill:#11c;"/><rect width="12.92" x="568.52" y="183.8" height="294.2" class="series1" id="eaa" style="stroke:#000;stroke-width:1px;fill:#c11;"/><rect width="12.92" x="584.44" y="140.65" height="337.35" class="series2" id="eac" style="stroke:#000;stroke-width:1px;fill:#cc1;"/><rect width="12.92" x="600.36" y="168.96" height="309.04" class="series3" id="eae" style="stroke:#000;stroke-width:1px;fill:#1c1;"/><rect width="12.92" x="616.28" y="140.15" height="337.85" class="series4" id="eag" style="stroke:#000;stroke-width:1px;fill:#c81;"/><rect width="12.92" x="632.2" y="168.13" height="309.87" class="series5" id="eai" style="stroke:#000;stroke-width:1px;fill:#116;"/><rect width="12.92" x="648.12" y="208.22" height="269.78" class="series6" id="eak" style="stroke:#000;stroke-width:1px;fill:#611;"/><rect width="12.92" x="664.04" y="166.1" height="311.9" class="series7" id="eam" style="stroke:#000;stroke-width:1px;fill:#661;"/><rect width="12.92" x="679.96" y="217.48" height="260.52" class="series8" id="eao" style="stroke:#000;stroke-width:1px;fill:#161;"/><rect width="12.92" x="695.88" y="206.54" height="271.46" class="series9" id="eaq" style="stroke:#000;stroke-width:1px;fill:#631;"/><rect width="12.92" x="718.8" y="249.26" height="228.74" class="series0" id="eas" style="stroke:#000;stroke-width:1px;fill:#11c;"/><rect width="12.92" x="734.72" y="331.73" height="146.27" class="series1" id="eau" style="stroke:#000;stroke-width:1px;fill:#c11;"/><rect width="12.92" x="750.64" y="340.28" height="137.72" class="series2" id="eaw" style="stroke:#000;stroke-width:1px;fill:#cc1;"/><rect width="12.92" x="766.56" y="350.38" height="127.62" class="series3" id="eay" style="stroke:#000;stroke-width:1px;fill:#1c1;"/><rect width="12.92" x="782.48" y="378.69" height="99.306" class="series4" id="eb0" style="stroke:#000;stroke-width:1px;fill:#c81;"/><rect width="12.92" x="798.4" y="378.69" height="99.306" class="series5" id="eb2" style="stroke:#000;stroke-width:1px;fill:#116;"/><rect width="12.92" x="814.32" y="401.17" height="76.833" class="series6" id="eb4" style="stroke:#000;stroke-width:1px;fill:#611;"/><rect width="12.92" x="830.24" y="401.17" height="76.833" class="series7" id="eb6" style="stroke:#000;stroke-width:1px;fill:#661;"/><rect width="12.92" x="846.16" y="439.58" height="38.417" class="series8" id="eb8" style="stroke:#000;stroke-width:1px;fill:#161;"/><rect width="12.92" x="862.08" y="439.58" height="38.417" class="series9" id="eba" style="stroke:#000;stroke-width:1px;fill:#631;"/></g><path d="M49 481v-3M215.2 481v-3M381.4 481v-3M547.6 481v-3M713.8 481v-3M880 481v-3M46 478h3M46 478h3M46 439.58h3M46 439.58h3M46 401.17h3M46 401.17h3M46 362.75h3M46 362.75h3M46 324.33h3M46 324.33h3M46 285.92h3M46 285.92h3M46 247.5h3M46 247.5h3M46 209.08h3M46 209.08h3M46 170.67h3M46 170.67h3M46 132.25h3M46 132.25h3M46 93.833h3M46 93.833h3M46 55.417h3M46 55.417h3M46 17h3" stroke-width="1px" stroke="#111"/><g stroke="#111" stroke-width="2px"><path d="M48 478h833"/><path d="M49 16v463"/></g><g font-size="10px" font-family="sans-serif" fill="#111"><g text-anchor="end"><text x="44" y="481">0</text><text x="44" y="481">0</text><text x="44" y="442.58">1</text><text x="44" y="442.58">1</text><text x="44" y="404.17">2</text><text x="44" y="404.17">2</text><text x="44" y="365.75">4</text><text x="44" y="365.75">4</text><text x="44" y="327.33">8</text><text x="44" y="327.33">8</text><text x="44" y="288.92">16</text><text x="44" y="288.92">16</text><text x="44" y="250.5">32</text><text x="44" y="250.5">32</text><text x="44" y="212.08">64</text><text x="44" y="212.08">64</text><text x="44" y="173.67">128</text><text x="44" y="173.67">128</text><text x="44" y="135.25">256</text><text x="44" y="135.25">256</text><text x="44" y="96.833">512</text><text x="44" y="96.833">512</text><text x="44" y="58.417">1024</text><text x="44" y="58.417">1024</text><text x="44" y="20">2048</text></g><g text-anchor="middle"><text y="490" x="132.1">EF22 (2016)</text><text y="490" x="298.3">EF23 (2017)</text><text y="490" x="464.5">EF24 (2018)</text><text y="490" x="630.7">EF25 (2019)</text><text y="490" x="796.9">EF26 (2020)</text></g></g><g class="data-labels"><g><text stroke-width="3px" stroke="#fff" stroke-linejoin="round" font-family="sans-serif" font-size="10px" fill="#222" x="60.46" y="55.52" text-anchor="middle">1,304</text><text font-family="sans-serif" font-size="10px" fill="#222" x="60.46" y="55.52" text-anchor="middle">1,304</text></g><g><text stroke-width="3px" stroke="#fff" stroke-linejoin="round" font-family="sans-serif" font-size="10px" fill="#222" x="226.66" y="48.803" text-anchor="middle">1,472</text><text font-family="sans-serif" font-size="10px" fill="#222" x="226.66" y="48.803" text-anchor="middle">1,472</text></g><g><text stroke-width="3px" stroke="#fff" stroke-linejoin="round" font-family="sans-serif" font-size="10px" fill="#222" x="392.86" y="45.763" text-anchor="middle">1,555</text><text font-family="sans-serif" font-size="10px" fill="#222" x="392.86" y="45.763" text-anchor="middle">1,555</text></g><g><text stroke-width="3px" stroke="#fff" stroke-linejoin="round" font-family="sans-serif" font-size="10px" fill="#222" x="559.06" y="36.255" text-anchor="middle">1,846</text><text font-family="sans-serif" font-size="10px" fill="#222" x="559.06" y="36.255" text-anchor="middle">1,846</text></g><g><text stroke-width="3px" stroke="#fff" stroke-linejoin="round" font-family="sans-serif" font-size="10px" fill="#222" x="725.26" y="262.76" text-anchor="middle">31</text><text font-family="sans-serif" font-size="10px" fill="#222" x="725.26" y="262.76" text-anchor="middle">31</text></g><g><text stroke-width="3px" stroke="#fff" stroke-linejoin="round" font-family="sans-serif" font-size="10px" fill="#222" x="76.38" y="206.86" text-anchor="middle">85</text><text font-family="sans-serif" font-size="10px" fill="#222" x="76.38" y="206.86" text-anchor="middle">85</text></g><g><text stroke-width="3px" stroke="#fff" stroke-linejoin="round" font-family="sans-serif" font-size="10px" fill="#222" x="242.58" y="203.69" text-anchor="middle">90</text><text font-family="sans-serif" font-size="10px" fill="#222" x="242.58" y="203.69" text-anchor="middle">90</text></g><g><text stroke-width="3px" stroke="#fff" stroke-linejoin="round" font-family="sans-serif" font-size="10px" fill="#222" x="408.78" y="199.54" text-anchor="middle">97</text><text font-family="sans-serif" font-size="10px" fill="#222" x="408.78" y="199.54" text-anchor="middle">97</text></g><g><text stroke-width="3px" stroke="#fff" stroke-linejoin="round" font-family="sans-serif" font-size="10px" fill="#222" x="574.98" y="197.3" text-anchor="middle">101</text><text font-family="sans-serif" font-size="10px" fill="#222" x="574.98" y="197.3" text-anchor="middle">101</text></g><g><text stroke-width="3px" stroke="#fff" stroke-linejoin="round" font-family="sans-serif" font-size="10px" fill="#222" x="741.18" y="345.23" text-anchor="middle">7</text><text font-family="sans-serif" font-size="10px" fill="#222" x="741.18" y="345.23" text-anchor="middle">7</text></g><g><text stroke-width="3px" stroke="#fff" stroke-linejoin="round" font-family="sans-serif" font-size="10px" fill="#222" x="92.3" y="159.43" text-anchor="middle">200</text><text font-family="sans-serif" font-size="10px" fill="#222" x="92.3" y="159.43" text-anchor="middle">200</text></g><g><text stroke-width="3px" stroke="#fff" stroke-linejoin="round" font-family="sans-serif" font-size="10px" fill="#222" x="258.5" y="165.27" text-anchor="middle">180</text><text font-family="sans-serif" font-size="10px" fill="#222" x="258.5" y="165.27" text-anchor="middle">180</text></g><g><text stroke-width="3px" stroke="#fff" stroke-linejoin="round" font-family="sans-serif" font-size="10px" fill="#222" x="424.7" y="159.71" text-anchor="middle">199</text><text font-family="sans-serif" font-size="10px" fill="#222" x="424.7" y="159.71" text-anchor="middle">199</text></g><g><text stroke-width="3px" stroke="#fff" stroke-linejoin="round" font-family="sans-serif" font-size="10px" fill="#222" x="590.9" y="154.15" text-anchor="middle">220</text><text font-family="sans-serif" font-size="10px" fill="#222" x="590.9" y="154.15" text-anchor="middle">220</text></g><g><text stroke-width="3px" stroke="#fff" stroke-linejoin="round" font-family="sans-serif" font-size="10px" fill="#222" x="757.1" y="353.78" text-anchor="middle">6</text><text font-family="sans-serif" font-size="10px" fill="#222" x="757.1" y="353.78" text-anchor="middle">6</text></g><g><text stroke-width="3px" stroke="#fff" stroke-linejoin="round" font-family="sans-serif" font-size="10px" fill="#222" x="108.22" y="191.57" text-anchor="middle">112</text><text font-family="sans-serif" font-size="10px" fill="#222" x="108.22" y="191.57" text-anchor="middle">112</text></g><g><text stroke-width="3px" stroke="#fff" stroke-linejoin="round" font-family="sans-serif" font-size="10px" fill="#222" x="274.42" y="181.22" text-anchor="middle">135</text><text font-family="sans-serif" font-size="10px" fill="#222" x="274.42" y="181.22" text-anchor="middle">135</text></g><g><text stroke-width="3px" stroke="#fff" stroke-linejoin="round" font-family="sans-serif" font-size="10px" fill="#222" x="440.62" y="183.31" text-anchor="middle">130</text><text font-family="sans-serif" font-size="10px" fill="#222" x="440.62" y="183.31" text-anchor="middle">130</text></g><g><text stroke-width="3px" stroke="#fff" stroke-linejoin="round" font-family="sans-serif" font-size="10px" fill="#222" x="606.82" y="182.46" text-anchor="middle">132</text><text font-family="sans-serif" font-size="10px" fill="#222" x="606.82" y="182.46" text-anchor="middle">132</text></g><g><text stroke-width="3px" stroke="#fff" stroke-linejoin="round" font-family="sans-serif" font-size="10px" fill="#222" x="773.02" y="363.88" text-anchor="middle">5</text><text font-family="sans-serif" font-size="10px" fill="#222" x="773.02" y="363.88" text-anchor="middle">5</text></g><g><text stroke-width="3px" stroke="#fff" stroke-linejoin="round" font-family="sans-serif" font-size="10px" fill="#222" x="124.14" y="164.05" text-anchor="middle">184</text><text font-family="sans-serif" font-size="10px" fill="#222" x="124.14" y="164.05" text-anchor="middle">184</text></g><g><text stroke-width="3px" stroke="#fff" stroke-linejoin="round" font-family="sans-serif" font-size="10px" fill="#222" x="290.34" y="158.88" text-anchor="middle">202</text><text font-family="sans-serif" font-size="10px" fill="#222" x="290.34" y="158.88" text-anchor="middle">202</text></g><g><text stroke-width="3px" stroke="#fff" stroke-linejoin="round" font-family="sans-serif" font-size="10px" fill="#222" x="456.54" y="160.27" text-anchor="middle">197</text><text font-family="sans-serif" font-size="10px" fill="#222" x="456.54" y="160.27" text-anchor="middle">197</text></g><g><text stroke-width="3px" stroke="#fff" stroke-linejoin="round" font-family="sans-serif" font-size="10px" fill="#222" x="622.74" y="153.65" text-anchor="middle">222</text><text font-family="sans-serif" font-size="10px" fill="#222" x="622.74" y="153.65" text-anchor="middle">222</text></g><g><text stroke-width="3px" stroke="#fff" stroke-linejoin="round" font-family="sans-serif" font-size="10px" fill="#222" x="788.94" y="392.19" text-anchor="middle">3</text><text font-family="sans-serif" font-size="10px" fill="#222" x="788.94" y="392.19" text-anchor="middle">3</text></g><g><text stroke-width="3px" stroke="#fff" stroke-linejoin="round" font-family="sans-serif" font-size="10px" fill="#222" x="140.06" y="213.06" text-anchor="middle">76</text><text font-family="sans-serif" font-size="10px" fill="#222" x="140.06" y="213.06" text-anchor="middle">76</text></g><g><text stroke-width="3px" stroke="#fff" stroke-linejoin="round" font-family="sans-serif" font-size="10px" fill="#222" x="306.26" y="208.18" text-anchor="middle">83</text><text font-family="sans-serif" font-size="10px" fill="#222" x="306.26" y="208.18" text-anchor="middle">83</text></g><g><text stroke-width="3px" stroke="#fff" stroke-linejoin="round" font-family="sans-serif" font-size="10px" fill="#222" x="472.46" y="191.57" text-anchor="middle">112</text><text font-family="sans-serif" font-size="10px" fill="#222" x="472.46" y="191.57" text-anchor="middle">112</text></g><g><text stroke-width="3px" stroke="#fff" stroke-linejoin="round" font-family="sans-serif" font-size="10px" fill="#222" x="638.66" y="181.63" text-anchor="middle">134</text><text font-family="sans-serif" font-size="10px" fill="#222" x="638.66" y="181.63" text-anchor="middle">134</text></g><g><text stroke-width="3px" stroke="#fff" stroke-linejoin="round" font-family="sans-serif" font-size="10px" fill="#222" x="804.86" y="392.19" text-anchor="middle">3</text><text font-family="sans-serif" font-size="10px" fill="#222" x="804.86" y="392.19" text-anchor="middle">3</text></g><g><text stroke-width="3px" stroke="#fff" stroke-linejoin="round" font-family="sans-serif" font-size="10px" fill="#222" x="155.98" y="221.72" text-anchor="middle">65</text><text font-family="sans-serif" font-size="10px" fill="#222" x="155.98" y="221.72" text-anchor="middle">65</text></g><g><text stroke-width="3px" stroke="#fff" stroke-linejoin="round" font-family="sans-serif" font-size="10px" fill="#222" x="322.18" y="227.09" text-anchor="middle">59</text><text font-family="sans-serif" font-size="10px" fill="#222" x="322.18" y="227.09" text-anchor="middle">59</text></g><g><text stroke-width="3px" stroke="#fff" stroke-linejoin="round" font-family="sans-serif" font-size="10px" fill="#222" x="488.38" y="229.98" text-anchor="middle">56</text><text font-family="sans-serif" font-size="10px" fill="#222" x="488.38" y="229.98" text-anchor="middle">56</text></g><g><text stroke-width="3px" stroke="#fff" stroke-linejoin="round" font-family="sans-serif" font-size="10px" fill="#222" x="654.58" y="221.72" text-anchor="middle">65</text><text font-family="sans-serif" font-size="10px" fill="#222" x="654.58" y="221.72" text-anchor="middle">65</text></g><g><text stroke-width="3px" stroke="#fff" stroke-linejoin="round" font-family="sans-serif" font-size="10px" fill="#222" x="820.78" y="414.67" text-anchor="middle">2</text><text font-family="sans-serif" font-size="10px" fill="#222" x="820.78" y="414.67" text-anchor="middle">2</text></g><g><text stroke-width="3px" stroke="#fff" stroke-linejoin="round" font-family="sans-serif" font-size="10px" fill="#222" x="171.9" y="186.38" text-anchor="middle">123</text><text font-family="sans-serif" font-size="10px" fill="#222" x="171.9" y="186.38" text-anchor="middle">123</text></g><g><text stroke-width="3px" stroke="#fff" stroke-linejoin="round" font-family="sans-serif" font-size="10px" fill="#222" x="338.1" y="195.14" text-anchor="middle">105</text><text font-family="sans-serif" font-size="10px" fill="#222" x="338.1" y="195.14" text-anchor="middle">105</text></g><g><text stroke-width="3px" stroke="#fff" stroke-linejoin="round" font-family="sans-serif" font-size="10px" fill="#222" x="504.3" y="189.62" text-anchor="middle">116</text><text font-family="sans-serif" font-size="10px" fill="#222" x="504.3" y="189.62" text-anchor="middle">116</text></g><g><text stroke-width="3px" stroke="#fff" stroke-linejoin="round" font-family="sans-serif" font-size="10px" fill="#222" x="670.5" y="179.6" text-anchor="middle">139</text><text font-family="sans-serif" font-size="10px" fill="#222" x="670.5" y="179.6" text-anchor="middle">139</text></g><g><text stroke-width="3px" stroke="#fff" stroke-linejoin="round" font-family="sans-serif" font-size="10px" fill="#222" x="836.7" y="414.67" text-anchor="middle">2</text><text font-family="sans-serif" font-size="10px" fill="#222" x="836.7" y="414.67" text-anchor="middle">2</text></g><g><text stroke-width="3px" stroke="#fff" stroke-linejoin="round" font-family="sans-serif" font-size="10px" fill="#222" x="187.82" y="224.34" text-anchor="middle">62</text><text font-family="sans-serif" font-size="10px" fill="#222" x="187.82" y="224.34" text-anchor="middle">62</text></g><g><text stroke-width="3px" stroke="#fff" stroke-linejoin="round" font-family="sans-serif" font-size="10px" fill="#222" x="354.02" y="229.98" text-anchor="middle">56</text><text font-family="sans-serif" font-size="10px" fill="#222" x="354.02" y="229.98" text-anchor="middle">56</text></g><g><text stroke-width="3px" stroke="#fff" stroke-linejoin="round" font-family="sans-serif" font-size="10px" fill="#222" x="520.22" y="236.27" text-anchor="middle">50</text><text font-family="sans-serif" font-size="10px" fill="#222" x="520.22" y="236.27" text-anchor="middle">50</text></g><g><text stroke-width="3px" stroke="#fff" stroke-linejoin="round" font-family="sans-serif" font-size="10px" fill="#222" x="686.42" y="230.98" text-anchor="middle">55</text><text font-family="sans-serif" font-size="10px" fill="#222" x="686.42" y="230.98" text-anchor="middle">55</text></g><g><text stroke-width="3px" stroke="#fff" stroke-linejoin="round" font-family="sans-serif" font-size="10px" fill="#222" x="852.62" y="453.08" text-anchor="middle">1</text><text font-family="sans-serif" font-size="10px" fill="#222" x="852.62" y="453.08" text-anchor="middle">1</text></g><g><text stroke-width="3px" stroke="#fff" stroke-linejoin="round" font-family="sans-serif" font-size="10px" fill="#222" x="203.74" y="250.04" text-anchor="middle">39</text><text font-family="sans-serif" font-size="10px" fill="#222" x="203.74" y="250.04" text-anchor="middle">39</text></g><g><text stroke-width="3px" stroke="#fff" stroke-linejoin="round" font-family="sans-serif" font-size="10px" fill="#222" x="369.94" y="247.26" text-anchor="middle">41</text><text font-family="sans-serif" font-size="10px" fill="#222" x="369.94" y="247.26" text-anchor="middle">41</text></g><g><text stroke-width="3px" stroke="#fff" stroke-linejoin="round" font-family="sans-serif" font-size="10px" fill="#222" x="536.14" y="242.1" text-anchor="middle">45</text><text font-family="sans-serif" font-size="10px" fill="#222" x="536.14" y="242.1" text-anchor="middle">45</text></g><g><text stroke-width="3px" stroke="#fff" stroke-linejoin="round" font-family="sans-serif" font-size="10px" fill="#222" x="702.34" y="220.04" text-anchor="middle">67</text><text font-family="sans-serif" font-size="10px" fill="#222" x="702.34" y="220.04" text-anchor="middle">67</text></g><g><text stroke-width="3px" stroke="#fff" stroke-linejoin="round" font-family="sans-serif" font-size="10px" fill="#222" x="868.54" y="453.08" text-anchor="middle">1</text><text font-family="sans-serif" font-size="10px" fill="#222" x="868.54" y="453.08" text-anchor="middle">1</text></g></g><g font-family="sans-serif" font-size="10px" fill="black" transform="translate(890,17)" id="ebc"><rect fill="#000" width="89" height="130" y="2.5" x="2.5" opacity="0.5"/><rect fill="rgba(255,255,255,0.3)" width="89" height="130" stroke-width="1px" stroke="black"/><g transform="translate(5,0)"><rect x="0" y="5" width="20" height="20" style="stroke:#000;stroke-width:1px;fill:#11c;"/><rect x="0" y="30" width="20" height="20" style="stroke:#000;stroke-width:1px;fill:#c11;"/><rect x="0" y="55" width="20" height="20" style="stroke:#000;stroke-width:1px;fill:#cc1;"/><rect x="0" y="80" width="20" height="20" style="stroke:#000;stroke-width:1px;fill:#1c1;"/><rect x="0" y="105" width="20" height="20" style="stroke:#000;stroke-width:1px;fill:#c81;"/></g><g transform="translate(47,0)"><rect x="0" y="5" width="20" height="20" style="stroke:#000;stroke-width:1px;fill:#116;"/><rect x="0" y="30" width="20" height="20" style="stroke:#000;stroke-width:1px;fill:#611;"/><rect x="0" y="55" width="20" height="20" style="stroke:#000;stroke-width:1px;fill:#661;"/><rect x="0" y="80" width="20" height="20" style="stroke:#000;stroke-width:1px;fill:#161;"/><rect x="0" y="105" width="20" height="20" style="stroke:#000;stroke-width:1px;fill:#631;"/></g><g transform="translate(30,0)"><text x="0" y="17.5">de</text><text x="0" y="42.5">us</text><text x="0" y="67.5">gb</text><text x="0" y="92.5">ch</text><text x="0" y="117.5">nl</text></g><g transform="translate(72,0)"><text x="0" y="17.5">at</text><text x="0" y="42.5">se</text><text x="0" y="67.5">fr</text><text x="0" y="92.5">no</text><text x="0" y="117.5">it</text></g></g></svg>
