<?xml version="1.0" encoding="UTF-8" standalone="no"?><svg width="100%" height="100%" version="1.1" xmlns:xlink="http://www.w3.org/1999/xlink" viewBox="0 0 1000 500" xmlns="http://www.w3.org/2000/svg"><defs><clipPath id="ebd"><rect width="100%" height="100%" fill="rgba(255,255,255,0.19)" stroke-width="0px" ry="10" rx="10"/></clipPath></defs><rect width="100%" height="100%" fill="rgba(255,255,255,0.19)" stroke-width="0px" ry="10" rx="10"/><g><path d="M55 478h825M55 449.19h825M55 420.38h825M55 391.56h825M55 362.75h825M55 333.94h825M55 305.12h825M55 276.31h825M55 247.5h825M55 218.69h825M55 189.88h825M55 161.06h825M55 132.25h825M55 103.44h825M55 74.625h825M55 45.812h825M55 17h825M55 17v461M220 17v461M385 17v461M550 17v461M715 17v461M880 17v461" stroke="rgba(255,255,255,0.5)"/></g><g class="series"><rect width="36.5" x="60" y="454.09" height="23.914" id="ebe" class="series0" style="stroke:#000;stroke-width:1px;fill:#11c;"/><rect width="36.5" x="99.5" y="333.36" height="144.64" class="series1" id="ebg" style="stroke:#000;stroke-width:1px;fill:#c11;"/><rect width="36.5" x="139" y="136" height="342" class="series2" id="ebi" style="stroke:#000;stroke-width:1px;fill:#cc1;"/><rect width="36.5" x="178.5" y="439.39" height="38.609" class="series3" id="ebk" style="stroke:#000;stroke-width:1px;fill:#1c1;"/><rect width="36.5" x="225" y="456.68" height="21.321" class="series0" id="ebm" style="stroke:#000;stroke-width:1px;fill:#11c;"/><rect width="36.5" x="264.5" y="318.38" height="159.62" class="series1" id="ebo" style="stroke:#000;stroke-width:1px;fill:#c11;"/><rect width="36.5" x="304" y="107.76" height="370.24" class="series2" id="ebq" style="stroke:#000;stroke-width:1px;fill:#cc1;"/><rect width="36.5" x="343.5" y="434.78" height="43.219" class="series3" id="ebs" style="stroke:#000;stroke-width:1px;fill:#1c1;"/><rect width="36.5" x="390" y="452.07" height="25.931" class="series0" id="ebu" style="stroke:#000;stroke-width:1px;fill:#11c;"/><rect width="36.5" x="429.5" y="312.04" height="165.96" class="series1" id="ebw" style="stroke:#000;stroke-width:1px;fill:#c11;"/><rect width="36.5" x="469" y="107.76" height="370.24" class="series2" id="eby" style="stroke:#000;stroke-width:1px;fill:#cc1;"/><rect width="36.5" x="508.5" y="436.22" height="41.778" class="series3" id="ec0" style="stroke:#000;stroke-width:1px;fill:#1c1;"/><rect width="36.5" x="555" y="443.71" height="34.287" class="series0" id="ec2" style="stroke:#000;stroke-width:1px;fill:#11c;"/><rect width="36.5" x="594.5" y="266.8" height="211.2" class="series1" id="ec4" style="stroke:#000;stroke-width:1px;fill:#c11;"/><rect width="36.5" x="634" y="35.152" height="442.85" class="series2" id="ec6" style="stroke:#000;stroke-width:1px;fill:#cc1;"/><rect width="36.5" x="673.5" y="426.43" height="51.574" class="series3" id="ec8" style="stroke:#000;stroke-width:1px;fill:#1c1;"/><rect width="36.5" x="720" y="477.14" height="0.86437" class="series0" id="eca" style="stroke:#000;stroke-width:1px;fill:#11c;"/><rect width="36.5" x="759.5" y="473.97" height="4.0337" class="series1" id="ecc" style="stroke:#000;stroke-width:1px;fill:#c11;"/><rect width="36.5" x="799" y="469.64" height="8.3556" class="series2" id="ece" style="stroke:#000;stroke-width:1px;fill:#cc1;"/><rect width="36.5" x="838.5" y="475.41" height="2.5931" class="series3" id="ecg" style="stroke:#000;stroke-width:1px;fill:#1c1;"/></g><path d="M55 481v-3M220 481v-3M385 481v-3M550 481v-3M715 481v-3M880 481v-3M52 478h3M52 449.19h3M52 420.38h3M52 391.56h3M52 362.75h3M52 333.94h3M52 305.12h3M52 276.31h3M52 247.5h3M52 218.69h3M52 189.88h3M52 161.06h3M52 132.25h3M52 103.44h3M52 74.625h3M52 45.812h3M52 17h3" stroke-width="1px" stroke="#111"/><g stroke="#111" stroke-width="2px"><path d="M54 478h827"/><path d="M55 16v463"/></g><g font-size="10px" font-family="sans-serif" fill="#111"><g text-anchor="end"><text x="50" y="481">0</text><text x="50" y="452.19">100</text><text x="50" y="423.38">200</text><text x="50" y="394.56">300</text><text x="50" y="365.75">400</text><text x="50" y="336.94">500</text><text x="50" y="308.12">600</text><text x="50" y="279.31">700</text><text x="50" y="250.5">800</text><text x="50" y="221.69">900</text><text x="50" y="192.88">1,000</text><text x="50" y="164.06">1,100</text><text x="50" y="135.25">1,200</text><text x="50" y="106.44">1,300</text><text x="50" y="77.625">1,400</text><text x="50" y="48.812">1,500</text><text x="50" y="20">1,600</text></g><g text-anchor="middle"><text y="490" x="137.5">EF22 (2016)</text><text y="490" x="302.5">EF23 (2017)</text><text y="490" x="467.5">EF24 (2018)</text><text y="490" x="632.5">EF25 (2019)</text><text y="490" x="797.5">EF26 (2020)</text></g></g><g class="data-labels"><g><text stroke-width="3px" stroke="#fff" stroke-linejoin="round" font-family="sans-serif" font-size="10px" fill="#222" x="78.25" y="467.59" text-anchor="middle">83</text><text font-family="sans-serif" font-size="10px" fill="#222" x="78.25" y="467.59" text-anchor="middle">83</text></g><g><text stroke-width="3px" stroke="#fff" stroke-linejoin="round" font-family="sans-serif" font-size="10px" fill="#222" x="243.25" y="470.18" text-anchor="middle">74</text><text font-family="sans-serif" font-size="10px" fill="#222" x="243.25" y="470.18" text-anchor="middle">74</text></g><g><text stroke-width="3px" stroke="#fff" stroke-linejoin="round" font-family="sans-serif" font-size="10px" fill="#222" x="408.25" y="465.57" text-anchor="middle">90</text><text font-family="sans-serif" font-size="10px" fill="#222" x="408.25" y="465.57" text-anchor="middle">90</text></g><g><text stroke-width="3px" stroke="#fff" stroke-linejoin="round" font-family="sans-serif" font-size="10px" fill="#222" x="573.25" y="457.21" text-anchor="middle">119</text><text font-family="sans-serif" font-size="10px" fill="#222" x="573.25" y="457.21" text-anchor="middle">119</text></g><g><text stroke-width="3px" stroke="#fff" stroke-linejoin="round" font-family="sans-serif" font-size="10px" fill="#222" x="738.25" y="470.64" text-anchor="middle">3</text><text font-family="sans-serif" font-size="10px" fill="#222" x="738.25" y="470.64" text-anchor="middle">3</text></g><g><text stroke-width="3px" stroke="#fff" stroke-linejoin="round" font-family="sans-serif" font-size="10px" fill="#222" x="117.75" y="346.86" text-anchor="middle">502</text><text font-family="sans-serif" font-size="10px" fill="#222" x="117.75" y="346.86" text-anchor="middle">502</text></g><g><text stroke-width="3px" stroke="#fff" stroke-linejoin="round" font-family="sans-serif" font-size="10px" fill="#222" x="282.75" y="331.88" text-anchor="middle">554</text><text font-family="sans-serif" font-size="10px" fill="#222" x="282.75" y="331.88" text-anchor="middle">554</text></g><g><text stroke-width="3px" stroke="#fff" stroke-linejoin="round" font-family="sans-serif" font-size="10px" fill="#222" x="447.75" y="325.54" text-anchor="middle">576</text><text font-family="sans-serif" font-size="10px" fill="#222" x="447.75" y="325.54" text-anchor="middle">576</text></g><g><text stroke-width="3px" stroke="#fff" stroke-linejoin="round" font-family="sans-serif" font-size="10px" fill="#222" x="612.75" y="280.3" text-anchor="middle">733</text><text font-family="sans-serif" font-size="10px" fill="#222" x="612.75" y="280.3" text-anchor="middle">733</text></g><g><text stroke-width="3px" stroke="#fff" stroke-linejoin="round" font-family="sans-serif" font-size="10px" fill="#222" x="777.75" y="467.47" text-anchor="middle">14</text><text font-family="sans-serif" font-size="10px" fill="#222" x="777.75" y="467.47" text-anchor="middle">14</text></g><g><text stroke-width="3px" stroke="#fff" stroke-linejoin="round" font-family="sans-serif" font-size="10px" fill="#222" x="157.25" y="149.5" text-anchor="middle">1,187</text><text font-family="sans-serif" font-size="10px" fill="#222" x="157.25" y="149.5" text-anchor="middle">1,187</text></g><g><text stroke-width="3px" stroke="#fff" stroke-linejoin="round" font-family="sans-serif" font-size="10px" fill="#222" x="322.25" y="121.26" text-anchor="middle">1,285</text><text font-family="sans-serif" font-size="10px" fill="#222" x="322.25" y="121.26" text-anchor="middle">1,285</text></g><g><text stroke-width="3px" stroke="#fff" stroke-linejoin="round" font-family="sans-serif" font-size="10px" fill="#222" x="487.25" y="121.26" text-anchor="middle">1,285</text><text font-family="sans-serif" font-size="10px" fill="#222" x="487.25" y="121.26" text-anchor="middle">1,285</text></g><g><text stroke-width="3px" stroke="#fff" stroke-linejoin="round" font-family="sans-serif" font-size="10px" fill="#222" x="652.25" y="48.652" text-anchor="middle">1,537</text><text font-family="sans-serif" font-size="10px" fill="#222" x="652.25" y="48.652" text-anchor="middle">1,537</text></g><g><text stroke-width="3px" stroke="#fff" stroke-linejoin="round" font-family="sans-serif" font-size="10px" fill="#222" x="817.25" y="463.14" text-anchor="middle">29</text><text font-family="sans-serif" font-size="10px" fill="#222" x="817.25" y="463.14" text-anchor="middle">29</text></g><g><text stroke-width="3px" stroke="#fff" stroke-linejoin="round" font-family="sans-serif" font-size="10px" fill="#222" x="196.75" y="452.89" text-anchor="middle">134</text><text font-family="sans-serif" font-size="10px" fill="#222" x="196.75" y="452.89" text-anchor="middle">134</text></g><g><text stroke-width="3px" stroke="#fff" stroke-linejoin="round" font-family="sans-serif" font-size="10px" fill="#222" x="361.75" y="448.28" text-anchor="middle">150</text><text font-family="sans-serif" font-size="10px" fill="#222" x="361.75" y="448.28" text-anchor="middle">150</text></g><g><text stroke-width="3px" stroke="#fff" stroke-linejoin="round" font-family="sans-serif" font-size="10px" fill="#222" x="526.75" y="449.72" text-anchor="middle">145</text><text font-family="sans-serif" font-size="10px" fill="#222" x="526.75" y="449.72" text-anchor="middle">145</text></g><g><text stroke-width="3px" stroke="#fff" stroke-linejoin="round" font-family="sans-serif" font-size="10px" fill="#222" x="691.75" y="439.93" text-anchor="middle">179</text><text font-family="sans-serif" font-size="10px" fill="#222" x="691.75" y="439.93" text-anchor="middle">179</text></g><g><text stroke-width="3px" stroke="#fff" stroke-linejoin="round" font-family="sans-serif" font-size="10px" fill="#222" x="856.75" y="468.91" text-anchor="middle">9</text><text font-family="sans-serif" font-size="10px" fill="#222" x="856.75" y="468.91" text-anchor="middle">9</text></g></g><g font-family="sans-serif" font-size="10px" fill="black" transform="translate(890,17)" id="eci"><rect fill="#000" width="89" height="105" y="2.5" x="2.5" opacity="0.5"/><rect fill="rgba(255,255,255,0.3)" width="89" height="105" stroke-width="1px" stroke="black"/><g transform="translate(5,0)"><rect x="0" y="5" width="20" height="20" style="stroke:#000;stroke-width:1px;fill:#11c;"/><rect x="0" y="30" width="20" height="20" style="stroke:#000;stroke-width:1px;fill:#c11;"/><rect x="0" y="55" width="20" height="20" style="stroke:#000;stroke-width:1px;fill:#cc1;"/><rect x="0" y="80" width="20" height="20" style="stroke:#000;stroke-width:1px;fill:#1c1;"/></g><g transform="translate(30,0)"><text x="0" y="17.5">animator</text><text x="0" y="42.5">artist</text><text x="0" y="67.5">fursuiter</text><text x="0" y="92.5">musician</text></g></g></svg>
