<?xml version="1.0" encoding="UTF-8" standalone="no"?><svg width="100%" height="100%" version="1.1" xmlns:xlink="http://www.w3.org/1999/xlink" viewBox="0 0 1000 500" xmlns="http://www.w3.org/2000/svg"><defs><clipPath id="ecj"><rect width="100%" height="100%" fill="rgba(255,255,255,0.19)" stroke-width="0px" ry="10" rx="10"/></clipPath></defs><rect width="100%" height="100%" fill="rgba(255,255,255,0.19)" stroke-width="0px" ry="10" rx="10"/><g class="series"><path fill="#11c" stroke="#000" stroke-width="1px" stroke-linejoin="round" id="eck" class="series0" d="M500,250 L720,250 A220 220 0 1,1 442.2,37.727 z"/><path fill="#c11" stroke="#000" stroke-width="1px" stroke-linejoin="round" id="ecm" class="series0" d="M503.61,233.65 L445.82,21.378 A220 220 0 0,1 645.48,65.501 z"/><path fill="#cc1" stroke="#000" stroke-width="1px" stroke-linejoin="round" id="eco" class="series0" d="M515.56,239.8 L657.43,71.655 A220 220 0 0,1 726.38,176.9 z"/><path fill="#1c1" stroke="#000" stroke-width="1px" stroke-linejoin="round" id="ecq" class="series0" d="M519.79,247.11 L730.6,184.2 A220 220 0 0,1 739.79,247.11 z"/></g><g class="data-labels"><g><text stroke-width="3px" stroke="#fff" stroke-linejoin="round" font-family="sans-serif" font-size="10px" fill="rgba(55,55,55,0.7)" x="400.32" y="375.11" text-anchor="middle"><tspan x="400.32" dy="0">male</tspan><tspan x="400.32" dy="10">46</tspan><tspan x="400.32" dy="10">70.77%</tspan></text><text font-family="sans-serif" font-size="10px" fill="rgba(55,55,55,0.7)" x="400.32" y="375.11" text-anchor="middle"><tspan x="400.32" dy="0">male</tspan><tspan x="400.32" dy="10">46</tspan><tspan x="400.32" dy="10">70.77%</tspan></text></g><g><text stroke-width="3px" stroke="#fff" stroke-linejoin="round" font-family="sans-serif" font-size="10px" fill="rgba(55,55,55,0.7)" x="539.72" y="66.54" text-anchor="middle"><tspan x="539.72" dy="0">female</tspan><tspan x="539.72" dy="10">10</tspan><tspan x="539.72" dy="10">15.38%</tspan></text><text font-family="sans-serif" font-size="10px" fill="rgba(55,55,55,0.7)" x="539.72" y="66.54" text-anchor="middle"><tspan x="539.72" dy="0">female</tspan><tspan x="539.72" dy="10">10</tspan><tspan x="539.72" dy="10">15.38%</tspan></text></g><g><text stroke-width="3px" stroke="#fff" stroke-linejoin="round" font-family="sans-serif" font-size="10px" fill="rgba(55,55,55,0.7)" x="654.08" y="143.38" text-anchor="middle"><tspan x="654.08" dy="0">notprovided</tspan><tspan x="654.08" dy="10">6</tspan><tspan x="654.08" dy="10">9.23%</tspan></text><text font-family="sans-serif" font-size="10px" fill="rgba(55,55,55,0.7)" x="654.08" y="143.38" text-anchor="middle"><tspan x="654.08" dy="0">notprovided</tspan><tspan x="654.08" dy="10">6</tspan><tspan x="654.08" dy="10">9.23%</tspan></text></g><g><text stroke-width="3px" stroke="#fff" stroke-linejoin="round" font-family="sans-serif" font-size="10px" fill="rgba(55,55,55,0.7)" x="683.56" y="217.27" text-anchor="middle"><tspan x="683.56" dy="0">other</tspan><tspan x="683.56" dy="10">3</tspan><tspan x="683.56" dy="10">4.62%</tspan></text><text font-family="sans-serif" font-size="10px" fill="rgba(55,55,55,0.7)" x="683.56" y="217.27" text-anchor="middle"><tspan x="683.56" dy="0">other</tspan><tspan x="683.56" dy="10">3</tspan><tspan x="683.56" dy="10">4.62%</tspan></text></g></g></svg>
