<?xml version="1.0" encoding="UTF-8" standalone="no"?><svg width="100%" height="100%" version="1.1" xmlns:xlink="http://www.w3.org/1999/xlink" viewBox="0 0 1000 500" xmlns="http://www.w3.org/2000/svg"><defs><clipPath id="eh6"><rect width="100%" height="100%" fill="rgba(255,255,255,0.19)" stroke-width="0px" ry="10" rx="10"/></clipPath><clipPath id="eh8"><rect x="43" y="17" width="934" height="375"/></clipPath><symbol><circle id="eh9" cursor="crosshair" fill="red" r="1"/></symbol><linearGradient id="eh7" x1="0" x2="0" y1="0" y2="100%"><stop offset="0%" stop-color="red" stop-opacity="0.5"/><stop offset="100%" stop-color="yellow" stop-opacity="0.5"/></linearGradient></defs><rect width="100%" height="100%" fill="rgba(255,255,255,0.19)" stroke-width="0px" ry="10" rx="10"/><g><path d="M43 392h934M43 368.56h934M43 345.12h934M43 321.69h934M43 298.25h934M43 274.81h934M43 251.38h934M43 227.94h934M43 204.5h934M43 181.06h934M43 157.62h934M43 134.19h934M43 110.75h934M43 87.312h934M43 63.875h934M43 40.438h934M43 17h934M43 17v375M80.36 17v375M117.72 17v375M155.08 17v375M192.44 17v375M229.8 17v375M267.16 17v375M304.52 17v375M341.88 17v375M379.24 17v375M416.6 17v375M453.96 17v375M491.32 17v375M528.68 17v375M566.04 17v375M603.4 17v375M640.76 17v375M678.12 17v375M715.48 17v375M752.84 17v375M790.2 17v375M827.56 17v375M864.92 17v375M902.28 17v375M939.64 17v375M977 17v375" stroke="rgba(255,255,255,0.5)"/></g><g clip-path="url(#eh8)" class="series"><path fill="url(#eh7)" d="M69.152 392L69.152 392 72.888 337.62 76.624 392 91.568 392 95.304 181.06 99.04 23.562 102.78 369.5 106.51 58.25 110.25 52.625 113.98 272.94 117.72 388.25 121.46 383.56 125.19 387.31 128.93 387.31 132.66 382.62 136.4 387.31 140.14 388.25 143.87 385.44 147.61 386.38 151.34 385.44 155.08 386.38 158.82 386.38 162.55 383.56 166.29 387.31 170.02 389.19 173.76 387.31 177.5 388.25 181.23 385.44 184.97 387.31 188.7 386.38 192.44 387.31 196.18 385.44 199.91 388.25 203.65 385.44 207.38 388.25 211.12 389.19 214.86 386.38 218.59 386.38 222.33 391.06 226.06 387.31 229.8 390.12 233.54 389.19 237.27 388.25 241.01 389.19 244.74 386.38 248.48 389.19 252.22 391.06 255.95 389.19 259.69 392 263.42 390.12 267.16 389.19 270.9 392 274.63 391.06 278.37 391.06 282.1 389.19 285.84 392 289.58 391.06 293.31 391.06 297.05 389.19 300.78 390.12 304.52 391.06 308.26 385.44 311.99 390.12 315.73 390.12 319.46 391.06 323.2 392 326.94 390.12 330.67 390.12 334.41 390.12 338.14 390.12 341.88 389.19 345.62 389.19 349.35 390.12 353.09 391.06 356.82 392 360.56 391.06 364.3 392 368.03 392 371.77 390.12 375.5 392 379.24 391.06 382.98 391.06 386.71 391.06 390.45 390.12 394.18 391.06 397.92 386.38 401.66 390.12 405.39 390.12 409.13 391.06 412.86 389.19 416.6 390.12 420.34 391.06 424.07 392 427.81 389.19 431.54 389.19 435.28 389.19 439.02 390.12 442.75 387.31 446.49 392 450.22 392 453.96 388.25 457.7 390.12 461.43 392 465.17 389.19 468.9 390.12 472.64 390.12 476.38 391.06 480.11 392 487.58 392 491.32 387.31 495.06 391.06 498.79 391.06 502.53 392 506.26 389.19 510 392 513.74 391.06 517.47 391.06 521.21 391.06 524.94 391.06 528.68 390.12 532.42 390.12 536.15 391.06 539.89 392 543.62 390.12 547.36 392 551.1 390.12 554.83 390.12 558.57 391.06 562.3 392 566.04 392 569.78 391.06 573.51 392 577.25 391.06 580.98 391.06 584.72 391.06 588.46 390.12 592.19 391.06 595.93 392 599.66 390.12 603.4 390.12 607.14 390.12 610.87 392 614.61 390.12 618.34 392 625.82 392 629.55 390.12 633.29 391.06 637.02 390.12 640.76 390.12 644.5 391.06 648.23 391.06 651.97 392 655.7 391.06 659.44 392 663.18 392 666.91 391.06 670.65 391.06 674.38 388.25 678.12 391.06 681.86 390.12 685.59 391.06 689.33 390.12 693.06 391.06 696.8 392 700.54 391.06 704.27 391.06 708.01 391.06 711.74 391.06 715.48 391.06 719.22 391.06 722.95 392 726.69 390.12 730.42 392 737.9 392 741.63 390.12 745.37 390.12 749.1 392 756.58 392 760.31 391.06 764.05 391.06 767.78 391.06 771.52 392 775.26 392 778.99 391.06 782.73 390.12 786.46 391.06 790.2 391.06 793.94 391.06 797.67 392 801.41 391.06 805.14 392 808.88 392 812.62 391.06 816.35 391.06 820.09 392 823.82 390.12 827.56 391.06 831.3 392 835.03 392 838.77 391.06 842.5 392 846.24 391.06 849.98 392 853.71 391.06 857.45 392 883.6 392 887.34 391.06 891.07 392 898.54 392 902.28 391.06 906.02 392 928.43 392 932.17 391.06 935.9 391.06 939.64 391.06 L939.64 392z" stroke="none" class="series0"/><path fill="none" stroke-width="0.5px" stroke="#000" d="M69.152 392 L72.888 337.62 76.624 392 91.568 392 95.304 181.06 99.04 23.562 102.78 369.5 106.51 58.25 110.25 52.625 113.98 272.94 117.72 388.25 121.46 383.56 125.19 387.31 128.93 387.31 132.66 382.62 136.4 387.31 140.14 388.25 143.87 385.44 147.61 386.38 151.34 385.44 155.08 386.38 158.82 386.38 162.55 383.56 166.29 387.31 170.02 389.19 173.76 387.31 177.5 388.25 181.23 385.44 184.97 387.31 188.7 386.38 192.44 387.31 196.18 385.44 199.91 388.25 203.65 385.44 207.38 388.25 211.12 389.19 214.86 386.38 218.59 386.38 222.33 391.06 226.06 387.31 229.8 390.12 233.54 389.19 237.27 388.25 241.01 389.19 244.74 386.38 248.48 389.19 252.22 391.06 255.95 389.19 259.69 392 263.42 390.12 267.16 389.19 270.9 392 274.63 391.06 278.37 391.06 282.1 389.19 285.84 392 289.58 391.06 293.31 391.06 297.05 389.19 300.78 390.12 304.52 391.06 308.26 385.44 311.99 390.12 315.73 390.12 319.46 391.06 323.2 392 326.94 390.12 330.67 390.12 334.41 390.12 338.14 390.12 341.88 389.19 345.62 389.19 349.35 390.12 353.09 391.06 356.82 392 360.56 391.06 364.3 392 368.03 392 371.77 390.12 375.5 392 379.24 391.06 382.98 391.06 386.71 391.06 390.45 390.12 394.18 391.06 397.92 386.38 401.66 390.12 405.39 390.12 409.13 391.06 412.86 389.19 416.6 390.12 420.34 391.06 424.07 392 427.81 389.19 431.54 389.19 435.28 389.19 439.02 390.12 442.75 387.31 446.49 392 450.22 392 453.96 388.25 457.7 390.12 461.43 392 465.17 389.19 468.9 390.12 472.64 390.12 476.38 391.06 480.11 392 487.58 392 491.32 387.31 495.06 391.06 498.79 391.06 502.53 392 506.26 389.19 510 392 513.74 391.06 517.47 391.06 521.21 391.06 524.94 391.06 528.68 390.12 532.42 390.12 536.15 391.06 539.89 392 543.62 390.12 547.36 392 551.1 390.12 554.83 390.12 558.57 391.06 562.3 392 566.04 392 569.78 391.06 573.51 392 577.25 391.06 580.98 391.06 584.72 391.06 588.46 390.12 592.19 391.06 595.93 392 599.66 390.12 603.4 390.12 607.14 390.12 610.87 392 614.61 390.12 618.34 392 625.82 392 629.55 390.12 633.29 391.06 637.02 390.12 640.76 390.12 644.5 391.06 648.23 391.06 651.97 392 655.7 391.06 659.44 392 663.18 392 666.91 391.06 670.65 391.06 674.38 388.25 678.12 391.06 681.86 390.12 685.59 391.06 689.33 390.12 693.06 391.06 696.8 392 700.54 391.06 704.27 391.06 708.01 391.06 711.74 391.06 715.48 391.06 719.22 391.06 722.95 392 726.69 390.12 730.42 392 737.9 392 741.63 390.12 745.37 390.12 749.1 392 756.58 392 760.31 391.06 764.05 391.06 767.78 391.06 771.52 392 775.26 392 778.99 391.06 782.73 390.12 786.46 391.06 790.2 391.06 793.94 391.06 797.67 392 801.41 391.06 805.14 392 808.88 392 812.62 391.06 816.35 391.06 820.09 392 823.82 390.12 827.56 391.06 831.3 392 835.03 392 838.77 391.06 842.5 392 846.24 391.06 849.98 392 853.71 391.06 857.45 392 883.6 392 887.34 391.06 891.07 392 898.54 392 902.28 391.06 906.02 392 928.43 392 932.17 391.06 935.9 391.06 939.64 391.06 " class="series0"/></g><path d="M43 395v-3M80.36 395v-3M117.72 395v-3M155.08 395v-3M192.44 395v-3M229.8 395v-3M267.16 395v-3M304.52 395v-3M341.88 395v-3M379.24 395v-3M416.6 395v-3M453.96 395v-3M491.32 395v-3M528.68 395v-3M566.04 395v-3M603.4 395v-3M640.76 395v-3M678.12 395v-3M715.48 395v-3M752.84 395v-3M790.2 395v-3M827.56 395v-3M864.92 395v-3M902.28 395v-3M939.64 395v-3M977 395v-3M40 392h3M40 368.56h3M40 345.12h3M40 321.69h3M40 298.25h3M40 274.81h3M40 251.38h3M40 227.94h3M40 204.5h3M40 181.06h3M40 157.62h3M40 134.19h3M40 110.75h3M40 87.312h3M40 63.875h3M40 40.438h3M40 17h3" stroke-width="1px" stroke="#111"/><g stroke="#111" stroke-width="2px"><path d="M42 392h936"/><path d="M43 16v377"/></g><g font-size="10px" font-family="sans-serif" fill="#111"><g text-anchor="end"><text x="38" y="395">0</text><text x="38" y="371.56">25</text><text x="38" y="348.12">50</text><text x="38" y="324.69">75</text><text x="38" y="301.25">100</text><text x="38" y="277.81">125</text><text x="38" y="254.38">150</text><text x="38" y="230.94">175</text><text x="38" y="207.5">200</text><text x="38" y="184.06">225</text><text x="38" y="160.62">250</text><text x="38" y="137.19">275</text><text x="38" y="113.75">300</text><text x="38" y="90.312">325</text><text x="38" y="66.875">350</text><text x="38" y="43.438">375</text><text x="38" y="20">400</text></g><g text-anchor="end"><text y="404" x="46" transform="rotate(-90,43,401)">2020-01-12 19:00</text><text y="404" x="83.36" transform="rotate(-90,80.36,401)">2020-01-12 19:10</text><text y="404" x="120.72" transform="rotate(-90,117.72,401)">2020-01-12 19:20</text><text y="404" x="158.08" transform="rotate(-90,155.08,401)">2020-01-12 19:30</text><text y="404" x="195.44" transform="rotate(-90,192.44,401)">2020-01-12 19:40</text><text y="404" x="232.8" transform="rotate(-90,229.8,401)">2020-01-12 19:50</text><text y="404" x="270.16" transform="rotate(-90,267.16,401)">2020-01-12 20:00</text><text y="404" x="307.52" transform="rotate(-90,304.52,401)">2020-01-12 20:10</text><text y="404" x="344.88" transform="rotate(-90,341.88,401)">2020-01-12 20:20</text><text y="404" x="382.24" transform="rotate(-90,379.24,401)">2020-01-12 20:30</text><text y="404" x="419.6" transform="rotate(-90,416.6,401)">2020-01-12 20:40</text><text y="404" x="456.96" transform="rotate(-90,453.96,401)">2020-01-12 20:50</text><text y="404" x="494.32" transform="rotate(-90,491.32,401)">2020-01-12 21:00</text><text y="404" x="531.68" transform="rotate(-90,528.68,401)">2020-01-12 21:10</text><text y="404" x="569.04" transform="rotate(-90,566.04,401)">2020-01-12 21:20</text><text y="404" x="606.4" transform="rotate(-90,603.4,401)">2020-01-12 21:30</text><text y="404" x="643.76" transform="rotate(-90,640.76,401)">2020-01-12 21:40</text><text y="404" x="681.12" transform="rotate(-90,678.12,401)">2020-01-12 21:50</text><text y="404" x="718.48" transform="rotate(-90,715.48,401)">2020-01-12 22:00</text><text y="404" x="755.84" transform="rotate(-90,752.84,401)">2020-01-12 22:10</text><text y="404" x="793.2" transform="rotate(-90,790.2,401)">2020-01-12 22:20</text><text y="404" x="830.56" transform="rotate(-90,827.56,401)">2020-01-12 22:30</text><text y="404" x="867.92" transform="rotate(-90,864.92,401)">2020-01-12 22:40</text><text y="404" x="905.28" transform="rotate(-90,902.28,401)">2020-01-12 22:50</text><text y="404" x="942.64" transform="rotate(-90,939.64,401)">2020-01-12 23:00</text><text y="404" x="980" transform="rotate(-90,977,401)">2020-01-12 23:10</text></g></g><g class="series"><use x="69.152" y="392" xlink:href="#eh9" class="series0" id="ehb"></use><use x="72.888" y="337.62" xlink:href="#eh9" class="series0" id="ehc"></use><use x="76.624" y="392" xlink:href="#eh9" class="series0" id="ehd"></use><use x="91.568" y="392" xlink:href="#eh9" class="series0" id="ehe"></use><use x="95.304" y="181.06" xlink:href="#eh9" class="series0" id="ehf"></use><use x="99.04" y="23.562" xlink:href="#eh9" class="series0" id="ehg"></use><use x="102.78" y="369.5" xlink:href="#eh9" class="series0" id="ehh"></use><use x="106.51" y="58.25" xlink:href="#eh9" class="series0" id="ehi"></use><use x="110.25" y="52.625" xlink:href="#eh9" class="series0" id="ehj"></use><use x="113.98" y="272.94" xlink:href="#eh9" class="series0" id="ehk"></use><use x="117.72" y="388.25" xlink:href="#eh9" class="series0" id="ehl"></use><use x="121.46" y="383.56" xlink:href="#eh9" class="series0" id="ehm"></use><use x="125.19" y="387.31" xlink:href="#eh9" class="series0" id="ehn"></use><use x="128.93" y="387.31" xlink:href="#eh9" class="series0" id="eho"></use><use x="132.66" y="382.62" xlink:href="#eh9" class="series0" id="ehp"></use><use x="136.4" y="387.31" xlink:href="#eh9" class="series0" id="ehq"></use><use x="140.14" y="388.25" xlink:href="#eh9" class="series0" id="ehr"></use><use x="143.87" y="385.44" xlink:href="#eh9" class="series0" id="ehs"></use><use x="147.61" y="386.38" xlink:href="#eh9" class="series0" id="eht"></use><use x="151.34" y="385.44" xlink:href="#eh9" class="series0" id="ehu"></use><use x="155.08" y="386.38" xlink:href="#eh9" class="series0" id="ehv"></use><use x="158.82" y="386.38" xlink:href="#eh9" class="series0" id="ehw"></use><use x="162.55" y="383.56" xlink:href="#eh9" class="series0" id="ehx"></use><use x="166.29" y="387.31" xlink:href="#eh9" class="series0" id="ehy"></use><use x="170.02" y="389.19" xlink:href="#eh9" class="series0" id="ehz"></use><use x="173.76" y="387.31" xlink:href="#eh9" class="series0" id="ei0"></use><use x="177.5" y="388.25" xlink:href="#eh9" class="series0" id="ei1"></use><use x="181.23" y="385.44" xlink:href="#eh9" class="series0" id="ei2"></use><use x="184.97" y="387.31" xlink:href="#eh9" class="series0" id="ei3"></use><use x="188.7" y="386.38" xlink:href="#eh9" class="series0" id="ei4"></use><use x="192.44" y="387.31" xlink:href="#eh9" class="series0" id="ei5"></use><use x="196.18" y="385.44" xlink:href="#eh9" class="series0" id="ei6"></use><use x="199.91" y="388.25" xlink:href="#eh9" class="series0" id="ei7"></use><use x="203.65" y="385.44" xlink:href="#eh9" class="series0" id="ei8"></use><use x="207.38" y="388.25" xlink:href="#eh9" class="series0" id="ei9"></use><use x="211.12" y="389.19" xlink:href="#eh9" class="series0" id="eia"></use><use x="214.86" y="386.38" xlink:href="#eh9" class="series0" id="eib"></use><use x="218.59" y="386.38" xlink:href="#eh9" class="series0" id="eic"></use><use x="222.33" y="391.06" xlink:href="#eh9" class="series0" id="eid"></use><use x="226.06" y="387.31" xlink:href="#eh9" class="series0" id="eie"></use><use x="229.8" y="390.12" xlink:href="#eh9" class="series0" id="eif"></use><use x="233.54" y="389.19" xlink:href="#eh9" class="series0" id="eig"></use><use x="237.27" y="388.25" xlink:href="#eh9" class="series0" id="eih"></use><use x="241.01" y="389.19" xlink:href="#eh9" class="series0" id="eii"></use><use x="244.74" y="386.38" xlink:href="#eh9" class="series0" id="eij"></use><use x="248.48" y="389.19" xlink:href="#eh9" class="series0" id="eik"></use><use x="252.22" y="391.06" xlink:href="#eh9" class="series0" id="eil"></use><use x="255.95" y="389.19" xlink:href="#eh9" class="series0" id="eim"></use><use x="259.69" y="392" xlink:href="#eh9" class="series0" id="ein"></use><use x="263.42" y="390.12" xlink:href="#eh9" class="series0" id="eio"></use><use x="267.16" y="389.19" xlink:href="#eh9" class="series0" id="eip"></use><use x="270.9" y="392" xlink:href="#eh9" class="series0" id="eiq"></use><use x="274.63" y="391.06" xlink:href="#eh9" class="series0" id="eir"></use><use x="278.37" y="391.06" xlink:href="#eh9" class="series0" id="eis"></use><use x="282.1" y="389.19" xlink:href="#eh9" class="series0" id="eit"></use><use x="285.84" y="392" xlink:href="#eh9" class="series0" id="eiu"></use><use x="289.58" y="391.06" xlink:href="#eh9" class="series0" id="eiv"></use><use x="293.31" y="391.06" xlink:href="#eh9" class="series0" id="eiw"></use><use x="297.05" y="389.19" xlink:href="#eh9" class="series0" id="eix"></use><use x="300.78" y="390.12" xlink:href="#eh9" class="series0" id="eiy"></use><use x="304.52" y="391.06" xlink:href="#eh9" class="series0" id="eiz"></use><use x="308.26" y="385.44" xlink:href="#eh9" class="series0" id="ej0"></use><use x="311.99" y="390.12" xlink:href="#eh9" class="series0" id="ej1"></use><use x="315.73" y="390.12" xlink:href="#eh9" class="series0" id="ej2"></use><use x="319.46" y="391.06" xlink:href="#eh9" class="series0" id="ej3"></use><use x="323.2" y="392" xlink:href="#eh9" class="series0" id="ej4"></use><use x="326.94" y="390.12" xlink:href="#eh9" class="series0" id="ej5"></use><use x="330.67" y="390.12" xlink:href="#eh9" class="series0" id="ej6"></use><use x="334.41" y="390.12" xlink:href="#eh9" class="series0" id="ej7"></use><use x="338.14" y="390.12" xlink:href="#eh9" class="series0" id="ej8"></use><use x="341.88" y="389.19" xlink:href="#eh9" class="series0" id="ej9"></use><use x="345.62" y="389.19" xlink:href="#eh9" class="series0" id="eja"></use><use x="349.35" y="390.12" xlink:href="#eh9" class="series0" id="ejb"></use><use x="353.09" y="391.06" xlink:href="#eh9" class="series0" id="ejc"></use><use x="356.82" y="392" xlink:href="#eh9" class="series0" id="ejd"></use><use x="360.56" y="391.06" xlink:href="#eh9" class="series0" id="eje"></use><use x="364.3" y="392" xlink:href="#eh9" class="series0" id="ejf"></use><use x="368.03" y="392" xlink:href="#eh9" class="series0" id="ejg"></use><use x="371.77" y="390.12" xlink:href="#eh9" class="series0" id="ejh"></use><use x="375.5" y="392" xlink:href="#eh9" class="series0" id="eji"></use><use x="379.24" y="391.06" xlink:href="#eh9" class="series0" id="ejj"></use><use x="382.98" y="391.06" xlink:href="#eh9" class="series0" id="ejk"></use><use x="386.71" y="391.06" xlink:href="#eh9" class="series0" id="ejl"></use><use x="390.45" y="390.12" xlink:href="#eh9" class="series0" id="ejm"></use><use x="394.18" y="391.06" xlink:href="#eh9" class="series0" id="ejn"></use><use x="397.92" y="386.38" xlink:href="#eh9" class="series0" id="ejo"></use><use x="401.66" y="390.12" xlink:href="#eh9" class="series0" id="ejp"></use><use x="405.39" y="390.12" xlink:href="#eh9" class="series0" id="ejq"></use><use x="409.13" y="391.06" xlink:href="#eh9" class="series0" id="ejr"></use><use x="412.86" y="389.19" xlink:href="#eh9" class="series0" id="ejs"></use><use x="416.6" y="390.12" xlink:href="#eh9" class="series0" id="ejt"></use><use x="420.34" y="391.06" xlink:href="#eh9" class="series0" id="eju"></use><use x="424.07" y="392" xlink:href="#eh9" class="series0" id="ejv"></use><use x="427.81" y="389.19" xlink:href="#eh9" class="series0" id="ejw"></use><use x="431.54" y="389.19" xlink:href="#eh9" class="series0" id="ejx"></use><use x="435.28" y="389.19" xlink:href="#eh9" class="series0" id="ejy"></use><use x="439.02" y="390.12" xlink:href="#eh9" class="series0" id="ejz"></use><use x="442.75" y="387.31" xlink:href="#eh9" class="series0" id="ek0"></use><use x="446.49" y="392" xlink:href="#eh9" class="series0" id="ek1"></use><use x="450.22" y="392" xlink:href="#eh9" class="series0" id="ek2"></use><use x="453.96" y="388.25" xlink:href="#eh9" class="series0" id="ek3"></use><use x="457.7" y="390.12" xlink:href="#eh9" class="series0" id="ek4"></use><use x="461.43" y="392" xlink:href="#eh9" class="series0" id="ek5"></use><use x="465.17" y="389.19" xlink:href="#eh9" class="series0" id="ek6"></use><use x="468.9" y="390.12" xlink:href="#eh9" class="series0" id="ek7"></use><use x="472.64" y="390.12" xlink:href="#eh9" class="series0" id="ek8"></use><use x="476.38" y="391.06" xlink:href="#eh9" class="series0" id="ek9"></use><use x="480.11" y="392" xlink:href="#eh9" class="series0" id="eka"></use><use x="487.58" y="392" xlink:href="#eh9" class="series0" id="ekb"></use><use x="491.32" y="387.31" xlink:href="#eh9" class="series0" id="ekc"></use><use x="495.06" y="391.06" xlink:href="#eh9" class="series0" id="ekd"></use><use x="498.79" y="391.06" xlink:href="#eh9" class="series0" id="eke"></use><use x="502.53" y="392" xlink:href="#eh9" class="series0" id="ekf"></use><use x="506.26" y="389.19" xlink:href="#eh9" class="series0" id="ekg"></use><use x="510" y="392" xlink:href="#eh9" class="series0" id="ekh"></use><use x="513.74" y="391.06" xlink:href="#eh9" class="series0" id="eki"></use><use x="517.47" y="391.06" xlink:href="#eh9" class="series0" id="ekj"></use><use x="521.21" y="391.06" xlink:href="#eh9" class="series0" id="ekk"></use><use x="524.94" y="391.06" xlink:href="#eh9" class="series0" id="ekl"></use><use x="528.68" y="390.12" xlink:href="#eh9" class="series0" id="ekm"></use><use x="532.42" y="390.12" xlink:href="#eh9" class="series0" id="ekn"></use><use x="536.15" y="391.06" xlink:href="#eh9" class="series0" id="eko"></use><use x="539.89" y="392" xlink:href="#eh9" class="series0" id="ekp"></use><use x="543.62" y="390.12" xlink:href="#eh9" class="series0" id="ekq"></use><use x="547.36" y="392" xlink:href="#eh9" class="series0" id="ekr"></use><use x="551.1" y="390.12" xlink:href="#eh9" class="series0" id="eks"></use><use x="554.83" y="390.12" xlink:href="#eh9" class="series0" id="ekt"></use><use x="558.57" y="391.06" xlink:href="#eh9" class="series0" id="eku"></use><use x="562.3" y="392" xlink:href="#eh9" class="series0" id="ekv"></use><use x="566.04" y="392" xlink:href="#eh9" class="series0" id="ekw"></use><use x="569.78" y="391.06" xlink:href="#eh9" class="series0" id="ekx"></use><use x="573.51" y="392" xlink:href="#eh9" class="series0" id="eky"></use><use x="577.25" y="391.06" xlink:href="#eh9" class="series0" id="ekz"></use><use x="580.98" y="391.06" xlink:href="#eh9" class="series0" id="el0"></use><use x="584.72" y="391.06" xlink:href="#eh9" class="series0" id="el1"></use><use x="588.46" y="390.12" xlink:href="#eh9" class="series0" id="el2"></use><use x="592.19" y="391.06" xlink:href="#eh9" class="series0" id="el3"></use><use x="595.93" y="392" xlink:href="#eh9" class="series0" id="el4"></use><use x="599.66" y="390.12" xlink:href="#eh9" class="series0" id="el5"></use><use x="603.4" y="390.12" xlink:href="#eh9" class="series0" id="el6"></use><use x="607.14" y="390.12" xlink:href="#eh9" class="series0" id="el7"></use><use x="610.87" y="392" xlink:href="#eh9" class="series0" id="el8"></use><use x="614.61" y="390.12" xlink:href="#eh9" class="series0" id="el9"></use><use x="618.34" y="392" xlink:href="#eh9" class="series0" id="ela"></use><use x="625.82" y="392" xlink:href="#eh9" class="series0" id="elb"></use><use x="629.55" y="390.12" xlink:href="#eh9" class="series0" id="elc"></use><use x="633.29" y="391.06" xlink:href="#eh9" class="series0" id="eld"></use><use x="637.02" y="390.12" xlink:href="#eh9" class="series0" id="ele"></use><use x="640.76" y="390.12" xlink:href="#eh9" class="series0" id="elf"></use><use x="644.5" y="391.06" xlink:href="#eh9" class="series0" id="elg"></use><use x="648.23" y="391.06" xlink:href="#eh9" class="series0" id="elh"></use><use x="651.97" y="392" xlink:href="#eh9" class="series0" id="eli"></use><use x="655.7" y="391.06" xlink:href="#eh9" class="series0" id="elj"></use><use x="659.44" y="392" xlink:href="#eh9" class="series0" id="elk"></use><use x="663.18" y="392" xlink:href="#eh9" class="series0" id="ell"></use><use x="666.91" y="391.06" xlink:href="#eh9" class="series0" id="elm"></use><use x="670.65" y="391.06" xlink:href="#eh9" class="series0" id="eln"></use><use x="674.38" y="388.25" xlink:href="#eh9" class="series0" id="elo"></use><use x="678.12" y="391.06" xlink:href="#eh9" class="series0" id="elp"></use><use x="681.86" y="390.12" xlink:href="#eh9" class="series0" id="elq"></use><use x="685.59" y="391.06" xlink:href="#eh9" class="series0" id="elr"></use><use x="689.33" y="390.12" xlink:href="#eh9" class="series0" id="els"></use><use x="693.06" y="391.06" xlink:href="#eh9" class="series0" id="elt"></use><use x="696.8" y="392" xlink:href="#eh9" class="series0" id="elu"></use><use x="700.54" y="391.06" xlink:href="#eh9" class="series0" id="elv"></use><use x="704.27" y="391.06" xlink:href="#eh9" class="series0" id="elw"></use><use x="708.01" y="391.06" xlink:href="#eh9" class="series0" id="elx"></use><use x="711.74" y="391.06" xlink:href="#eh9" class="series0" id="ely"></use><use x="715.48" y="391.06" xlink:href="#eh9" class="series0" id="elz"></use><use x="719.22" y="391.06" xlink:href="#eh9" class="series0" id="em0"></use><use x="722.95" y="392" xlink:href="#eh9" class="series0" id="em1"></use><use x="726.69" y="390.12" xlink:href="#eh9" class="series0" id="em2"></use><use x="730.42" y="392" xlink:href="#eh9" class="series0" id="em3"></use><use x="737.9" y="392" xlink:href="#eh9" class="series0" id="em4"></use><use x="741.63" y="390.12" xlink:href="#eh9" class="series0" id="em5"></use><use x="745.37" y="390.12" xlink:href="#eh9" class="series0" id="em6"></use><use x="749.1" y="392" xlink:href="#eh9" class="series0" id="em7"></use><use x="756.58" y="392" xlink:href="#eh9" class="series0" id="em8"></use><use x="760.31" y="391.06" xlink:href="#eh9" class="series0" id="em9"></use><use x="764.05" y="391.06" xlink:href="#eh9" class="series0" id="ema"></use><use x="767.78" y="391.06" xlink:href="#eh9" class="series0" id="emb"></use><use x="771.52" y="392" xlink:href="#eh9" class="series0" id="emc"></use><use x="775.26" y="392" xlink:href="#eh9" class="series0" id="emd"></use><use x="778.99" y="391.06" xlink:href="#eh9" class="series0" id="eme"></use><use x="782.73" y="390.12" xlink:href="#eh9" class="series0" id="emf"></use><use x="786.46" y="391.06" xlink:href="#eh9" class="series0" id="emg"></use><use x="790.2" y="391.06" xlink:href="#eh9" class="series0" id="emh"></use><use x="793.94" y="391.06" xlink:href="#eh9" class="series0" id="emi"></use><use x="797.67" y="392" xlink:href="#eh9" class="series0" id="emj"></use><use x="801.41" y="391.06" xlink:href="#eh9" class="series0" id="emk"></use><use x="805.14" y="392" xlink:href="#eh9" class="series0" id="eml"></use><use x="808.88" y="392" xlink:href="#eh9" class="series0" id="emm"></use><use x="812.62" y="391.06" xlink:href="#eh9" class="series0" id="emn"></use><use x="816.35" y="391.06" xlink:href="#eh9" class="series0" id="emo"></use><use x="820.09" y="392" xlink:href="#eh9" class="series0" id="emp"></use><use x="823.82" y="390.12" xlink:href="#eh9" class="series0" id="emq"></use><use x="827.56" y="391.06" xlink:href="#eh9" class="series0" id="emr"></use><use x="831.3" y="392" xlink:href="#eh9" class="series0" id="ems"></use><use x="835.03" y="392" xlink:href="#eh9" class="series0" id="emt"></use><use x="838.77" y="391.06" xlink:href="#eh9" class="series0" id="emu"></use><use x="842.5" y="392" xlink:href="#eh9" class="series0" id="emv"></use><use x="846.24" y="391.06" xlink:href="#eh9" class="series0" id="emw"></use><use x="849.98" y="392" xlink:href="#eh9" class="series0" id="emx"></use><use x="853.71" y="391.06" xlink:href="#eh9" class="series0" id="emy"></use><use x="857.45" y="392" xlink:href="#eh9" class="series0" id="emz"></use><use x="883.6" y="392" xlink:href="#eh9" class="series0" id="en0"></use><use x="887.34" y="391.06" xlink:href="#eh9" class="series0" id="en1"></use><use x="891.07" y="392" xlink:href="#eh9" class="series0" id="en2"></use><use x="898.54" y="392" xlink:href="#eh9" class="series0" id="en3"></use><use x="902.28" y="391.06" xlink:href="#eh9" class="series0" id="en4"></use><use x="906.02" y="392" xlink:href="#eh9" class="series0" id="en5"></use><use x="928.43" y="392" xlink:href="#eh9" class="series0" id="en6"></use><use x="932.17" y="391.06" xlink:href="#eh9" class="series0" id="en7"></use><use x="935.9" y="391.06" xlink:href="#eh9" class="series0" id="en8"></use><use x="939.64" y="391.06" xlink:href="#eh9" class="series0" id="en9"></use></g></svg>
